<svg xmlns="http://www.w3.org/2000/svg" xmlns:xlink="http://www.w3.org/1999/xlink" width="1080" zoomAndPan="magnify" viewBox="0 0 810 809.999993" height="1080" preserveAspectRatio="xMidYMid meet" version="1.2"><g id="a338be51c1"><path style=" stroke:none;fill-rule:nonzero;fill:#0e2b41;fill-opacity:1;" d="M 410.265625 5.417969 L 413.253906 5.421875 C 481.121094 5.613281 548.199219 23.128906 607.144531 57.105469 C 622.710938 66.222656 637.902344 76.28125 652.050781 87.480469 L 653.707031 88.792969 C 659.675781 93.535156 665.554688 98.351562 671.160156 103.523438 C 672.210938 104.480469 673.265625 105.433594 674.351562 106.347656 C 679.871094 111.035156 684.945312 116.175781 690.0625 121.289062 C 691.679688 122.90625 693.304688 124.515625 694.929688 126.125 C 700.152344 131.324219 705.160156 136.535156 709.71875 142.339844 C 711.148438 144.140625 712.652344 145.835938 714.21875 147.519531 C 754.871094 192.851562 782.363281 253.316406 795.273438 312.464844 C 809.640625 380.960938 806.988281 450.625 786.511719 517.589844 L 785.710938 520.222656 C 770.082031 571.007812 742.566406 619.78125 706.578125 658.90625 C 705.046875 660.582031 703.542969 662.277344 702.066406 663.996094 C 699.238281 667.253906 696.300781 670.410156 693.359375 673.566406 L 691.933594 675.101562 C 687.765625 679.558594 683.578125 684.03125 678.929688 687.992188 C 676.472656 690.121094 674.042969 692.28125 671.640625 694.472656 C 668.183594 697.589844 664.640625 700.570312 661.015625 703.496094 C 659.242188 704.929688 657.484375 706.386719 655.738281 707.855469 C 606.203125 749.300781 543.15625 775.785156 479.871094 787.191406 C 475.984375 787.84375 472.085938 788.410156 468.179688 788.941406 L 465.046875 789.367188 C 461.621094 789.828125 458.195312 790.273438 454.765625 790.710938 L 451.554688 791.121094 C 438.191406 792.765625 424.976562 793.183594 411.53125 793.191406 L 408.9375 793.195312 C 394.234375 793.183594 379.902344 792.40625 365.308594 790.558594 L 362.3125 790.207031 C 294.894531 782.195312 230.125 756.136719 175.667969 715.636719 C 174.078125 714.425781 172.492188 713.210938 170.910156 711.988281 L 169.523438 710.925781 C 163.917969 706.621094 158.472656 702.226562 153.265625 697.4375 C 151.660156 695.96875 150.03125 694.527344 148.382812 693.105469 C 138.625 684.585938 128.910156 675.734375 120.5 665.859375 C 118.75 663.828125 116.9375 661.867188 115.121094 659.898438 C 111.136719 655.519531 107.359375 651.015625 103.679688 646.378906 L 102.398438 644.777344 C 95.714844 636.359375 89.371094 627.796875 83.429688 618.839844 L 82.339844 617.210938 C 57.316406 579.78125 38.90625 537.875 28.351562 494.101562 L 27.9375 492.390625 C 20.589844 461.660156 16.824219 430.621094 16.859375 399.027344 L 16.859375 396.402344 C 16.878906 383.792969 17.136719 371.363281 18.628906 358.828125 L 18.945312 355.96875 C 25.320312 298.753906 43.71875 243.566406 73.710938 194.398438 L 75.824219 190.882812 C 85.757812 174.527344 97.273438 159.351562 109.730469 144.855469 C 110.628906 143.773438 111.507812 142.679688 112.371094 141.570312 C 117.878906 134.566406 124.121094 128.351562 130.433594 122.074219 C 132.328125 120.1875 134.21875 118.289062 136.105469 116.394531 C 142.332031 110.160156 148.574219 104.25 155.519531 98.820312 C 156.492188 97.996094 157.457031 97.164062 158.414062 96.324219 C 207.988281 52.804688 271.414062 24.953125 335.667969 12.054688 C 341.644531 10.886719 347.644531 9.910156 353.667969 9.011719 L 356.769531 8.542969 C 374.53125 6.046875 392.347656 5.359375 410.265625 5.417969 "/><path style=" stroke:none;fill-rule:nonzero;fill:#f3d861;fill-opacity:1;" d="M 364.5 224.371094 L 459.269531 224.371094 L 460.28125 250.847656 C 460.535156 257.320312 460.789062 263.792969 461.050781 270.261719 C 461.691406 286.050781 462.414062 301.835938 463.167969 317.621094 L 463.265625 319.691406 C 463.4375 323.273438 463.609375 326.859375 463.78125 330.441406 L 463.886719 332.6875 L 464.105469 337.257812 C 464.78125 351.339844 465.4375 365.425781 466.085938 379.511719 L 466.160156 381.144531 L 467.085938 401.210938 L 468.574219 433.570312 L 468.652344 435.269531 C 469.816406 460.523438 470.992188 485.773438 472.175781 511.023438 C 472.878906 526.03125 473.582031 541.035156 474.285156 556.042969 C 475.792969 587.996094 477.261719 619.957031 478.691406 651.914062 C 478.835938 655.175781 478.984375 658.433594 479.132812 661.695312 C 479.304688 665.503906 479.472656 669.316406 479.640625 673.128906 C 479.703125 674.519531 479.765625 675.914062 479.828125 677.304688 C 480.207031 685.632812 480.410156 693.929688 480.328125 702.269531 C 474.347656 702.289062 468.363281 702.304688 462.378906 702.316406 C 460.34375 702.320312 458.304688 702.324219 456.265625 702.332031 C 453.34375 702.339844 450.425781 702.34375 447.503906 702.347656 L 444.722656 702.363281 L 442.167969 702.363281 L 439.90625 702.367188 L 438.210938 702.269531 L 437.398438 701.460938 C 437.308594 699.6875 437.253906 697.910156 437.242188 696.136719 L 437.21875 694.429688 C 437.195312 692.527344 437.179688 690.628906 437.160156 688.726562 L 437.109375 684.65625 C 437.066406 680.960938 437.027344 677.265625 436.992188 673.574219 C 436.949219 669.714844 436.90625 665.859375 436.863281 662 C 436.777344 654.691406 436.699219 647.382812 436.621094 640.074219 C 436.53125 631.753906 436.4375 623.433594 436.34375 615.113281 C 436.152344 597.996094 435.964844 580.878906 435.78125 563.761719 L 433.046875 563.765625 C 429.652344 563.773438 426.253906 563.78125 422.859375 563.78125 C 421.398438 563.785156 419.9375 563.785156 418.476562 563.789062 C 408.023438 563.816406 397.613281 563.65625 387.179688 562.949219 L 387.191406 565.503906 C 387.3125 592.105469 387.101562 618.699219 386.851562 645.296875 L 386.777344 653.675781 C 386.738281 658.160156 386.695312 662.644531 386.652344 667.128906 C 386.636719 668.796875 386.621094 670.460938 386.605469 672.128906 C 386.585938 674.460938 386.5625 676.789062 386.535156 679.117188 L 386.523438 681.101562 C 386.4375 688.183594 385.953125 695.171875 385.558594 702.269531 L 343.441406 702.269531 C 342.554688 699.613281 342.609375 697.921875 342.746094 695.136719 L 342.886719 692.105469 L 343.058594 688.722656 L 343.234375 685.085938 C 343.363281 682.394531 343.496094 679.699219 343.628906 677.003906 C 343.894531 671.621094 344.152344 666.238281 344.40625 660.855469 L 345.035156 647.730469 C 345.785156 632.007812 346.515625 616.285156 347.226562 600.5625 L 347.886719 586.050781 C 348.542969 571.578125 349.203125 557.101562 349.867188 542.628906 L 349.964844 540.511719 C 352.152344 492.71875 354.398438 444.925781 356.636719 397.128906 C 358.332031 361.042969 360.011719 324.953125 361.679688 288.863281 C 362.671875 267.367188 363.585938 245.867188 364.5 224.371094 M 234.089844 366.929688 L 328.859375 366.929688 C 329.789062 369.71875 329.769531 371.855469 329.773438 374.796875 L 329.773438 376.492188 C 329.777344 378.375 329.773438 380.261719 329.773438 382.144531 L 329.777344 386.226562 C 329.78125 389.972656 329.78125 393.71875 329.777344 397.464844 C 329.773438 401.503906 329.777344 405.539062 329.78125 409.574219 C 329.78125 417.488281 329.78125 425.402344 329.78125 433.3125 C 329.777344 442.523438 329.777344 451.734375 329.78125 460.9375 C 329.78125 478.355469 329.78125 495.777344 329.773438 513.195312 C 329.769531 528.152344 329.773438 543.113281 329.773438 558.070312 C 329.777344 577.273438 329.777344 596.476562 329.777344 615.679688 L 329.777344 618.4375 C 329.777344 624.863281 329.777344 631.285156 329.78125 637.707031 C 329.78125 645.53125 329.78125 653.359375 329.777344 661.183594 C 329.773438 665.179688 329.773438 669.171875 329.777344 673.167969 C 329.78125 676.820312 329.777344 680.476562 329.773438 684.128906 C 329.773438 685.453125 329.773438 686.78125 329.777344 688.105469 C 329.777344 689.898438 329.777344 691.695312 329.773438 693.488281 L 329.773438 696.515625 C 329.6875 698.597656 329.480469 700.292969 328.859375 702.269531 C 321.164062 702.289062 313.46875 702.300781 305.773438 702.3125 C 302.199219 702.316406 298.628906 702.320312 295.054688 702.332031 C 291.609375 702.339844 288.164062 702.34375 284.71875 702.347656 C 283.402344 702.347656 282.082031 702.351562 280.765625 702.355469 C 278.925781 702.359375 277.089844 702.363281 275.25 702.363281 L 272.074219 702.367188 L 269.730469 702.269531 L 268.921875 701.460938 C 268.644531 699.523438 268.421875 697.601562 268.222656 695.65625 L 268.023438 693.785156 C 267.804688 691.699219 267.585938 689.613281 267.371094 687.523438 L 266.898438 683.035156 C 266.46875 678.925781 266.039062 674.816406 265.613281 670.707031 C 265.15625 666.335938 264.699219 661.964844 264.238281 657.59375 C 263.453125 650.113281 262.671875 642.628906 261.890625 635.148438 C 260.261719 619.558594 258.628906 603.972656 256.992188 588.386719 C 256.890625 587.425781 256.789062 586.464844 256.6875 585.472656 L 254.546875 565.042969 C 251.390625 534.910156 248.210938 504.78125 245.007812 474.65625 L 241.585938 442.4375 C 240.664062 433.726562 239.734375 425.019531 238.800781 416.308594 C 238.265625 411.339844 237.734375 406.375 237.203125 401.40625 C 236.820312 397.800781 236.429688 394.199219 236.042969 390.597656 C 235.746094 387.84375 235.449219 385.089844 235.15625 382.332031 L 234.828125 379.3125 L 234.53125 376.515625 L 234.273438 374.09375 C 234.082031 371.710938 234.089844 369.320312 234.089844 366.929688 M 494.101562 366.929688 L 588.871094 366.929688 C 588.871094 376.042969 588.871094 376.042969 588.523438 379.320312 L 588.289062 381.59375 L 588.027344 384.007812 L 587.75 386.636719 C 587.445312 389.53125 587.140625 392.421875 586.828125 395.3125 L 586.167969 401.582031 C 585.699219 406.066406 585.222656 410.546875 584.75 415.03125 C 584.015625 421.957031 583.289062 428.882812 582.566406 435.808594 L 581.824219 442.902344 L 581.636719 444.703125 C 580.914062 451.605469 580.191406 458.507812 579.464844 465.410156 L 579.261719 467.371094 C 576.835938 490.429688 574.414062 513.484375 571.996094 536.542969 C 570.789062 548.003906 569.585938 559.464844 568.382812 570.925781 C 566.6875 587.058594 564.992188 603.195312 563.292969 619.328125 C 562.425781 627.539062 561.5625 635.75 560.703125 643.960938 C 559.96875 650.953125 559.234375 657.941406 558.496094 664.933594 C 558.117188 668.515625 557.742188 672.097656 557.367188 675.679688 C 557.023438 678.96875 556.675781 682.257812 556.328125 685.546875 L 555.953125 689.128906 C 555.78125 690.75 555.613281 692.367188 555.4375 693.988281 L 555.152344 696.71875 C 554.851562 699.03125 554.851562 699.03125 554.039062 702.269531 L 494.101562 702.269531 Z M 156.519531 487.515625 L 158.574219 487.511719 L 160.804688 487.515625 L 163.171875 487.511719 C 165.757812 487.507812 168.339844 487.507812 170.917969 487.511719 C 172.710938 487.511719 174.503906 487.511719 176.292969 487.511719 C 180.046875 487.507812 183.796875 487.511719 187.550781 487.515625 C 192.371094 487.519531 197.195312 487.515625 202.015625 487.511719 C 205.710938 487.507812 209.410156 487.507812 213.105469 487.511719 C 214.886719 487.511719 216.664062 487.511719 218.441406 487.511719 C 220.921875 487.507812 223.398438 487.511719 225.878906 487.515625 L 228.125 487.511719 C 229.84375 487.515625 231.5625 487.5625 233.28125 487.621094 L 234.089844 488.429688 C 234.167969 489.574219 234.191406 490.722656 234.191406 491.871094 L 234.195312 494.132812 L 234.1875 496.644531 L 234.191406 499.292969 C 234.191406 502.246094 234.1875 505.199219 234.179688 508.152344 L 234.183594 514.472656 C 234.183594 519.019531 234.179688 523.570312 234.175781 528.117188 C 234.167969 534.695312 234.167969 541.269531 234.167969 547.847656 C 234.164062 558.515625 234.160156 569.183594 234.152344 579.851562 C 234.144531 590.21875 234.136719 600.585938 234.132812 610.953125 L 234.132812 612.886719 L 234.128906 622.496094 C 234.121094 649.085938 234.109375 675.679688 234.089844 702.269531 L 191.96875 702.269531 L 188.996094 687.371094 L 184.335938 664.050781 C 178.847656 636.589844 173.328125 609.132812 167.777344 581.683594 L 165.230469 569.074219 L 162.769531 556.914062 C 161.15625 548.917969 159.539062 540.925781 157.917969 532.933594 C 156.828125 527.550781 155.742188 522.167969 154.65625 516.785156 C 154.132812 514.175781 153.605469 511.570312 153.074219 508.960938 C 152.515625 506.203125 151.960938 503.445312 151.40625 500.6875 L 150.917969 498.300781 L 150.484375 496.128906 L 150.109375 494.273438 C 149.824219 492.304688 149.804688 490.417969 149.851562 488.429688 C 152.128906 487.785156 154.152344 487.519531 156.519531 487.515625 M 589.679688 487.621094 L 673.109375 487.621094 C 673.855469 490.609375 673.960938 491.5625 673.390625 494.398438 L 672.972656 496.539062 L 672.492188 498.882812 L 671.996094 501.378906 C 671.441406 504.152344 670.882812 506.917969 670.320312 509.6875 C 669.921875 511.671875 669.527344 513.652344 669.132812 515.636719 C 668.277344 519.910156 667.417969 524.183594 666.554688 528.457031 C 665.304688 534.644531 664.0625 540.832031 662.824219 547.023438 C 660.808594 557.074219 658.792969 567.125 656.765625 577.175781 C 654.804688 586.921875 652.84375 596.664062 650.890625 606.410156 L 650.527344 608.226562 L 648.714844 617.25 C 644.046875 640.511719 639.371094 663.773438 634.691406 687.03125 L 634.253906 689.210938 L 633.835938 691.28125 C 633.542969 692.742188 633.257812 694.203125 632.980469 695.667969 L 632.550781 697.898438 L 632.171875 699.914062 L 631.800781 701.460938 L 630.988281 702.269531 L 589.679688 702.269531 Z M 428.488281 144.179688 C 435.210938 148.195312 440.007812 152.945312 444.074219 159.59375 C 447.5 165.890625 448.316406 172.386719 448.183594 179.492188 C 447.609375 185.769531 445.714844 191.519531 442.308594 196.828125 C 440.34375 199.523438 438.292969 201.90625 435.78125 204.121094 L 434.484375 205.300781 C 429.625 209.375 424.085938 211.542969 417.960938 213.03125 C 411.066406 213.839844 404.828125 213.304688 398.339844 210.804688 C 391.320312 207.636719 386.082031 203.917969 381.511719 197.640625 C 377.644531 191.695312 375.925781 185.195312 375.03125 178.199219 C 374.796875 171.105469 376.808594 164.65625 380.117188 158.429688 C 384.074219 152.015625 389.332031 147.441406 395.9375 143.875 C 406.601562 138.910156 417.921875 139.015625 428.488281 144.179688 M 551.003906 290.890625 C 556.59375 292.839844 561.144531 295.996094 565.175781 300.308594 C 568.457031 304.28125 571.109375 308.835938 572.359375 313.859375 C 573.273438 319.882812 572.910156 325.699219 571.136719 331.53125 C 568.847656 337.121094 565.101562 341.933594 560.367188 345.671875 C 555.351562 349.113281 550.132812 351.0625 544.101562 351.75 C 538.160156 352.035156 532.777344 350.558594 527.308594 348.300781 C 522.449219 345.578125 518.328125 341.527344 515.160156 336.960938 C 511.53125 329.660156 510.613281 323.207031 511.109375 315.089844 C 511.820312 310.480469 513.355469 306.941406 516.121094 303.195312 C 520.527344 297.964844 524.9375 294.007812 531.296875 291.378906 C 537.578125 289.183594 544.582031 289.179688 551.003906 290.890625 M 290.941406 290.839844 C 296.660156 292.820312 301.613281 296.40625 305.671875 300.863281 C 309.378906 305.550781 311.734375 310.804688 312.660156 316.710938 C 313.453125 323 311.75 328.710938 309.421875 334.53125 C 306.84375 339.511719 303.507812 343.484375 298.890625 346.679688 C 293.636719 349.882812 288.273438 351.546875 282.132812 351.84375 C 276.28125 351.699219 270.5 350.089844 265.390625 347.230469 C 260.226562 343.570312 255.886719 338.925781 253.226562 333.164062 C 250.757812 327.292969 250.703125 321.378906 251.101562 315.089844 C 251.933594 310.054688 253.703125 306.03125 256.9375 302.085938 C 261.664062 296.960938 266.304688 293.046875 272.96875 290.789062 C 278.605469 289.042969 285.28125 289.378906 290.941406 290.839844 M 203.574219 422.453125 C 208.285156 425.015625 212.15625 428.5 215.214844 432.902344 C 218.308594 438.273438 218.953125 442.640625 218.953125 448.859375 C 218.867188 452.898438 218.308594 456.199219 216.59375 459.851562 C 213.9375 464.183594 210.566406 467.648438 206.703125 470.914062 C 201.816406 473.402344 196.074219 475.203125 190.535156 474.941406 C 184.871094 474.058594 179.273438 472.472656 174.554688 469.140625 C 170.847656 465.996094 168.480469 462.96875 166.707031 458.414062 C 165.054688 453.4375 163.828125 449.109375 164.429688 443.878906 C 165.503906 438.949219 166.996094 434.960938 170.101562 430.921875 L 171.46875 428.894531 C 174.5 425.601562 178.078125 423.082031 182.203125 421.34375 C 189.222656 419.277344 196.84375 419.691406 203.574219 422.453125 M 641.214844 421.554688 C 646.265625 423.628906 650.070312 426.859375 653.671875 430.921875 C 655.949219 434.199219 657.808594 437.496094 658.53125 441.449219 C 658.984375 447.757812 659.222656 453.96875 656.46875 459.796875 C 653.78125 464.128906 650.523438 468.050781 646.3125 470.96875 C 641.808594 473.371094 637.097656 474.449219 632.050781 474.964844 C 627.136719 474.78125 622.503906 473.414062 618.03125 471.421875 C 612.972656 467.992188 609.335938 463.921875 606.558594 458.496094 C 604.246094 452.863281 604.75 446.621094 605.070312 440.640625 C 605.859375 436.273438 608.171875 432.644531 610.90625 429.207031 C 614.34375 425.59375 618.511719 423.105469 623.144531 421.300781 C 629.160156 419.554688 635.246094 419.714844 641.214844 421.554688 "/><path style=" stroke:none;fill-rule:nonzero;fill:#fefefe;fill-opacity:1;" d="M 392.039062 41.308594 C 396.273438 42.699219 399.527344 44.773438 402.703125 47.886719 C 404.957031 50.566406 406.78125 53.242188 407.835938 56.597656 C 408.699219 61.496094 408.292969 66.355469 406.667969 71.050781 C 404.855469 75.023438 402.773438 78.1875 399.28125 80.851562 C 395.210938 83.332031 391.117188 84.367188 386.371094 84.542969 C 381.625 84.367188 377.527344 83.332031 373.457031 80.851562 C 369.945312 78.171875 367.890625 74.988281 366.070312 70.992188 C 364.429688 66.371094 364.15625 61.890625 364.90625 57.054688 C 365.878906 53.390625 367.75 50.691406 370.164062 47.804688 C 376.457031 41.484375 383.347656 40.378906 392.039062 41.308594 M 693.359375 183.871094 C 697.1875 185.007812 700.152344 186.761719 703.132812 189.402344 C 705.90625 192.339844 707.992188 195.339844 709.207031 199.210938 C 710.144531 203.660156 709.871094 207.628906 708.546875 211.96875 C 706.976562 216.171875 704.898438 219.3125 701.714844 222.496094 C 698.222656 225.214844 694.304688 226.425781 689.964844 227.058594 C 685.558594 227.296875 681.707031 226.257812 677.632812 224.628906 C 673.6875 222.613281 671.273438 219.949219 668.808594 216.328125 C 666.746094 212.53125 666.316406 208.867188 666.125 204.574219 C 666.246094 200.523438 666.6875 197.503906 668.65625 193.945312 C 671.171875 190.378906 674.128906 187.582031 677.96875 185.488281 C 683.109375 183.460938 687.902344 183.261719 693.359375 183.871094 "/><path style=" stroke:none;fill-rule:nonzero;fill:#fdfdfd;fill-opacity:1;" d="M 203.007812 119.929688 C 207.210938 122.34375 210.769531 125.015625 213.5 129.074219 C 215.507812 132.625 216.972656 135.65625 217.332031 139.773438 C 217.230469 144.121094 216.042969 147.734375 213.839844 151.46875 C 209.917969 156.15625 205.375 160.542969 200.070312 163.621094 C 198.449219 163.480469 198.449219 163.480469 196.828125 162.808594 C 195.539062 161.59375 195.539062 161.59375 194.289062 160.03125 L 192.882812 158.296875 L 191.414062 156.429688 L 189.886719 154.535156 C 188.878906 153.28125 187.875 152.027344 186.871094 150.769531 C 185.09375 148.558594 183.300781 146.363281 181.488281 144.179688 C 178.445312 140.445312 175.457031 136.664062 172.53125 132.839844 C 174.945312 129.566406 177.671875 127.050781 180.882812 124.589844 L 182.214844 123.515625 C 188.351562 118.769531 195.625 117.765625 203.007812 119.929688 "/><path style=" stroke:none;fill-rule:nonzero;fill:#fefefe;fill-opacity:1;" d="M 469.800781 45.359375 C 486.558594 48.074219 486.558594 48.074219 493.59375 53.664062 C 495.609375 55.554688 497.050781 57.246094 498.148438 59.789062 C 499.277344 63.628906 499.476562 67.316406 498.960938 71.28125 C 497.90625 75.613281 496.5625 79.605469 494.253906 83.429688 C 491.601562 85.851562 488.742188 87.683594 485.277344 88.769531 C 477.105469 90.34375 468.875 88.371094 460.890625 86.671875 C 462.191406 79.082031 463.769531 71.558594 465.355469 64.027344 C 465.804688 61.894531 466.25 59.761719 466.695312 57.628906 L 467.550781 53.558594 L 467.953125 51.628906 C 468.898438 47.167969 468.898438 47.167969 469.800781 45.359375 M 270.621094 76.664062 C 273.984375 78.078125 276.160156 79.972656 278.488281 82.773438 C 281.433594 86.878906 283.058594 90.785156 283.753906 95.78125 C 283.984375 99.945312 283.078125 103.203125 281.226562 106.921875 C 278.484375 111.519531 274.28125 114.082031 269.730469 116.640625 C 262.25 120.691406 262.25 120.691406 259.199219 120.691406 C 256.902344 116.039062 254.609375 111.382812 252.324219 106.722656 C 251.546875 105.140625 250.765625 103.558594 249.980469 101.972656 C 248.859375 99.699219 247.738281 97.417969 246.625 95.140625 L 245.5625 93 L 244.578125 90.988281 L 243.710938 89.226562 C 242.929688 87.3125 242.535156 85.464844 242.191406 83.429688 C 244.210938 82.375 246.234375 81.328125 248.265625 80.292969 L 249.972656 79.394531 C 256.859375 75.890625 263.078125 74.335938 270.621094 76.664062 M 589.679688 88.289062 C 595.300781 90.328125 600.65625 93.679688 604.953125 97.847656 C 606.742188 100.128906 607.765625 102.433594 608.308594 105.25 C 608.503906 108.273438 607.949219 110.757812 606.765625 113.539062 C 605.269531 116.042969 603.398438 117.398438 601.019531 119.070312 C 599.398438 119.878906 599.398438 119.878906 593.730469 119.878906 L 594.539062 139.320312 C 591.300781 138.511719 591.300781 138.511719 588.738281 137.535156 L 586.441406 135.269531 C 585.578125 131.582031 585.460938 127.90625 585.328125 124.132812 L 585.160156 121.015625 C 585.023438 118.476562 584.914062 115.9375 584.820312 113.398438 C 582.441406 116.34375 580.214844 119.398438 578.136719 122.5625 C 577.277344 123.859375 577.277344 123.859375 576.402344 125.1875 L 575.101562 127.171875 C 572.34375 126.3125 570.230469 125.542969 567.808594 123.929688 C 569.183594 119.871094 571.480469 116.472656 573.785156 112.894531 L 576.398438 108.792969 L 577.765625 106.660156 C 579.160156 104.472656 580.542969 102.28125 581.925781 100.085938 L 583.265625 97.953125 L 585.835938 93.863281 L 587.007812 92.003906 L 588.039062 90.359375 C 588.871094 89.101562 588.871094 89.101562 589.679688 88.289062 M 353.160156 45.359375 C 355.023438 52.539062 356.65625 59.757812 358.195312 67.011719 C 358.582031 68.816406 358.972656 70.621094 359.363281 72.425781 L 360.105469 75.910156 L 360.777344 79.050781 C 361.1875 81.402344 361.363281 83.484375 361.261719 85.859375 C 357.769531 84.828125 355.03125 83.519531 352.019531 81.480469 L 349.589844 79.859375 L 344.582031 76.472656 L 342.148438 74.847656 L 339.953125 73.363281 C 337.660156 72.027344 335.449219 71.222656 332.910156 70.46875 L 333.28125 72.054688 C 333.835938 74.425781 334.386719 76.800781 334.933594 79.175781 L 335.519531 81.671875 L 336.074219 84.074219 C 336.242188 84.804688 336.414062 85.535156 336.589844 86.285156 C 336.960938 88.289062 336.960938 88.289062 336.960938 91.53125 L 328.859375 93.148438 C 327.703125 87.773438 326.550781 82.394531 325.398438 77.019531 C 325.007812 75.1875 324.613281 73.359375 324.21875 71.527344 C 323.65625 68.902344 323.09375 66.273438 322.53125 63.644531 C 322.355469 62.824219 322.175781 62.003906 321.996094 61.160156 L 321.503906 58.851562 L 321.066406 56.816406 C 320.761719 55.078125 320.761719 55.078125 320.761719 52.648438 C 325.191406 53.847656 328.539062 55.996094 332.300781 58.523438 C 333.523438 59.328125 334.742188 60.132812 335.964844 60.933594 L 337.742188 62.105469 C 343.566406 66.007812 343.566406 66.007812 349.921875 68.851562 L 349.238281 66.328125 C 347.539062 59.878906 346.152344 53.679688 345.871094 46.980469 C 350.425781 45.359375 350.425781 45.359375 353.160156 45.359375 "/><path style=" stroke:none;fill-rule:nonzero;fill:#fdfdfd;fill-opacity:1;" d="M 661.769531 144.179688 L 663.390625 144.179688 L 663.390625 175.769531 C 666.285156 174.324219 667.566406 173.371094 669.71875 171.113281 C 673.945312 166.804688 673.945312 166.804688 676.148438 164.785156 L 677.453125 163.566406 L 678.78125 162.808594 C 680.449219 162.988281 680.449219 162.988281 682.019531 163.621094 C 683.84375 165.292969 683.84375 165.292969 685.261719 166.859375 C 682.691406 172.710938 676.996094 176.777344 672.246094 180.859375 C 670.230469 182.652344 668.359375 184.5625 666.46875 186.488281 C 664.367188 188.554688 662.144531 190.472656 659.90625 192.390625 C 658.875 193.296875 657.875 194.234375 656.910156 195.210938 L 654.480469 195.210938 C 654.335938 184.390625 654.78125 173.617188 655.289062 162.808594 C 649.519531 167.371094 644.179688 172.074219 639.089844 177.390625 C 636.394531 176.132812 634.644531 174.710938 632.609375 172.53125 C 633.738281 169.898438 635.015625 168.421875 637.21875 166.605469 C 639.421875 164.742188 641.527344 162.851562 643.546875 160.785156 C 645.9375 158.351562 648.441406 156.101562 651.03125 153.882812 C 654.046875 151.242188 656.960938 148.488281 659.890625 145.753906 Z M 661.769531 144.179688 "/><path style=" stroke:none;fill-rule:nonzero;fill:#fefefe;fill-opacity:1;" d="M 163.621094 140.128906 C 166.808594 141.425781 168.980469 143.625 171.371094 146.019531 L 172.652344 147.289062 C 173.546875 148.175781 174.433594 149.0625 175.320312 149.957031 C 176.675781 151.308594 178.039062 152.660156 179.40625 154.003906 C 180.273438 154.867188 181.136719 155.734375 182.003906 156.597656 L 183.234375 157.808594 C 185.523438 160.128906 186.984375 162.109375 187.921875 165.238281 C 188.386719 168.871094 188.355469 172.4375 187.449219 175.996094 C 186.371094 178.558594 185.128906 180.234375 183.042969 182.078125 C 180.308594 184.046875 177.828125 185.355469 174.605469 186.351562 C 170.5 186.277344 167.3125 185.738281 163.621094 183.871094 C 160.101562 181.171875 157.011719 178.101562 153.898438 174.960938 C 152.855469 173.921875 151.808594 172.886719 150.761719 171.851562 C 148.011719 169.125 145.28125 166.378906 142.558594 163.621094 C 144.59375 159.425781 144.59375 159.425781 146.609375 157.949219 C 148.140625 158.136719 148.140625 158.136719 149.851562 158.761719 C 151.21875 159.878906 151.21875 159.878906 152.566406 161.296875 L 154.085938 162.863281 L 155.671875 164.53125 C 161.917969 171.253906 161.917969 171.253906 169.289062 176.578125 C 172.300781 177.257812 172.300781 177.257812 174.960938 176.578125 L 176.882812 175.820312 C 178.292969 174.03125 178.695312 172.964844 179.164062 170.757812 C 179.355469 168.796875 179.355469 168.796875 179.011719 166.859375 C 177.53125 164.277344 175.492188 162.414062 173.339844 160.378906 L 171.382812 158.375 C 167.367188 154.246094 163.160156 150.328125 158.761719 146.609375 C 160.015625 143.914062 161.4375 142.167969 163.621094 140.128906 "/><path style=" stroke:none;fill-rule:nonzero;fill:#fdfdfd;fill-opacity:1;" d="M 217.078125 98.011719 C 219.757812 99.289062 222.261719 100.78125 224.789062 102.339844 L 227.4375 103.972656 L 230.242188 105.703125 L 233.097656 107.464844 C 238.964844 111.085938 244.824219 114.722656 250.660156 118.394531 C 253.257812 120.035156 253.257812 120.035156 255.960938 121.5 C 255.402344 122.96875 255.402344 122.96875 254.339844 124.738281 C 252.417969 126.207031 252.417969 126.207031 250.289062 127.171875 C 248.769531 126.96875 248.769531 126.96875 247.050781 126.359375 C 244.464844 125.390625 244.464844 125.390625 241.378906 125.550781 C 237.160156 127.808594 233.15625 130.8125 230.039062 134.460938 L 230.140625 137.296875 L 230.039062 140.128906 C 227.761719 142.15625 227.761719 142.15625 225.179688 143.371094 L 222.75 142.558594 C 221.097656 132.109375 219.480469 121.660156 218.09375 111.171875 L 217.78125 108.855469 C 217.308594 105.210938 216.957031 101.691406 217.078125 98.011719 "/><path style=" stroke:none;fill-rule:nonzero;fill:#fefefe;fill-opacity:1;" d="M 292.410156 61.558594 C 293.894531 61.832031 293.894531 61.832031 295.648438 62.371094 C 297.300781 63.980469 298.886719 65.648438 300.410156 67.382812 C 304.066406 71.433594 307.808594 75.375 311.699219 79.207031 L 312.925781 80.417969 C 314.558594 82.027344 316.195312 83.632812 317.839844 85.230469 C 319 86.363281 320.15625 87.496094 321.3125 88.632812 L 323.355469 90.621094 L 324.808594 92.339844 L 324.808594 94.769531 C 322.332031 95.75 320.453125 96.425781 317.773438 96.238281 C 315.898438 95.578125 315.898438 95.578125 314.773438 94.296875 L 313.46875 93.148438 C 310.941406 93.15625 308.582031 94.03125 306.179688 94.769531 L 303.988281 95.378906 C 301.820312 96.085938 299.996094 96.773438 298.078125 98.011719 C 297.242188 99.660156 296.835938 101.207031 296.390625 103 L 295.648438 104.488281 C 293.300781 105.773438 290.953125 106.335938 288.359375 106.921875 C 288.855469 96.738281 289.765625 86.628906 290.839844 76.496094 L 291.296875 72.117188 C 291.664062 68.597656 292.035156 65.078125 292.410156 61.558594 M 511.921875 55.078125 C 519.667969 56.988281 527.109375 59.65625 534.601562 62.371094 L 533.789062 68.851562 C 532.070312 69.351562 532.070312 69.351562 529.738281 69.660156 C 527.332031 69.03125 527.332031 69.03125 524.828125 68.089844 C 521.824219 66.972656 520.03125 66.421875 516.78125 66.421875 L 515.160156 73.710938 L 518.5 74.367188 C 521.726562 75.074219 524.421875 76.128906 527.308594 77.761719 L 525.691406 85.050781 L 511.109375 81.808594 L 509.488281 89.910156 L 512.628906 90.515625 C 516.917969 91.457031 520.855469 93.039062 524.878906 94.769531 L 522.449219 102.058594 C 514.371094 100.285156 506.710938 97.609375 498.960938 94.769531 C 499.96875 89.875 501.25 85.050781 502.808594 80.296875 L 503.441406 78.332031 C 503.882812 76.972656 504.324219 75.617188 504.765625 74.257812 C 505.441406 72.179688 506.113281 70.101562 506.78125 68.019531 C 507.210938 66.695312 507.640625 65.371094 508.074219 64.046875 L 508.675781 62.167969 C 509.542969 59.53125 510.371094 57.402344 511.921875 55.078125 M 622.078125 110.160156 C 624.609375 110.644531 626.136719 111.40625 628.121094 113.03125 L 629.6875 114.296875 L 631.292969 115.628906 L 632.882812 116.917969 C 636.050781 119.5 639.191406 122.117188 642.328125 124.738281 C 641.296875 127.042969 640.34375 128.902344 638.28125 130.410156 C 636.882812 130.300781 636.882812 130.300781 635.039062 129.601562 C 632.90625 128.058594 630.867188 126.457031 628.832031 124.792969 C 627.703125 123.902344 626.515625 123.101562 625.320312 122.308594 L 622.890625 123.121094 C 621.898438 124.441406 621.898438 124.441406 621.117188 126.007812 L 619.648438 128.789062 L 621.03125 129.417969 C 623.128906 130.539062 624.875 131.867188 626.738281 133.347656 L 628.699219 134.898438 L 630.179688 136.078125 C 629.15625 138.796875 628.347656 140.644531 626.128906 142.558594 C 623.472656 141.351562 621.328125 139.816406 619.042969 138.003906 L 617.082031 136.453125 L 615.601562 135.269531 C 613.632812 136.1875 612.394531 136.851562 610.890625 138.460938 L 609.929688 140.128906 L 610.738281 142.558594 C 612.484375 144.03125 614.222656 145.40625 616.054688 146.761719 L 617.566406 147.898438 C 618.796875 148.824219 620.03125 149.742188 621.269531 150.660156 C 620.683594 153.367188 619.796875 154.988281 618.03125 157.140625 C 615.613281 156.828125 614.433594 156.078125 612.398438 154.648438 C 611.503906 153.949219 610.613281 153.242188 609.726562 152.535156 L 606.921875 150.328125 L 605.546875 149.242188 C 602.996094 147.234375 600.382812 145.308594 597.78125 143.371094 C 598.496094 139.753906 600.53125 137.484375 602.84375 134.714844 C 603.726562 133.632812 604.605469 132.550781 605.488281 131.46875 L 606.882812 129.753906 C 609.761719 126.171875 612.523438 122.503906 615.304688 118.847656 C 617.527344 115.921875 619.769531 113.015625 622.078125 110.160156 M 130.410156 186.300781 L 132.03125 193.589844 C 127.757812 196.121094 127.757812 196.121094 126.359375 196.828125 L 124.738281 196.828125 C 122.9375 200.230469 121.816406 203.507812 121.5 207.359375 C 122.085938 210.859375 123.558594 213.335938 125.652344 216.167969 C 128.234375 218.078125 130.179688 218.886719 133.316406 219.4375 C 136.746094 219.566406 139.546875 218.671875 142.558594 217.078125 C 144.691406 215.546875 144.691406 215.546875 145.800781 213.03125 C 146.347656 210.695312 146.761719 208.378906 147.101562 206.003906 L 147.421875 204.121094 L 148.230469 203.308594 C 149.699219 203.203125 149.699219 203.203125 151.46875 203.207031 L 153.242188 203.203125 L 154.710938 203.308594 L 155.519531 204.121094 C 156.015625 208.214844 155.839844 212.097656 154.355469 215.964844 C 152.183594 220.277344 148.941406 223.28125 144.988281 225.988281 C 141.144531 227.929688 137.171875 228.863281 132.863281 228.640625 C 128.746094 228.085938 125.410156 227.003906 121.960938 224.640625 C 118.863281 222.089844 116.394531 219.589844 114.613281 215.964844 C 112.902344 211.363281 112.1875 206.917969 112.890625 202.035156 C 114 197.53125 115.894531 194.261719 119.09375 190.914062 C 122.617188 187.878906 125.75 186.300781 130.410156 186.300781 M 435.578125 41.460938 C 438.355469 43.011719 439.773438 44.296875 441.449219 46.980469 L 441.449219 49.410156 C 439.605469 50.503906 438.285156 51.023438 436.136719 51.234375 C 434.160156 51.03125 434.160156 51.03125 431.730469 49.410156 C 429.300781 49.070312 429.300781 49.070312 426.871094 49.410156 C 425.347656 50.523438 425.347656 50.523438 424.441406 51.839844 C 424.941406 53.394531 424.941406 53.394531 426.058594 55.078125 C 428.226562 56.589844 428.226562 56.589844 430.769531 57.914062 C 434.898438 60.175781 438.617188 62.25 441.347656 66.167969 C 442.390625 69.230469 442.359375 71.269531 441.863281 74.429688 C 441.300781 76.757812 440.546875 78.335938 439.019531 80.191406 C 436.347656 82.015625 434.175781 83.363281 430.9375 83.621094 C 421.972656 83.804688 421.972656 83.804688 418.265625 82.0625 C 415.691406 80.523438 413.960938 78.644531 412.289062 76.140625 C 413.605469 74.570312 413.605469 74.570312 415.53125 72.898438 C 417.910156 72.140625 417.910156 72.140625 420.390625 72.089844 C 422.464844 73.203125 422.464844 73.203125 424.441406 74.519531 C 426.433594 75.257812 426.433594 75.257812 428.488281 75.328125 C 430.726562 74.878906 430.726562 74.878906 432.539062 73.710938 C 433.082031 72.0625 433.082031 72.0625 433.351562 70.46875 C 430.203125 67.597656 427.183594 65.242188 423.480469 63.128906 C 421.214844 61.796875 419.441406 60.621094 417.503906 58.828125 C 415.9375 55.96875 415.492188 53.464844 415.53125 50.21875 C 415.933594 48.09375 415.933594 48.09375 417.148438 46.171875 C 419.316406 43.9375 421.433594 41.765625 424.429688 40.777344 C 428.5 40.082031 431.679688 40.226562 435.578125 41.460938 "/><path style=" stroke:none;fill-rule:nonzero;fill:#0e2b41;fill-opacity:1;" d="M 687.640625 191.363281 C 690.242188 191.503906 692.15625 191.789062 694.53125 192.871094 C 697.320312 194.78125 698.90625 196.632812 700.699219 199.511719 C 701.644531 203.226562 701.523438 206.082031 700.648438 209.789062 C 699.6875 212.472656 699.6875 212.472656 698.21875 214.648438 C 695.800781 216.515625 693.824219 217.734375 690.929688 218.699219 C 688.265625 218.960938 686.070312 219 683.535156 218.058594 C 680.707031 216.695312 678.464844 215.382812 676.351562 213.03125 C 674.816406 210.367188 674.574219 207.949219 674.476562 204.929688 C 674.542969 202.503906 674.710938 200.933594 675.589844 198.652344 L 677.160156 196.828125 L 678.242188 195.511719 C 681.113281 192.492188 683.476562 191.578125 687.640625 191.363281 M 390.421875 49.410156 C 393.625 50.984375 396.355469 53.144531 398.59375 55.964844 C 399.875 58.648438 399.699219 61.324219 399.628906 64.246094 C 399.308594 66.570312 398.71875 68.359375 397.710938 70.46875 C 395.722656 72.84375 394.152344 74.292969 391.332031 75.582031 C 388.441406 76.21875 386.082031 76.402344 383.128906 76.140625 C 380.386719 75.097656 378.386719 73.796875 376.042969 72.039062 C 373.882812 69.222656 373.257812 67.046875 372.734375 63.574219 C 372.535156 60.554688 372.925781 58.636719 374.21875 55.890625 C 375.941406 53.785156 377.753906 51.902344 379.890625 50.21875 C 383.414062 49.042969 386.734375 49 390.421875 49.410156 "/><path style=" stroke:none;fill-rule:nonzero;fill:#fefefe;fill-opacity:1;" d="M 543.511719 67.230469 L 549.988281 68.039062 C 550.554688 69.652344 550.554688 69.652344 550.800781 72.089844 C 550.054688 74.332031 549.195312 76.53125 548.222656 78.6875 L 547.402344 80.578125 C 546.535156 82.5625 545.65625 84.539062 544.777344 86.519531 C 544.1875 87.863281 543.597656 89.210938 543.007812 90.558594 C 541.566406 93.859375 540.113281 97.152344 538.648438 100.441406 L 540.101562 100.910156 C 543.484375 102.019531 546.800781 103.148438 550.042969 104.640625 L 551.890625 105.488281 L 553.230469 106.109375 C 552.820312 109.121094 552.324219 111.566406 550.800781 114.210938 C 546.148438 112.757812 541.675781 110.917969 537.183594 109.046875 L 534.8125 108.097656 L 532.558594 107.152344 L 530.507812 106.3125 L 528.929688 105.300781 C 528.355469 103.816406 528.355469 103.816406 528.121094 102.058594 C 528.535156 100.492188 528.535156 100.492188 529.265625 98.84375 L 530.085938 96.960938 L 530.996094 94.949219 L 531.914062 92.859375 C 532.886719 90.65625 533.871094 88.460938 534.855469 86.265625 L 536.8125 81.828125 C 538.011719 79.109375 539.21875 76.398438 540.429688 73.6875 L 541.167969 72.039062 C 541.914062 70.417969 542.703125 68.820312 543.511719 67.230469 "/><path style=" stroke:none;fill-rule:nonzero;fill:#0e2b41;fill-opacity:1;" d="M 476.28125 55.078125 C 480.097656 55.390625 483.070312 56.042969 486.34375 58.082031 C 488.183594 59.589844 489.28125 61.175781 490.324219 63.304688 C 491.25 65.890625 491.234375 67.75 490.859375 70.46875 C 489.742188 73.882812 488.550781 76.855469 485.949219 79.378906 C 483.34375 80.726562 481.242188 81.109375 478.355469 81.101562 L 476.484375 81.109375 C 474.699219 81.003906 473.136719 80.683594 471.421875 80.191406 C 471.214844 75.234375 471.988281 70.667969 472.9375 65.8125 L 473.367188 63.492188 L 473.792969 61.269531 L 474.179688 59.257812 C 474.660156 57.511719 474.660156 57.511719 476.28125 55.078125 M 265.746094 83.644531 C 268.753906 84.796875 270.902344 86.660156 272.96875 89.101562 C 274.609375 91.691406 275.328125 94.195312 275.703125 97.25 C 275.320312 100.257812 274.660156 101.953125 272.96875 104.488281 C 270.964844 106.390625 268.949219 108.082031 266.488281 109.351562 C 265.140625 109.386719 263.789062 109.386719 262.441406 109.351562 C 260.945312 106.179688 259.460938 103.007812 257.984375 99.832031 L 256.695312 97.105469 L 255.480469 94.480469 L 254.347656 92.0625 C 253.53125 89.910156 253.53125 89.910156 253.53125 86.671875 C 257.570312 84.488281 261.101562 82.71875 265.746094 83.644531 M 195.714844 126.714844 C 199.035156 127.265625 201.527344 128.304688 204.121094 130.410156 C 206.410156 132.847656 207.871094 135.273438 209.03125 138.410156 C 208.96875 141.535156 208.164062 143.710938 206.804688 146.507812 C 205.167969 149.152344 203.472656 150.570312 200.878906 152.28125 L 198.449219 152.28125 C 197.050781 150.820312 197.050781 150.820312 195.515625 148.789062 C 193.691406 146.398438 191.871094 144.066406 189.898438 141.800781 C 189.226562 141.03125 188.558594 140.265625 187.867188 139.472656 L 185.96875 137.328125 L 184.679688 135.269531 C 184.675781 133.125 184.675781 133.125 185.488281 131.21875 C 188.460938 128.636719 191.859375 127.3125 195.714844 126.714844 "/><path style=" stroke:none;fill-rule:nonzero;fill:#fefefe;fill-opacity:1;" d="M 648.808594 131.21875 C 653.003906 133.253906 653.003906 133.253906 654.480469 135.269531 C 654.226562 137.136719 653.828125 138.296875 652.703125 139.816406 L 651.484375 141.078125 L 650.144531 142.496094 L 648.707031 143.976562 C 647.738281 145 646.765625 146.027344 645.792969 147.050781 L 644.386719 148.527344 C 642.972656 150.035156 641.597656 151.570312 640.253906 153.140625 C 636.214844 157.828125 631.960938 162.324219 627.75 166.859375 C 625.394531 165.933594 624.371094 165.078125 622.6875 163.113281 L 621.269531 161.191406 L 622.296875 160.101562 C 623.863281 158.441406 625.425781 156.777344 626.992188 155.113281 L 628.601562 153.40625 C 631.710938 150.101562 634.75 146.734375 637.726562 143.308594 C 639.871094 140.855469 642.085938 138.46875 644.304688 136.078125 L 645.632812 134.644531 C 646.691406 133.503906 647.75 132.363281 648.808594 131.21875 M 134.460938 171.71875 C 136.183594 171.878906 136.183594 171.878906 138.511719 172.53125 C 140.214844 173.800781 141.75 175.058594 143.320312 176.480469 C 144.25 177.292969 145.179688 178.105469 146.113281 178.914062 L 147.566406 180.179688 C 149.960938 182.226562 152.429688 184.164062 154.914062 186.097656 L 156.34375 187.214844 C 157.6875 188.261719 159.035156 189.304688 160.378906 190.351562 L 162.714844 192.167969 C 164.367188 193.453125 166.015625 194.738281 167.671875 196.019531 C 167.203125 198.253906 166.839844 199.285156 165.390625 201.132812 L 163.621094 202.5 C 162.1875 202.425781 162.1875 202.425781 160.378906 201.691406 C 158.746094 200.429688 157.160156 199.113281 155.621094 197.742188 C 151.832031 194.449219 147.988281 191.257812 144.027344 188.171875 L 142.601562 187.0625 L 139.835938 184.90625 C 136.671875 182.429688 133.542969 179.910156 130.410156 177.390625 Z M 134.460938 171.71875 "/><path style=" stroke:none;fill-rule:nonzero;fill:#0e2b41;fill-opacity:1;" d="M 592.109375 99.628906 C 594.671875 100.433594 596.355469 101.402344 598.488281 103.074219 L 600.210938 105.300781 C 600.210938 107.882812 600.210938 107.882812 599.398438 110.160156 L 596.96875 111.78125 C 595.222656 111.816406 595.222656 111.816406 593.324219 111.578125 L 591.425781 111.363281 C 589.679688 110.96875 589.679688 110.96875 587.25 109.351562 C 587.445312 107.210938 587.875 105.597656 589.015625 103.769531 C 590.019531 102.367188 591.050781 100.988281 592.109375 99.628906 M 298.890625 78.570312 C 301.441406 79.679688 302.980469 80.898438 304.761719 83.023438 L 306.039062 84.519531 L 306.988281 85.859375 L 306.988281 87.480469 L 298.078125 89.910156 C 297.980469 81.304688 297.980469 81.304688 298.890625 78.570312 M 226.800781 114.210938 C 229.644531 114.921875 231.101562 115.550781 233.484375 117.097656 L 235.214844 118.210938 L 236.519531 119.070312 L 235.710938 121.5 C 233.382812 123.273438 233.382812 123.273438 230.851562 124.738281 L 228.421875 124.738281 Z M 226.800781 114.210938 "/></g></svg>