<?xml version="1.0" encoding="UTF-8" ?>
<!DOCTYPE svg PUBLIC "-//W3C//DTD SVG 1.1//EN" "http://www.w3.org/Graphics/SVG/1.1/DTD/svg11.dtd">
<svg width="967pt" height="330pt" viewBox="0 0 967 330" version="1.1" xmlns="http://www.w3.org/2000/svg">
<g id="#ffffffff">
<path fill="#ffffff" opacity="1.00" d=" M 0.00 0.00 L 967.00 0.00 L 967.00 330.00 L 0.00 330.00 L 0.00 0.00 M 97.82 43.77 L 97.10 44.17 C 73.75 50.17 50.57 56.83 27.26 62.97 C 21.77 64.37 16.37 66.21 10.74 66.97 C 10.58 68.99 10.50 71.01 10.52 73.03 C 10.59 101.66 10.46 130.30 10.58 158.93 C 22.78 153.71 34.88 148.29 47.12 143.18 C 49.70 142.01 52.34 140.99 54.91 139.81 C 74.04 131.76 92.95 123.22 112.11 115.23 C 144.17 101.27 176.39 87.67 208.44 73.67 C 209.78 73.10 211.14 72.56 212.53 72.07 C 212.92 52.43 212.61 32.76 212.68 13.11 C 174.30 22.96 136.23 34.02 97.82 43.77 M 868.00 21.08 C 849.14 25.39 831.09 35.61 819.75 51.57 C 807.88 67.54 802.89 87.44 800.85 106.93 C 799.97 118.24 799.07 129.63 800.20 140.95 C 800.97 158.66 803.80 176.55 810.79 192.94 C 817.13 207.77 827.81 220.92 841.77 229.16 C 852.73 235.91 865.38 239.25 877.99 241.14 C 890.58 242.60 903.40 242.99 915.92 240.85 C 928.19 239.18 940.33 235.88 951.54 230.56 C 951.47 216.50 951.56 202.43 951.50 188.36 C 930.22 196.84 906.60 200.42 883.96 196.13 C 875.36 194.04 866.93 189.70 861.84 182.24 C 854.53 171.68 852.77 158.53 851.60 146.05 C 851.20 130.71 850.59 115.23 853.04 100.02 C 854.99 89.25 858.71 77.83 867.61 70.79 C 874.73 64.97 883.99 63.03 892.88 61.87 C 900.60 61.24 908.38 61.39 916.12 61.86 C 926.11 63.07 936.22 64.20 945.89 67.15 C 947.38 67.64 948.89 68.11 950.41 68.56 C 950.44 54.59 950.37 40.62 950.45 26.65 C 936.31 21.06 921.11 18.78 906.04 17.65 C 893.28 17.25 880.47 18.34 868.00 21.08 M 430.48 21.24 C 430.51 93.68 430.48 166.12 430.50 238.56 C 463.03 238.49 495.56 238.71 528.09 238.43 C 544.81 237.51 562.26 234.27 575.94 223.98 C 586.50 216.48 593.22 204.49 595.62 191.91 C 598.51 177.26 598.07 161.39 591.56 147.72 C 585.79 135.64 573.83 127.57 561.16 124.14 C 561.24 123.84 561.42 123.25 561.50 122.96 C 568.59 120.24 574.77 115.36 579.55 109.50 C 586.98 100.11 589.78 87.79 589.48 76.00 C 589.58 62.00 584.60 47.49 573.95 38.02 C 560.18 25.63 541.02 21.40 522.96 21.25 C 492.13 21.20 461.31 21.20 430.48 21.24 M 672.40 21.21 C 662.70 49.13 653.27 77.14 643.40 105.00 C 635.59 128.14 627.55 151.21 619.50 174.26 C 612.15 195.70 604.86 217.16 597.28 238.52 C 614.48 238.60 631.68 238.55 648.89 238.55 C 652.34 227.08 655.66 215.57 659.02 204.08 C 659.83 201.59 660.58 199.08 660.88 196.48 C 663.26 196.23 665.65 196.18 668.05 196.21 C 692.06 196.38 716.08 195.96 740.08 196.42 C 740.79 200.42 742.15 204.25 743.28 208.14 C 746.39 218.22 749.01 228.55 752.41 238.48 C 770.51 238.62 788.63 238.62 806.73 238.47 C 798.31 214.76 789.93 191.03 781.73 167.24 C 774.05 144.72 765.79 122.39 758.22 99.83 C 749.28 73.68 739.45 47.81 731.10 21.48 C 715.09 20.67 699.00 21.79 683.00 20.91 C 679.49 21.49 675.93 21.14 672.40 21.21 M 228.48 68.23 C 228.26 125.03 228.44 181.84 228.39 238.64 C 256.94 238.58 285.50 238.70 314.05 238.58 C 324.32 212.95 334.75 187.38 345.02 161.76 C 306.29 130.44 267.20 99.56 228.48 68.23 M 209.10 90.18 C 189.72 98.43 170.45 106.93 151.09 115.22 C 129.32 124.36 107.75 133.98 86.01 143.22 C 60.83 154.01 35.68 164.87 10.52 175.69 C 10.60 209.43 10.43 243.18 10.60 276.91 C 77.95 235.78 145.26 194.58 212.67 153.53 C 212.72 131.99 212.72 110.45 212.67 88.91 C 211.47 89.31 210.27 89.73 209.10 90.18 M 186.48 187.52 C 127.81 223.24 69.29 259.22 10.57 294.87 C 10.50 302.06 10.52 309.24 10.56 316.43 C 52.30 316.38 94.04 316.51 135.77 316.37 C 161.35 291.64 186.97 266.96 212.63 242.32 C 212.74 218.68 212.76 195.03 212.62 171.40 C 203.97 176.87 195.24 182.22 186.48 187.52 M 220.31 256.23 C 199.44 276.22 178.77 296.42 157.81 316.32 C 202.07 316.59 246.34 316.32 290.60 316.45 C 290.70 295.68 290.65 274.90 290.63 254.12 C 268.39 254.21 246.15 254.12 223.92 254.16 C 222.32 253.92 221.35 255.30 220.31 256.23 M 668.72 256.94 C 664.20 257.34 659.60 258.26 655.76 260.77 C 650.66 264.01 647.98 269.86 646.82 275.59 C 645.21 284.47 645.22 293.78 647.85 302.46 C 649.82 308.88 654.87 314.56 661.52 316.20 C 669.51 318.35 678.43 318.20 686.05 314.76 C 694.37 310.60 696.95 300.58 697.41 292.02 C 697.77 282.82 697.66 272.64 692.08 264.85 C 686.74 257.72 677.00 256.47 668.72 256.94 M 441.48 259.73 C 434.08 263.21 429.97 271.16 429.04 279.01 C 427.99 288.61 428.17 299.13 433.37 307.62 C 436.64 313.15 442.76 316.03 448.86 317.25 C 455.90 318.04 463.18 317.43 469.67 314.42 C 469.61 310.61 469.65 306.81 469.62 303.00 C 463.22 305.29 455.97 306.75 449.39 304.37 C 446.54 303.35 444.92 300.70 443.75 298.09 C 442.14 290.83 441.95 283.18 443.75 275.94 C 444.88 273.56 446.29 271.08 448.87 270.05 C 455.45 267.22 462.79 268.92 469.44 270.53 C 469.43 266.82 469.40 263.10 469.50 259.39 C 460.61 255.93 450.22 255.73 441.48 259.73 M 915.61 266.54 C 909.70 275.72 909.80 287.46 911.61 297.86 C 912.99 306.13 918.53 313.88 926.83 316.25 C 934.96 318.42 943.88 317.99 951.57 314.42 C 951.48 310.62 951.53 306.82 951.50 303.03 C 944.98 305.36 937.49 306.86 930.88 304.13 C 926.57 302.28 925.58 297.31 924.74 293.21 C 924.58 285.99 923.46 277.49 928.51 271.58 C 935.14 266.61 944.07 268.77 951.46 270.54 C 951.44 266.83 951.41 263.12 951.53 259.40 C 947.57 257.70 943.25 257.10 939.00 256.77 C 930.36 256.56 920.66 258.91 915.61 266.54 M 481.81 257.76 C 481.80 277.31 481.69 296.87 481.87 316.43 C 486.34 316.42 490.82 316.45 495.30 316.38 C 495.34 309.09 495.25 301.79 495.36 294.50 C 497.96 294.52 500.57 294.52 503.19 294.50 C 506.78 301.78 509.99 309.24 513.68 316.47 C 518.76 316.37 523.84 316.46 528.93 316.41 C 524.49 308.22 519.86 300.13 515.41 291.94 C 523.84 289.52 526.42 279.24 524.75 271.56 C 524.10 265.25 518.96 260.14 512.83 258.93 C 502.64 256.75 492.14 258.12 481.81 257.76 M 538.30 316.45 C 551.48 316.43 564.66 316.38 577.84 316.48 C 578.33 312.63 578.31 308.75 578.35 304.88 C 569.37 304.87 560.38 304.80 551.41 304.93 C 551.39 300.48 551.36 296.02 551.45 291.57 C 558.62 291.62 565.79 291.55 572.97 291.61 C 573.30 288.17 573.18 284.72 573.19 281.27 C 565.95 281.08 558.71 281.22 551.46 281.19 C 551.36 277.30 551.38 273.40 551.44 269.51 C 559.94 269.55 568.44 269.51 576.95 269.53 C 576.96 265.60 576.87 261.66 576.79 257.73 C 563.96 257.74 551.13 257.77 538.31 257.72 C 538.21 277.30 538.23 296.87 538.30 316.45 M 589.38 316.45 C 597.57 316.38 605.76 316.47 613.96 316.41 C 619.13 316.09 624.56 315.06 628.71 311.74 C 634.23 307.65 636.47 300.65 637.29 294.10 C 637.74 287.34 637.80 280.46 636.25 273.82 C 634.85 269.66 632.94 265.40 629.29 262.74 C 624.41 258.91 618.00 258.07 612.00 257.75 C 604.46 257.71 596.92 257.78 589.38 257.73 C 589.32 277.30 589.32 296.88 589.38 316.45 M 707.35 257.73 C 707.30 277.30 707.30 296.88 707.35 316.45 C 711.14 316.41 714.94 316.41 718.74 316.45 C 718.88 304.43 718.73 292.40 718.81 280.37 C 723.33 292.44 728.48 304.27 732.88 316.38 C 735.88 316.44 738.89 316.44 741.91 316.38 C 746.08 305.52 750.60 294.80 754.79 283.95 C 755.43 282.84 755.82 281.61 756.22 280.40 C 756.32 292.41 756.18 304.43 756.28 316.44 C 760.22 316.42 764.16 316.43 768.10 316.42 C 768.21 296.87 768.15 277.31 768.13 257.76 C 763.33 257.72 758.52 257.78 753.72 257.71 C 748.50 270.67 742.91 283.51 738.21 296.66 C 737.87 296.65 737.19 296.62 736.85 296.61 C 736.16 293.97 735.19 291.42 734.20 288.88 C 729.95 278.51 726.11 267.95 721.61 257.68 C 716.85 257.79 712.10 257.74 707.35 257.73 M 796.58 257.71 C 789.58 277.19 782.83 296.77 776.35 316.43 C 780.95 316.43 785.55 316.41 790.16 316.44 C 791.37 312.79 792.15 309.02 793.40 305.39 C 800.28 304.60 807.40 305.62 814.35 304.89 C 815.80 308.66 816.63 312.63 817.97 316.45 C 822.83 316.40 827.70 316.44 832.56 316.42 C 826.10 296.75 818.98 277.29 812.12 257.75 C 806.94 257.73 801.76 257.78 796.58 257.71 M 831.29 257.74 C 831.21 261.71 831.17 265.68 831.13 269.66 C 836.24 269.66 841.37 269.67 846.49 269.64 C 846.64 285.24 846.49 300.84 846.57 316.43 C 850.93 316.42 855.29 316.41 859.65 316.46 C 859.80 301.21 859.60 285.96 859.75 270.71 C 859.96 270.45 860.38 269.94 860.59 269.68 C 865.60 269.55 870.61 269.73 875.63 269.65 C 875.55 265.71 875.49 261.77 875.40 257.84 C 860.70 257.62 845.99 257.81 831.29 257.74 M 885.55 316.43 C 890.13 316.42 894.73 316.45 899.32 316.39 C 899.41 297.00 899.20 277.61 899.43 258.23 C 894.87 257.21 890.16 257.98 885.55 257.74 C 885.50 277.30 885.49 296.87 885.55 316.43 Z" />
<path fill="#ffffff" opacity="1.00" d=" M 673.15 155.21 C 682.72 122.75 692.35 90.30 701.13 57.61 C 702.96 61.88 703.62 66.52 704.93 70.96 C 711.89 99.23 720.75 127.01 728.00 155.20 C 709.72 155.23 691.43 155.21 673.15 155.21 Z" />
<path fill="#ffffff" opacity="1.00" d=" M 477.40 62.36 C 491.61 62.38 505.82 62.28 520.03 62.42 C 526.85 62.58 534.57 64.17 538.90 69.96 C 543.31 76.05 542.85 83.91 542.55 91.04 C 542.06 96.21 540.09 101.56 535.94 104.90 C 531.15 108.52 524.95 109.61 519.08 109.58 C 505.19 109.57 491.31 109.56 477.43 109.58 C 477.37 93.84 477.43 78.10 477.40 62.36 Z" />
<path fill="#ffffff" opacity="1.00" d=" M 477.48 145.61 C 492.25 145.67 507.01 145.60 521.78 145.64 C 528.81 146.22 536.54 146.96 541.96 152.02 C 547.49 157.37 548.41 165.63 548.39 172.93 C 547.98 179.63 547.10 187.11 542.10 192.08 C 536.90 197.38 528.99 198.34 521.93 198.49 C 507.09 198.59 492.25 198.51 477.41 198.53 C 477.46 180.89 477.31 163.25 477.48 145.61 Z" />
<path fill="#ffffff" opacity="1.00" d=" M 495.43 268.66 C 500.26 269.10 506.17 267.35 510.07 271.05 C 512.31 275.16 512.30 282.31 507.26 284.30 C 503.32 285.00 499.29 284.55 495.32 284.68 C 495.33 279.34 495.20 274.00 495.43 268.66 Z" />
<path fill="#ffffff" opacity="1.00" d=" M 668.89 268.82 C 672.62 268.26 676.82 268.70 679.93 271.00 C 683.23 274.39 683.60 279.52 683.65 284.00 C 683.60 290.01 684.26 296.54 681.07 301.93 C 678.21 306.13 672.44 305.97 667.96 305.34 C 664.59 304.86 662.03 302.13 661.08 298.97 C 659.21 291.34 659.35 283.31 660.94 275.63 C 661.88 271.98 665.10 269.17 668.89 268.82 Z" />
<path fill="#ffffff" opacity="1.00" d=" M 602.61 269.57 C 608.22 269.90 614.49 268.50 619.50 271.72 C 623.92 275.81 623.51 282.51 623.62 288.04 C 623.44 293.44 623.40 300.38 618.12 303.46 C 613.24 305.50 607.73 304.36 602.58 304.68 C 602.59 292.97 602.53 281.27 602.61 269.57 Z" />
<path fill="#ffffff" opacity="1.00" d=" M 803.69 269.88 C 805.21 270.64 805.93 272.03 805.85 274.05 C 806.62 276.40 807.24 278.80 807.78 281.22 C 809.16 285.32 809.99 289.58 811.46 293.65 C 806.57 293.81 801.68 293.73 796.80 293.70 C 799.21 285.80 801.53 277.86 803.69 269.88 Z" />
</g>
<g id="#e4002bff">
<path fill="#e4002b" opacity="1.00" d=" M 97.82 43.77 C 136.23 34.02 174.30 22.96 212.68 13.11 C 212.61 32.76 212.92 52.43 212.53 72.07 C 211.14 72.56 209.78 73.10 208.44 73.67 C 176.39 87.67 144.17 101.27 112.11 115.23 C 92.95 123.22 74.04 131.76 54.91 139.81 C 52.34 140.99 49.70 142.01 47.12 143.18 C 34.88 148.29 22.78 153.71 10.58 158.93 C 10.46 130.30 10.59 101.66 10.52 73.03 C 10.50 71.01 10.58 68.99 10.74 66.97 C 16.37 66.21 21.77 64.37 27.26 62.97 C 50.57 56.83 73.75 50.17 97.10 44.17 L 97.82 43.77 Z" />
<path fill="#e4002b" opacity="1.00" d=" M 868.00 21.08 C 880.47 18.34 893.28 17.25 906.04 17.65 C 921.11 18.78 936.31 21.06 950.45 26.65 C 950.37 40.62 950.44 54.59 950.41 68.56 C 948.89 68.11 947.38 67.64 945.89 67.15 C 936.22 64.20 926.11 63.07 916.12 61.86 C 908.38 61.39 900.60 61.24 892.88 61.87 C 883.99 63.03 874.73 64.97 867.61 70.79 C 858.71 77.83 854.99 89.25 853.04 100.02 C 850.59 115.23 851.20 130.71 851.60 146.05 C 852.77 158.53 854.53 171.68 861.84 182.24 C 866.93 189.70 875.36 194.04 883.96 196.13 C 906.60 200.42 930.22 196.84 951.50 188.36 C 951.56 202.43 951.47 216.50 951.54 230.56 C 940.33 235.88 928.19 239.18 915.92 240.85 C 903.40 242.99 890.58 242.60 877.99 241.14 C 865.38 239.25 852.73 235.91 841.77 229.16 C 827.81 220.92 817.13 207.77 810.79 192.94 C 803.80 176.55 800.97 158.66 800.20 140.95 C 799.07 129.63 799.97 118.24 800.85 106.93 C 802.89 87.44 807.88 67.54 819.75 51.57 C 831.09 35.61 849.14 25.39 868.00 21.08 Z" />
<path fill="#e4002b" opacity="1.00" d=" M 430.48 21.24 C 461.31 21.20 492.13 21.20 522.96 21.25 C 541.02 21.40 560.18 25.63 573.95 38.02 C 584.60 47.49 589.58 62.00 589.48 76.00 C 589.78 87.79 586.98 100.11 579.55 109.50 C 574.77 115.36 568.59 120.24 561.50 122.96 C 561.42 123.25 561.24 123.84 561.16 124.14 C 573.83 127.57 585.79 135.64 591.56 147.72 C 598.07 161.39 598.51 177.26 595.62 191.91 C 593.22 204.49 586.50 216.48 575.94 223.98 C 562.26 234.27 544.81 237.51 528.09 238.43 C 495.56 238.71 463.03 238.49 430.50 238.56 C 430.48 166.12 430.51 93.68 430.48 21.24 M 477.40 62.36 C 477.43 78.10 477.37 93.84 477.43 109.58 C 491.31 109.56 505.19 109.57 519.08 109.58 C 524.95 109.61 531.15 108.52 535.94 104.90 C 540.09 101.56 542.06 96.21 542.55 91.04 C 542.85 83.91 543.31 76.05 538.90 69.96 C 534.57 64.17 526.85 62.58 520.03 62.42 C 505.82 62.28 491.61 62.38 477.40 62.36 M 477.48 145.61 C 477.31 163.25 477.46 180.89 477.41 198.53 C 492.25 198.51 507.09 198.59 521.93 198.49 C 528.99 198.34 536.90 197.38 542.10 192.08 C 547.10 187.11 547.98 179.63 548.39 172.93 C 548.41 165.63 547.49 157.37 541.96 152.02 C 536.54 146.96 528.81 146.22 521.78 145.64 C 507.01 145.60 492.25 145.67 477.48 145.61 Z" />
<path fill="#e4002b" opacity="1.00" d=" M 672.40 21.21 C 675.93 21.14 679.49 21.49 683.00 20.91 C 699.00 21.79 715.09 20.67 731.10 21.48 C 739.45 47.81 749.28 73.68 758.22 99.83 C 765.79 122.39 774.05 144.72 781.73 167.24 C 789.93 191.03 798.31 214.76 806.73 238.47 C 788.63 238.62 770.51 238.62 752.41 238.48 C 749.01 228.55 746.39 218.22 743.28 208.14 C 742.15 204.25 740.79 200.42 740.08 196.42 C 716.08 195.96 692.06 196.38 668.05 196.21 C 665.65 196.18 663.26 196.23 660.88 196.48 C 660.58 199.08 659.83 201.59 659.02 204.08 C 655.66 215.57 652.34 227.08 648.89 238.55 C 631.68 238.55 614.48 238.60 597.28 238.52 C 604.86 217.16 612.15 195.70 619.50 174.26 C 627.55 151.21 635.59 128.14 643.40 105.00 C 653.27 77.14 662.70 49.13 672.40 21.21 M 673.15 155.21 C 691.43 155.21 709.72 155.23 728.00 155.20 C 720.75 127.01 711.89 99.23 704.93 70.96 C 703.62 66.52 702.96 61.88 701.13 57.61 C 692.35 90.30 682.72 122.75 673.15 155.21 Z" />
<path fill="#e4002b" opacity="1.00" d=" M 228.48 68.23 C 267.20 99.56 306.29 130.44 345.02 161.76 C 334.75 187.38 324.32 212.95 314.05 238.58 C 285.50 238.70 256.94 238.58 228.39 238.64 C 228.44 181.84 228.26 125.03 228.48 68.23 Z" />
<path fill="#e4002b" opacity="1.00" d=" M 209.10 90.18 C 210.27 89.73 211.47 89.31 212.67 88.91 C 212.72 110.45 212.72 131.99 212.67 153.53 C 145.26 194.58 77.95 235.78 10.60 276.91 C 10.43 243.18 10.60 209.43 10.52 175.69 C 35.68 164.87 60.83 154.01 86.01 143.22 C 107.75 133.98 129.32 124.36 151.09 115.22 C 170.45 106.93 189.72 98.43 209.10 90.18 Z" />
<path fill="#e4002b" opacity="1.00" d=" M 186.48 187.52 C 195.24 182.22 203.97 176.87 212.62 171.40 C 212.76 195.03 212.74 218.68 212.63 242.32 C 186.97 266.96 161.35 291.64 135.77 316.37 C 94.04 316.51 52.30 316.38 10.56 316.43 C 10.52 309.24 10.50 302.06 10.57 294.87 C 69.29 259.22 127.81 223.24 186.48 187.52 Z" />
<path fill="#e4002b" opacity="1.00" d=" M 220.31 256.23 C 221.35 255.30 222.32 253.92 223.92 254.16 C 246.15 254.12 268.39 254.21 290.63 254.12 C 290.65 274.90 290.70 295.68 290.60 316.45 C 246.34 316.32 202.07 316.59 157.81 316.32 C 178.77 296.42 199.44 276.22 220.31 256.23 Z" />
<path fill="#e4002b" opacity="1.00" d=" M 668.72 256.94 C 677.00 256.47 686.74 257.72 692.08 264.85 C 697.66 272.64 697.77 282.82 697.41 292.02 C 696.95 300.58 694.37 310.60 686.05 314.76 C 678.43 318.20 669.51 318.35 661.52 316.20 C 654.87 314.56 649.82 308.88 647.85 302.46 C 645.22 293.78 645.21 284.47 646.82 275.59 C 647.98 269.86 650.66 264.01 655.76 260.77 C 659.60 258.26 664.20 257.34 668.72 256.94 M 668.89 268.82 C 665.10 269.17 661.88 271.98 660.94 275.63 C 659.35 283.31 659.21 291.34 661.08 298.97 C 662.03 302.13 664.59 304.86 667.96 305.34 C 672.44 305.97 678.21 306.13 681.07 301.93 C 684.26 296.54 683.60 290.01 683.65 284.00 C 683.60 279.52 683.23 274.39 679.93 271.00 C 676.82 268.70 672.62 268.26 668.89 268.82 Z" />
<path fill="#e4002b" opacity="1.00" d=" M 441.48 259.73 C 450.22 255.73 460.61 255.93 469.50 259.39 C 469.40 263.10 469.43 266.82 469.44 270.53 C 462.79 268.92 455.45 267.22 448.87 270.05 C 446.29 271.08 444.88 273.56 443.75 275.94 C 441.95 283.18 442.14 290.83 443.75 298.09 C 444.92 300.70 446.54 303.35 449.39 304.37 C 455.97 306.75 463.22 305.29 469.62 303.00 C 469.65 306.81 469.61 310.61 469.67 314.42 C 463.18 317.43 455.90 318.04 448.86 317.25 C 442.76 316.03 436.64 313.15 433.37 307.62 C 428.17 299.13 427.99 288.61 429.04 279.01 C 429.97 271.16 434.08 263.21 441.48 259.73 Z" />
<path fill="#e4002b" opacity="1.00" d=" M 915.61 266.54 C 920.66 258.91 930.36 256.56 939.00 256.77 C 943.25 257.10 947.57 257.70 951.53 259.40 C 951.41 263.12 951.44 266.83 951.46 270.54 C 944.07 268.77 935.14 266.61 928.51 271.58 C 923.46 277.49 924.58 285.99 924.74 293.21 C 925.58 297.31 926.57 302.28 930.88 304.13 C 937.49 306.86 944.98 305.36 951.50 303.03 C 951.53 306.82 951.48 310.62 951.57 314.42 C 943.88 317.99 934.96 318.42 926.83 316.25 C 918.53 313.88 912.99 306.13 911.61 297.86 C 909.80 287.46 909.70 275.72 915.61 266.54 Z" />
<path fill="#e4002b" opacity="1.00" d=" M 481.81 257.76 C 492.14 258.12 502.64 256.75 512.83 258.93 C 518.96 260.14 524.10 265.25 524.75 271.56 C 526.42 279.24 523.84 289.52 515.41 291.94 C 519.86 300.13 524.49 308.22 528.93 316.41 C 523.84 316.46 518.76 316.37 513.68 316.47 C 509.99 309.24 506.78 301.78 503.19 294.50 C 500.57 294.52 497.96 294.52 495.36 294.50 C 495.25 301.79 495.34 309.09 495.30 316.38 C 490.82 316.45 486.34 316.42 481.87 316.43 C 481.69 296.87 481.80 277.31 481.81 257.76 M 495.43 268.66 C 495.20 274.00 495.33 279.34 495.32 284.68 C 499.29 284.55 503.32 285.00 507.26 284.30 C 512.30 282.31 512.31 275.16 510.07 271.05 C 506.17 267.35 500.26 269.10 495.43 268.66 Z" />
<path fill="#e4002b" opacity="1.00" d=" M 538.30 316.45 C 538.23 296.87 538.21 277.30 538.31 257.72 C 551.13 257.77 563.96 257.74 576.79 257.73 C 576.87 261.66 576.96 265.60 576.95 269.53 C 568.44 269.51 559.94 269.55 551.44 269.51 C 551.38 273.40 551.36 277.30 551.46 281.19 C 558.71 281.22 565.95 281.08 573.19 281.27 C 573.18 284.72 573.30 288.17 572.97 291.61 C 565.79 291.55 558.62 291.62 551.45 291.57 C 551.36 296.02 551.39 300.48 551.41 304.93 C 560.38 304.80 569.37 304.87 578.35 304.88 C 578.31 308.75 578.33 312.63 577.84 316.48 C 564.66 316.38 551.48 316.43 538.30 316.45 Z" />
<path fill="#e4002b" opacity="1.00" d=" M 589.38 316.45 C 589.32 296.88 589.32 277.30 589.38 257.73 C 596.92 257.78 604.46 257.71 612.00 257.75 C 618.00 258.07 624.41 258.91 629.29 262.74 C 632.94 265.40 634.85 269.66 636.25 273.82 C 637.80 280.46 637.74 287.34 637.29 294.10 C 636.47 300.65 634.23 307.65 628.71 311.74 C 624.56 315.06 619.13 316.09 613.96 316.41 C 605.76 316.47 597.57 316.38 589.38 316.45 M 602.61 269.57 C 602.53 281.27 602.59 292.97 602.58 304.68 C 607.73 304.36 613.24 305.50 618.12 303.46 C 623.40 300.38 623.44 293.44 623.62 288.04 C 623.51 282.51 623.92 275.81 619.50 271.72 C 614.49 268.50 608.22 269.90 602.61 269.57 Z" />
<path fill="#e4002b" opacity="1.00" d=" M 707.35 257.73 C 712.10 257.74 716.85 257.79 721.61 257.68 C 726.11 267.95 729.95 278.51 734.20 288.88 C 735.19 291.42 736.16 293.97 736.85 296.61 C 737.19 296.62 737.87 296.65 738.21 296.66 C 742.91 283.51 748.50 270.67 753.72 257.71 C 758.52 257.78 763.33 257.72 768.13 257.76 C 768.15 277.31 768.21 296.87 768.10 316.42 C 764.16 316.43 760.22 316.42 756.28 316.44 C 756.18 304.43 756.32 292.41 756.22 280.40 C 755.82 281.61 755.43 282.84 754.79 283.95 C 750.60 294.80 746.08 305.52 741.91 316.38 C 738.89 316.44 735.88 316.44 732.88 316.38 C 728.48 304.27 723.33 292.44 718.81 280.37 C 718.73 292.40 718.88 304.43 718.74 316.45 C 714.94 316.41 711.14 316.41 707.35 316.45 C 707.30 296.88 707.30 277.30 707.35 257.73 Z" />
<path fill="#e4002b" opacity="1.00" d=" M 796.58 257.71 C 801.76 257.78 806.94 257.73 812.12 257.75 C 818.98 277.29 826.10 296.75 832.56 316.42 C 827.70 316.44 822.83 316.40 817.97 316.45 C 816.63 312.63 815.80 308.66 814.35 304.89 C 807.40 305.62 800.28 304.60 793.40 305.39 C 792.15 309.02 791.37 312.79 790.16 316.44 C 785.55 316.41 780.95 316.43 776.35 316.43 C 782.83 296.77 789.58 277.19 796.58 257.71 M 803.69 269.88 C 801.53 277.86 799.21 285.80 796.80 293.70 C 801.68 293.73 806.57 293.81 811.46 293.65 C 809.99 289.58 809.16 285.32 807.78 281.22 C 807.24 278.80 806.62 276.40 805.85 274.05 C 805.93 272.03 805.21 270.64 803.69 269.88 Z" />
<path fill="#e4002b" opacity="1.00" d=" M 831.29 257.74 C 845.99 257.81 860.70 257.62 875.40 257.84 C 875.49 261.77 875.55 265.71 875.63 269.65 C 870.61 269.73 865.60 269.55 860.59 269.68 C 860.38 269.94 859.96 270.45 859.75 270.71 C 859.60 285.96 859.80 301.21 859.65 316.46 C 855.29 316.41 850.93 316.42 846.57 316.43 C 846.49 300.84 846.64 285.24 846.49 269.64 C 841.37 269.67 836.24 269.66 831.13 269.66 C 831.17 265.68 831.21 261.71 831.29 257.74 Z" />
<path fill="#e4002b" opacity="1.00" d=" M 885.55 316.43 C 885.49 296.87 885.50 277.30 885.55 257.74 C 890.16 257.98 894.87 257.21 899.43 258.23 C 899.20 277.61 899.41 297.00 899.32 316.39 C 894.73 316.45 890.13 316.42 885.55 316.43 Z" />
</g>
</svg>
