<?xml version="1.0" encoding="UTF-8" ?>
<!DOCTYPE svg PUBLIC "-//W3C//DTD SVG 1.1//EN" "http://www.w3.org/Graphics/SVG/1.1/DTD/svg11.dtd">
<svg width="1555pt" height="500pt" viewBox="0 0 1555 500" version="1.1" xmlns="http://www.w3.org/2000/svg">
<g id="#ffffffff">
<path fill="#ffffff" opacity="1.00" d=" M 228.98 1.08 C 266.24 -2.10 304.16 3.31 339.11 16.58 C 374.75 30.09 407.09 52.07 433.03 79.97 C 466.37 115.76 488.80 161.52 496.56 209.82 C 504.09 255.22 498.48 302.60 481.05 345.16 C 467.29 378.63 446.06 408.98 419.49 433.55 C 393.27 457.73 361.89 476.38 327.93 487.37 C 280.39 502.99 228.14 503.97 180.12 489.79 C 126.43 474.47 78.50 440.14 46.28 394.58 C 24.96 364.77 10.53 330.14 4.13 294.06 C -3.96 249.89 0.49 203.61 16.30 161.61 C 33.41 116.18 64.19 76.05 103.54 47.64 C 140.05 20.99 183.98 4.88 228.98 1.08 M 190.93 11.07 C 146.02 22.05 104.49 46.20 72.52 79.58 C 41.80 111.42 19.95 151.73 10.13 194.87 C 1.60 232.31 1.93 271.73 11.05 309.03 C 19.97 345.45 37.51 379.68 61.63 408.37 C 61.67 373.57 61.55 338.76 61.68 303.96 C 62.77 303.40 63.85 302.84 64.94 302.28 C 65.02 303.14 65.18 304.86 65.26 305.72 C 67.05 304.76 67.10 302.84 67.20 301.06 C 68.21 300.50 69.23 299.96 70.24 299.41 C 70.33 300.59 70.43 301.77 70.54 302.96 C 72.15 301.90 72.27 300.06 72.66 298.36 C 73.56 297.65 74.59 297.13 75.58 296.55 C 75.64 297.44 75.77 299.22 75.84 300.12 C 77.67 299.22 77.79 297.38 77.80 295.59 C 78.84 294.96 79.88 294.35 80.92 293.75 C 81.17 336.83 80.97 379.92 81.00 423.01 C 81.18 425.48 80.32 428.32 82.16 430.39 C 82.49 391.91 82.21 353.42 82.30 314.94 C 82.41 307.97 82.03 301.00 82.50 294.04 C 85.21 294.63 87.84 295.80 87.31 299.07 C 88.14 299.39 88.96 299.71 89.79 300.03 C 89.80 299.22 89.83 297.60 89.85 296.79 C 91.34 297.34 92.93 297.72 94.28 298.60 C 94.53 300.62 94.94 302.50 97.32 302.88 C 97.31 302.01 97.30 300.25 97.29 299.38 C 98.86 300.01 100.43 300.64 102.00 301.28 C 102.08 302.38 102.17 303.48 102.26 304.58 C 103.09 304.88 103.92 305.18 104.75 305.49 C 104.81 304.68 104.94 303.07 105.01 302.27 C 106.79 303.07 110.15 303.24 109.62 306.00 C 109.65 354.72 109.62 403.44 109.62 452.17 C 115.42 456.10 121.34 459.82 127.36 463.40 C 127.35 403.91 127.37 344.43 127.36 284.95 C 127.40 282.55 127.18 280.12 127.55 277.75 C 129.50 275.91 132.37 275.57 134.84 274.75 C 134.92 276.40 134.99 278.05 135.05 279.71 C 136.43 279.19 137.81 278.68 139.19 278.17 C 139.27 276.56 139.12 274.92 139.52 273.36 C 141.51 271.66 144.24 271.19 146.68 270.39 C 146.81 272.04 146.89 273.69 146.96 275.35 C 148.33 274.84 149.71 274.34 151.09 273.84 C 151.34 272.15 150.75 270.13 151.74 268.67 C 153.80 267.28 156.29 266.74 158.66 266.12 C 158.72 267.75 158.77 269.38 158.80 271.02 C 160.16 270.54 161.53 270.06 162.90 269.59 C 163.05 267.87 162.81 266.07 163.43 264.44 C 165.55 263.01 168.09 262.43 170.53 261.79 C 170.87 335.46 170.43 409.14 170.77 482.80 L 172.54 484.01 C 172.90 409.79 172.46 335.56 172.76 261.34 C 174.43 262.17 176.26 262.79 177.71 264.02 C 178.42 265.65 177.99 267.50 178.11 269.22 C 179.10 269.75 180.10 270.28 181.09 270.81 C 181.11 269.12 181.15 267.42 181.19 265.74 C 182.95 266.63 184.97 267.28 186.32 268.80 C 186.64 270.39 186.50 272.02 186.55 273.63 C 187.53 274.16 188.51 274.69 189.49 275.23 C 189.53 273.56 189.59 271.89 189.67 270.22 C 191.38 271.03 193.22 271.72 194.67 272.99 C 195.12 274.64 194.94 276.38 195.01 278.07 C 195.99 278.60 196.98 279.13 197.96 279.67 C 197.98 277.99 198.01 276.32 198.05 274.65 C 199.92 275.76 203.52 276.16 203.37 278.99 C 203.42 349.34 203.37 419.69 203.38 490.04 C 203.22 491.37 203.88 492.14 205.38 492.36 C 205.49 411.89 205.34 331.41 205.40 250.94 C 205.46 249.68 205.26 248.31 206.04 247.23 C 210.68 246.92 215.36 247.01 220.01 247.16 C 220.24 247.36 220.70 247.75 220.93 247.94 C 221.25 251.84 221.01 255.76 221.09 259.67 C 224.03 259.66 226.97 259.66 229.92 259.67 C 229.99 255.75 229.76 251.82 230.07 247.90 C 230.31 247.72 230.79 247.35 231.03 247.16 C 235.68 247.02 240.36 246.91 245.00 247.25 C 246.27 251.18 245.28 255.56 245.59 259.66 C 248.54 259.67 251.48 259.67 254.43 259.66 C 254.51 255.50 254.17 251.31 254.76 247.17 C 259.51 247.05 264.28 246.95 269.03 247.16 C 269.26 247.38 269.72 247.82 269.96 248.04 C 270.26 251.90 270.02 255.79 270.10 259.67 C 273.04 259.66 275.98 259.66 278.93 259.67 C 279.01 255.78 278.76 251.88 279.09 248.01 C 279.30 247.80 279.71 247.37 279.92 247.16 C 284.59 247.03 289.29 246.90 293.95 247.24 C 294.47 248.06 294.70 248.95 294.62 249.94 C 294.65 330.74 294.54 411.55 294.65 492.36 C 295.12 492.14 296.08 491.71 296.55 491.50 C 296.84 420.01 296.39 348.50 296.77 277.01 C 298.45 275.97 300.20 275.07 302.02 274.31 C 302.03 275.97 302.05 277.64 302.06 279.31 C 303.05 278.79 304.03 278.27 305.02 277.76 C 305.04 276.14 304.99 274.52 305.19 272.91 C 306.56 271.36 308.62 270.73 310.42 269.82 C 310.45 271.50 310.48 273.19 310.51 274.89 C 311.24 274.50 312.71 273.72 313.45 273.34 C 313.51 271.60 313.37 269.84 313.81 268.15 C 315.33 266.97 317.10 266.21 318.83 265.39 C 318.89 267.08 318.93 268.76 318.97 270.45 C 319.95 269.92 320.93 269.40 321.92 268.88 C 322.10 267.10 321.54 265.05 322.54 263.48 C 323.98 262.44 325.63 261.76 327.22 260.98 C 327.61 335.32 327.09 409.67 327.48 484.00 L 329.25 482.81 C 329.61 409.03 329.18 335.24 329.52 261.46 C 331.92 262.22 334.65 262.58 336.66 264.23 C 337.26 265.80 336.95 267.54 337.08 269.19 C 338.47 269.69 339.85 270.20 341.25 270.72 C 341.29 269.07 341.36 267.42 341.44 265.77 C 343.87 266.43 346.40 267.03 348.53 268.45 C 349.16 270.05 348.86 271.85 349.01 273.54 C 350.38 274.03 351.76 274.54 353.13 275.04 C 353.20 273.39 353.29 271.74 353.42 270.09 C 355.79 270.80 358.25 271.43 360.39 272.74 C 361.07 274.35 360.75 276.15 360.88 277.86 C 362.25 278.36 363.63 278.86 365.01 279.37 C 365.31 277.84 364.70 275.91 365.67 274.61 C 368.03 275.16 370.74 275.73 372.51 277.46 C 372.81 279.96 372.62 282.48 372.67 284.99 C 372.66 344.48 372.65 403.96 372.67 463.45 C 378.60 459.84 384.60 456.31 390.20 452.19 C 390.21 403.44 390.19 354.69 390.23 305.95 C 389.68 303.17 393.10 303.08 394.87 302.27 C 394.93 303.07 395.05 304.67 395.10 305.47 C 395.71 305.26 396.92 304.83 397.52 304.62 C 397.63 303.50 397.79 302.40 398.00 301.30 C 399.38 300.49 400.94 300.07 402.44 299.53 C 402.50 300.39 402.61 302.10 402.67 302.96 C 403.22 302.63 404.31 301.97 404.86 301.64 C 404.64 298.41 407.36 297.40 410.00 296.80 C 410.03 297.62 410.09 299.25 410.11 300.07 C 410.94 299.71 411.77 299.35 412.61 299.00 C 412.69 298.23 412.86 296.69 412.95 295.92 C 414.32 295.03 415.93 294.61 417.47 294.08 C 417.80 339.58 417.26 385.10 417.71 430.60 C 417.98 429.96 418.53 428.67 418.81 428.03 C 418.91 383.28 418.78 338.54 418.85 293.80 C 419.93 294.38 421.01 294.98 422.08 295.60 C 422.05 297.41 422.18 299.24 424.07 300.08 C 424.12 299.20 424.22 297.45 424.27 296.57 C 426.55 297.45 428.26 298.96 427.73 301.68 C 428.29 302.01 428.87 302.35 429.44 302.68 C 429.48 301.85 429.55 300.17 429.59 299.34 C 431.93 300.18 433.51 301.74 433.03 304.41 C 433.61 304.78 434.20 305.15 434.79 305.53 C 434.81 304.71 434.85 303.06 434.87 302.23 C 435.95 302.81 437.04 303.39 438.13 303.98 C 438.33 338.84 438.16 373.71 438.22 408.57 C 470.12 370.80 490.32 323.25 494.93 274.00 C 499.69 225.87 489.91 176.38 466.92 133.81 C 437.09 77.61 384.53 33.99 323.73 15.18 C 280.95 1.70 234.47 0.33 190.93 11.07 M 240.12 318.84 C 239.99 324.97 240.04 331.10 240.17 337.23 C 246.72 337.50 253.29 337.51 259.84 337.23 C 259.98 331.11 260.03 324.99 259.90 318.89 C 259.70 313.82 255.01 309.61 249.99 309.71 C 244.98 309.59 240.35 313.83 240.12 318.84 M 91.53 344.38 C 90.70 347.73 90.98 351.35 91.32 354.77 C 94.28 356.07 97.54 356.46 100.69 357.04 C 100.73 353.54 101.13 349.96 100.40 346.51 C 99.39 342.94 93.64 340.50 91.53 344.38 M 399.28 347.06 C 398.80 350.38 399.10 353.76 399.21 357.10 C 402.39 356.52 405.54 355.81 408.64 354.88 C 408.66 351.41 409.14 347.85 408.40 344.44 C 406.06 340.25 400.06 343.18 399.28 347.06 M 142.65 362.51 C 141.66 367.02 142.22 371.73 142.35 376.32 C 146.46 375.29 151.10 375.23 154.77 373.06 C 154.78 368.58 155.54 363.86 154.30 359.52 C 151.36 354.61 143.95 357.83 142.65 362.51 M 344.63 362.10 C 344.57 365.73 344.49 369.38 344.76 373.01 C 348.46 375.10 353.06 375.21 357.18 376.20 C 357.32 372.13 357.55 368.05 357.23 364.00 C 356.71 359.81 352.34 356.11 348.06 357.21 C 345.91 357.71 344.49 359.93 344.63 362.10 M 240.07 427.01 C 240.02 432.80 240.06 438.59 240.12 444.38 C 246.68 444.85 253.32 444.84 259.89 444.39 C 259.92 438.20 260.08 432.00 259.87 425.81 C 259.48 420.10 253.38 415.80 247.85 417.21 C 243.36 418.08 239.92 422.44 240.07 427.01 Z" />
<path fill="#ffffff" opacity="1.00" d=" M 235.28 53.12 C 233.34 42.11 235.45 29.58 243.25 21.17 C 242.40 24.70 241.45 28.33 241.93 32.00 C 242.95 41.20 245.50 50.23 249.54 58.56 C 256.87 73.70 266.32 87.76 272.81 103.32 C 277.64 114.85 279.66 128.01 276.12 140.20 C 273.52 149.01 267.28 157.34 258.28 160.23 C 253.47 161.88 248.28 161.20 243.54 159.67 C 245.86 157.52 249.02 155.50 249.25 152.03 C 249.45 147.67 246.59 144.05 244.31 140.60 C 237.40 131.00 231.28 120.88 225.02 110.85 C 222.38 106.46 219.62 102.08 217.85 97.25 C 214.77 88.04 215.38 77.86 218.83 68.84 C 221.92 86.09 231.85 101.22 243.08 114.30 C 235.78 101.26 228.65 87.82 225.34 73.14 C 223.46 61.97 223.89 49.69 229.50 39.58 C 229.45 51.63 233.11 63.32 237.81 74.29 C 241.73 83.10 246.12 91.81 252.03 99.46 C 245.32 84.48 238.16 69.41 235.28 53.12 Z" />
<path fill="#ffffff" opacity="1.00" d=" M 253.41 50.13 C 251.53 40.46 255.42 30.51 262.16 23.59 C 258.05 36.49 260.47 50.61 265.46 62.92 C 270.93 77.31 277.89 91.23 281.30 106.32 C 276.73 97.23 271.63 88.42 266.26 79.78 C 260.44 70.67 255.67 60.74 253.41 50.13 Z" />
<path fill="#ffffff" opacity="1.00" d=" M 283.96 110.88 C 288.98 107.67 294.54 102.13 300.95 104.49 C 303.41 103.48 305.96 103.74 307.95 105.58 C 306.12 106.79 304.21 108.02 303.08 109.97 C 298.44 117.58 294.33 125.50 290.10 133.35 C 289.41 125.57 287.26 117.95 283.96 110.88 Z" />
<path fill="#ffffff" opacity="1.00" d=" M 277.13 105.16 C 285.47 118.48 290.27 135.47 284.77 150.77 C 279.53 165.16 266.11 174.56 252.52 180.32 C 238.37 185.88 223.81 190.77 210.78 198.75 C 203.56 203.34 197.65 210.33 195.60 218.76 C 192.05 212.15 190.42 203.95 193.59 196.87 C 196.27 190.30 202.21 186.00 207.95 182.27 C 202.66 181.59 198.31 184.98 193.59 186.67 C 195.56 180.86 199.69 175.78 205.19 172.99 C 209.56 170.60 214.56 169.84 219.46 169.34 C 216.80 166.56 213.01 165.88 209.33 165.69 C 213.56 161.24 219.74 158.79 225.89 159.60 C 233.96 159.92 240.90 165.15 248.98 165.22 C 258.73 165.11 269.14 160.99 274.15 152.18 C 282.48 137.99 281.29 120.49 277.13 105.16 Z" />
<path fill="#ffffff" opacity="1.00" d=" M 902.28 173.00 C 904.72 173.00 907.17 173.00 909.63 173.00 C 909.62 193.33 909.63 213.67 909.63 234.00 C 907.17 234.00 904.71 234.00 902.27 234.00 C 902.26 232.43 902.28 230.87 902.30 229.31 C 897.49 233.32 891.18 236.05 884.84 234.68 C 878.14 233.55 873.54 227.38 872.18 221.05 C 870.08 211.89 871.04 201.01 878.05 194.10 C 884.38 187.70 894.73 187.85 902.29 191.90 C 902.26 185.60 902.28 179.30 902.28 173.00 M 883.83 197.80 C 878.69 202.67 878.42 210.44 879.08 217.03 C 879.58 221.52 881.29 226.94 886.10 228.42 C 891.90 230.35 897.76 227.30 902.28 223.84 C 902.27 215.02 902.29 206.20 902.27 197.38 C 896.56 194.89 889.00 193.38 883.83 197.80 Z" />
<path fill="#ffffff" opacity="1.00" d=" M 1000.28 173.00 C 1002.72 173.00 1005.17 173.00 1007.63 173.00 C 1007.63 193.33 1007.62 213.67 1007.63 234.00 C 1005.17 234.00 1002.71 234.00 1000.27 234.00 C 1000.26 232.43 1000.28 230.87 1000.30 229.31 C 995.72 233.08 989.87 235.82 983.80 234.83 C 977.02 234.16 971.98 228.26 970.41 221.93 C 967.93 212.32 968.89 200.62 976.61 193.58 C 983.01 187.66 992.94 188.00 1000.29 191.90 C 1000.26 185.60 1000.28 179.30 1000.28 173.00 M 981.82 197.81 C 976.69 202.68 976.42 210.44 977.09 217.03 C 977.58 221.51 979.27 226.90 984.06 228.40 C 989.87 230.37 995.76 227.31 1000.28 223.83 C 1000.27 215.02 1000.28 206.22 1000.28 197.41 C 994.57 194.86 986.99 193.39 981.82 197.81 Z" />
<path fill="#ffffff" opacity="1.00" d=" M 570.28 185.24 C 575.01 178.71 583.09 175.38 590.98 175.07 C 598.54 174.56 606.00 176.68 612.74 179.99 C 612.73 183.08 612.74 186.17 612.73 189.27 C 608.05 186.04 602.97 183.06 597.22 182.36 C 590.66 181.28 583.19 182.42 578.49 187.50 C 572.89 193.41 571.93 202.20 572.87 209.95 C 573.70 217.13 578.05 224.37 585.17 226.75 C 594.62 229.94 605.14 226.80 612.74 220.74 C 612.74 223.77 612.73 226.80 612.74 229.84 C 602.45 235.16 589.73 237.06 578.92 232.18 C 571.04 228.63 566.19 220.43 565.04 212.08 C 563.73 202.94 564.64 192.86 570.28 185.24 Z" />
<path fill="#ffffff" opacity="1.00" d=" M 1066.91 176.18 C 1076.57 173.54 1086.93 175.54 1095.74 179.99 C 1095.73 183.08 1095.74 186.17 1095.73 189.27 C 1091.49 186.39 1087.02 183.61 1081.90 182.65 C 1075.09 181.23 1067.13 181.88 1061.97 187.03 C 1055.95 192.88 1054.90 202.01 1055.88 209.97 C 1056.71 217.16 1061.08 224.41 1068.23 226.77 C 1077.66 229.92 1088.16 226.78 1095.74 220.74 C 1095.73 223.77 1095.73 226.80 1095.74 229.84 C 1085.66 235.05 1073.33 236.97 1062.64 232.50 C 1054.86 229.31 1049.75 221.61 1048.28 213.51 C 1046.76 204.83 1047.25 195.36 1051.72 187.58 C 1054.95 181.90 1060.62 177.81 1066.91 176.18 Z" />
<path fill="#ffffff" opacity="1.00" d=" M 851.84 176.00 C 854.60 176.00 857.36 176.00 860.13 176.00 C 860.12 178.67 860.12 181.33 860.13 184.00 C 857.36 184.00 854.60 184.00 851.84 184.00 C 851.84 181.33 851.84 178.67 851.84 176.00 Z" />
<path fill="#ffffff" opacity="1.00" d=" M 1139.84 176.00 C 1142.59 176.00 1145.36 176.00 1148.13 176.00 C 1148.12 178.67 1148.12 181.33 1148.13 184.00 C 1145.36 184.00 1142.59 184.00 1139.84 184.00 C 1139.83 181.33 1139.83 178.67 1139.84 176.00 Z" />
<path fill="#ffffff" opacity="1.00" d=" M 1235.84 176.00 C 1238.59 176.00 1241.35 176.00 1244.13 176.00 C 1244.12 178.67 1244.12 181.33 1244.13 184.00 C 1241.35 184.00 1238.59 184.00 1235.84 184.00 C 1235.83 181.33 1235.83 178.67 1235.84 176.00 Z" />
<path fill="#ffffff" opacity="1.00" d=" M 1204.39 177.00 C 1206.83 177.00 1209.28 177.00 1211.74 177.00 C 1211.73 181.33 1211.73 185.67 1211.74 190.00 C 1216.78 190.00 1221.84 190.00 1226.89 190.00 C 1226.88 192.00 1226.88 194.00 1226.89 196.00 C 1221.84 196.00 1216.78 196.00 1211.74 196.00 C 1211.79 204.33 1211.61 212.66 1211.83 220.99 C 1211.88 223.87 1212.90 227.30 1215.84 228.45 C 1219.45 229.61 1223.30 228.70 1226.92 227.99 C 1226.88 229.98 1226.87 231.97 1226.87 233.96 C 1221.16 234.97 1214.58 236.11 1209.45 232.66 C 1205.65 230.14 1204.57 225.33 1204.43 221.07 C 1204.32 212.71 1204.42 204.36 1204.39 196.00 C 1202.71 196.00 1201.06 196.00 1199.42 196.00 C 1199.41 194.00 1199.41 192.00 1199.42 190.00 C 1201.06 190.00 1202.71 190.00 1204.39 190.00 C 1204.38 185.66 1204.38 181.33 1204.39 177.00 Z" />
<path fill="#ffffff" opacity="1.00" d=" M 634.50 189.71 C 641.13 188.08 648.88 189.15 653.88 194.10 C 658.45 198.42 660.29 204.87 660.40 211.00 C 660.60 217.54 659.12 224.58 654.41 229.41 C 649.11 235.07 640.35 236.18 633.21 233.91 C 626.71 231.82 622.16 225.71 620.87 219.16 C 619.65 212.98 619.83 206.34 622.28 200.47 C 624.46 195.29 628.99 191.06 634.50 189.71 M 636.38 195.54 C 631.39 196.90 628.61 202.00 628.08 206.85 C 627.42 212.66 627.43 219.11 630.72 224.19 C 634.75 230.52 645.28 230.64 649.61 224.57 C 652.45 220.67 652.90 215.62 652.82 210.94 C 652.67 206.50 651.94 201.64 648.73 198.32 C 645.62 195.02 640.58 194.36 636.38 195.54 Z" />
<path fill="#ffffff" opacity="1.00" d=" M 679.55 194.81 C 683.99 191.45 689.27 188.45 695.06 189.06 C 699.61 189.16 703.80 191.82 706.00 195.79 C 709.88 192.77 714.13 189.80 719.15 189.19 C 723.47 188.66 728.42 189.18 731.63 192.43 C 735.04 196.01 735.88 201.18 735.90 205.94 C 735.93 215.29 735.89 224.65 735.91 234.00 C 733.46 234.00 731.00 234.00 728.56 234.00 C 728.43 223.69 728.84 213.36 728.30 203.05 C 728.34 199.57 726.34 195.68 722.57 195.22 C 716.92 193.99 711.82 197.35 707.52 200.56 C 707.98 211.70 707.62 222.85 707.74 234.00 C 705.28 234.00 702.83 234.00 700.39 234.00 C 700.30 224.03 700.57 214.05 700.24 204.08 C 700.27 200.55 698.92 196.16 695.00 195.34 C 689.27 193.79 683.98 197.11 679.59 200.37 C 679.56 211.58 679.58 222.79 679.58 234.00 C 677.12 234.00 674.68 234.00 672.23 234.00 C 672.23 219.33 672.23 204.67 672.23 190.00 C 674.68 190.00 677.13 190.00 679.59 190.00 C 679.57 191.60 679.56 193.21 679.55 194.81 Z" />
<path fill="#ffffff" opacity="1.00" d=" M 808.55 194.99 C 812.20 192.28 816.23 189.71 820.85 189.17 C 825.45 188.57 830.73 189.50 833.88 193.20 C 836.95 196.67 837.67 201.50 837.71 205.99 C 837.74 215.32 837.71 224.66 837.72 234.00 C 835.26 234.00 832.81 234.00 830.37 234.00 C 830.30 224.37 830.53 214.73 830.25 205.11 C 830.15 201.56 829.35 197.10 825.56 195.70 C 819.49 193.44 813.44 196.88 808.61 200.32 C 808.53 211.54 808.59 222.77 808.58 233.99 C 806.12 234.00 803.68 234.00 801.23 234.00 C 801.23 219.33 801.23 204.67 801.23 190.00 C 803.68 190.00 806.13 190.00 808.59 190.00 C 808.57 191.66 808.56 193.33 808.55 194.99 Z" />
<path fill="#ffffff" opacity="1.00" d=" M 924.94 190.86 C 933.01 189.15 941.68 187.84 949.69 190.53 C 954.92 192.26 958.19 197.64 958.09 203.04 C 958.22 213.36 958.10 223.68 958.14 234.00 C 955.69 234.00 953.25 234.00 950.82 234.00 C 950.81 232.38 950.82 230.76 950.84 229.15 C 946.59 232.44 941.55 235.01 936.05 234.97 C 929.88 235.43 923.45 231.56 921.67 225.51 C 920.63 221.68 920.84 217.35 922.78 213.83 C 925.08 209.88 929.51 207.83 933.81 206.82 C 939.43 205.54 945.22 205.43 950.95 204.96 C 950.96 201.43 949.87 197.17 946.08 195.99 C 939.07 193.74 931.63 195.73 924.94 198.11 C 924.93 195.69 924.93 193.27 924.94 190.86 M 932.36 214.31 C 927.04 217.12 927.36 226.67 933.41 228.38 C 939.64 230.40 945.96 227.53 950.82 223.73 C 950.82 219.48 950.82 215.24 950.83 210.99 C 944.65 211.70 937.94 211.15 932.36 214.31 Z" />
<path fill="#ffffff" opacity="1.00" d=" M 1165.12 192.18 C 1173.11 187.20 1183.36 188.76 1191.67 192.13 C 1191.68 194.79 1191.68 197.46 1191.72 200.13 C 1185.51 196.13 1177.29 193.11 1170.15 196.42 C 1166.21 198.02 1165.84 204.42 1169.79 206.23 C 1176.21 209.41 1184.37 208.15 1190.04 213.04 C 1195.53 218.07 1194.01 228.02 1187.66 231.68 C 1179.10 236.92 1168.07 235.38 1159.32 231.39 C 1159.28 228.53 1159.29 225.68 1159.28 222.83 C 1165.65 227.52 1174.11 230.79 1181.94 227.96 C 1186.21 226.79 1187.49 220.05 1183.59 217.73 C 1177.10 214.56 1169.02 215.58 1163.17 210.92 C 1157.40 206.04 1158.76 195.94 1165.12 192.18 Z" />
<path fill="#ffffff" opacity="1.00" d=" M 1258.94 190.86 C 1267.00 189.15 1275.67 187.84 1283.67 190.53 C 1288.87 192.24 1292.15 197.55 1292.08 202.92 C 1292.22 213.28 1292.10 223.64 1292.14 234.00 C 1289.69 234.00 1287.25 234.00 1284.82 234.00 C 1284.81 232.38 1284.82 230.77 1284.84 229.15 C 1280.57 232.46 1275.49 235.03 1269.97 234.98 C 1263.82 235.40 1257.43 231.53 1255.67 225.50 C 1254.62 221.66 1254.84 217.31 1256.80 213.79 C 1259.23 209.68 1263.92 207.65 1268.41 206.68 C 1273.84 205.55 1279.42 205.40 1284.95 204.96 C 1284.96 201.45 1283.88 197.20 1280.12 196.01 C 1273.11 193.73 1265.64 195.73 1258.94 198.10 C 1258.93 195.69 1258.92 193.27 1258.94 190.86 M 1266.31 214.34 C 1261.05 217.18 1261.37 226.65 1267.39 228.38 C 1273.62 230.40 1279.96 227.54 1284.82 223.73 C 1284.82 219.48 1284.82 215.24 1284.82 210.99 C 1278.63 211.70 1271.90 211.15 1266.31 214.34 Z" />
<path fill="#ffffff" opacity="1.00" d=" M 1313.55 194.99 C 1317.19 192.28 1321.21 189.72 1325.82 189.18 C 1330.43 188.57 1335.75 189.50 1338.90 193.22 C 1341.98 196.72 1342.68 201.58 1342.71 206.10 C 1342.74 215.40 1342.71 224.70 1342.72 234.00 C 1340.26 234.00 1337.81 234.00 1335.37 234.00 C 1335.29 224.36 1335.53 214.71 1335.25 205.07 C 1335.14 201.53 1334.34 197.10 1330.57 195.70 C 1324.48 193.44 1318.40 196.88 1313.60 200.35 C 1313.55 211.57 1313.58 222.78 1313.58 233.99 C 1311.12 234.00 1308.67 234.00 1306.23 234.00 C 1306.23 219.33 1306.23 204.67 1306.23 190.00 C 1308.67 190.00 1311.12 190.00 1313.59 190.00 C 1313.56 191.66 1313.55 193.33 1313.55 194.99 Z" />
<path fill="#ffffff" opacity="1.00" d=" M 1357.94 190.86 C 1365.98 189.15 1374.61 187.86 1382.60 190.50 C 1387.86 192.20 1391.18 197.58 1391.09 203.01 C 1391.22 213.34 1391.10 223.67 1391.14 234.00 C 1388.69 234.00 1386.25 234.00 1383.83 234.00 C 1383.80 232.38 1383.82 230.77 1383.83 229.16 C 1379.35 232.67 1373.90 235.25 1368.08 234.98 C 1362.23 235.08 1356.37 231.23 1354.68 225.54 C 1353.05 219.95 1354.45 212.96 1359.69 209.76 C 1366.90 205.23 1375.80 205.78 1383.95 204.96 C 1383.95 201.45 1382.89 197.22 1379.13 196.02 C 1372.12 193.72 1364.64 195.73 1357.94 198.10 C 1357.92 195.69 1357.92 193.27 1357.94 190.86 M 1365.39 214.29 C 1360.04 217.08 1360.34 226.66 1366.40 228.38 C 1372.63 230.41 1378.96 227.53 1383.82 223.73 C 1383.82 219.48 1383.82 215.24 1383.82 210.99 C 1377.66 211.70 1370.97 211.16 1365.39 214.29 Z" />
<path fill="#ffffff" opacity="1.00" d=" M 749.92 190.00 C 752.36 190.00 754.81 190.00 757.27 190.00 C 757.32 199.59 757.16 209.18 757.35 218.77 C 757.44 222.47 758.41 227.09 762.36 228.48 C 768.39 230.37 774.30 227.09 779.05 223.65 C 779.07 212.43 779.05 201.22 779.06 190.00 C 781.50 190.00 783.95 190.00 786.41 190.00 C 786.41 204.67 786.41 219.33 786.41 234.00 C 783.95 234.00 781.50 234.00 779.06 234.00 C 779.05 232.32 779.05 230.65 779.06 228.97 C 775.48 231.61 771.62 234.29 767.08 234.81 C 762.48 235.45 757.26 234.56 753.98 231.02 C 750.75 227.54 749.93 222.60 749.93 218.02 C 749.90 208.68 749.93 199.34 749.92 190.00 Z" />
<path fill="#ffffff" opacity="1.00" d=" M 852.31 190.00 C 854.75 190.00 857.20 190.00 859.66 190.00 C 859.66 204.67 859.66 219.33 859.66 234.00 C 857.20 234.00 854.75 234.00 852.31 234.00 C 852.31 219.33 852.31 204.67 852.31 190.00 Z" />
<path fill="#ffffff" opacity="1.00" d=" M 1106.23 190.00 C 1108.67 190.00 1111.12 190.00 1113.58 190.00 C 1113.57 192.15 1113.56 194.30 1113.57 196.46 C 1116.78 194.04 1120.10 191.52 1124.07 190.52 C 1127.12 189.71 1130.32 190.02 1133.44 190.38 C 1133.44 192.92 1133.45 195.46 1133.47 198.00 C 1130.32 197.27 1127.06 196.65 1123.84 197.21 C 1119.96 197.80 1116.70 200.18 1113.59 202.41 C 1113.56 212.94 1113.58 223.47 1113.58 234.00 C 1111.12 234.00 1108.67 234.00 1106.23 234.00 C 1106.23 219.33 1106.23 204.67 1106.23 190.00 Z" />
<path fill="#ffffff" opacity="1.00" d=" M 1140.31 190.00 C 1142.75 190.00 1145.20 190.00 1147.66 190.00 C 1147.66 204.67 1147.66 219.33 1147.66 234.00 C 1145.20 234.00 1142.75 234.00 1140.31 234.00 C 1140.31 219.33 1140.31 204.67 1140.31 190.00 Z" />
<path fill="#ffffff" opacity="1.00" d=" M 1236.31 190.00 C 1238.75 190.00 1241.20 190.00 1243.66 190.00 C 1243.65 204.67 1243.66 219.33 1243.66 234.00 C 1241.20 234.00 1238.75 234.00 1236.31 234.00 C 1236.31 219.33 1236.31 204.67 1236.31 190.00 Z" />
<path fill="#ffffff" opacity="1.00" d=" M 169.66 228.59 C 171.22 227.90 172.79 228.04 174.30 228.82 C 173.77 229.67 173.24 230.52 172.71 231.37 C 179.47 232.16 186.34 232.40 193.06 231.22 C 190.52 232.31 188.02 233.50 185.54 234.70 C 187.76 236.02 190.10 237.13 192.52 238.07 C 185.95 239.07 179.29 238.86 172.70 238.24 C 172.62 245.26 172.91 252.29 172.48 259.29 C 172.06 259.37 171.21 259.52 170.78 259.60 C 170.64 250.72 170.74 241.85 170.70 232.97 C 170.80 231.43 170.15 230.00 169.66 228.59 Z" />
<path fill="#ffffff" opacity="1.00" d=" M 326.42 228.62 C 328.01 228.01 329.65 227.81 331.11 228.90 C 330.53 229.72 329.95 230.54 329.37 231.36 C 336.15 232.16 343.04 232.37 349.80 231.27 C 347.28 232.36 344.78 233.54 342.31 234.74 C 344.57 236.01 346.95 237.07 349.33 238.10 C 342.76 239.06 336.09 238.86 329.49 238.25 C 329.35 245.54 329.86 252.88 329.12 260.15 L 327.75 258.84 C 327.20 250.25 327.66 241.56 327.49 232.93 C 327.61 231.40 326.90 230.01 326.42 228.62 Z" />
<path fill="#ffffff" opacity="1.00" d=" M 625.48 261.00 C 630.62 261.00 635.75 261.00 640.89 261.00 C 640.89 264.67 640.89 268.33 640.89 272.00 C 635.75 272.00 630.62 272.00 625.48 272.00 C 625.48 268.33 625.48 264.67 625.48 261.00 Z" />
<path fill="#ffffff" opacity="1.00" d=" M 742.56 261.00 C 747.42 261.00 752.28 261.00 757.14 261.00 C 757.14 282.00 757.14 303.00 757.14 324.00 C 752.28 324.00 747.41 324.00 742.55 324.00 C 742.55 322.43 742.56 320.87 742.58 319.32 C 737.95 323.16 732.03 325.73 725.91 324.89 C 718.37 324.39 712.59 317.92 710.85 310.90 C 708.22 300.95 709.47 288.76 717.71 281.71 C 724.57 275.77 734.85 275.82 742.57 280.03 C 742.54 273.69 742.56 267.34 742.56 261.00 M 728.58 290.56 C 724.91 293.91 724.45 299.31 724.81 303.97 C 725.03 307.52 726.24 311.72 729.87 313.16 C 734.06 314.93 738.77 313.62 742.55 311.46 C 742.56 303.99 742.58 296.52 742.54 289.05 C 737.99 287.71 732.38 287.20 728.58 290.56 Z" />
<path fill="#ffffff" opacity="1.00" d=" M 855.56 261.00 C 860.42 261.00 865.28 261.00 870.14 261.00 C 870.14 282.00 870.14 303.00 870.14 324.00 C 865.27 324.00 860.41 324.00 855.55 324.00 C 855.55 322.43 855.56 320.87 855.59 319.32 C 850.95 323.16 845.03 325.73 838.91 324.89 C 831.39 324.39 825.61 317.95 823.86 310.95 C 821.43 301.60 822.26 290.47 829.17 283.16 C 835.84 275.93 847.26 275.41 855.57 280.03 C 855.54 273.69 855.56 267.34 855.56 261.00 M 841.57 290.57 C 837.92 293.91 837.45 299.28 837.80 303.92 C 838.02 307.47 839.21 311.69 842.84 313.15 C 847.04 314.93 851.76 313.63 855.55 311.46 C 855.56 303.99 855.58 296.52 855.54 289.05 C 850.98 287.71 845.37 287.20 841.57 290.57 Z" />
<path fill="#ffffff" opacity="1.00" d=" M 1161.56 261.00 C 1166.42 261.00 1171.28 261.00 1176.14 261.00 C 1176.14 282.00 1176.14 303.00 1176.14 324.00 C 1171.27 324.00 1166.41 324.00 1161.55 324.00 C 1161.54 322.43 1161.55 320.87 1161.58 319.32 C 1156.95 323.16 1151.04 325.73 1144.92 324.89 C 1137.38 324.39 1131.60 317.93 1129.85 310.91 C 1127.28 301.14 1128.41 289.26 1136.24 282.11 C 1143.07 275.81 1153.68 275.70 1161.57 280.03 C 1161.54 273.69 1161.56 267.34 1161.56 261.00 M 1147.56 290.58 C 1143.92 293.91 1143.45 299.29 1143.80 303.93 C 1144.02 307.50 1145.24 311.74 1148.91 313.18 C 1153.09 314.92 1157.77 313.61 1161.55 311.46 C 1161.56 303.99 1161.58 296.52 1161.54 289.05 C 1156.98 287.71 1151.37 287.20 1147.56 290.58 Z" />
<path fill="#ffffff" opacity="1.00" d=" M 1244.89 261.00 C 1249.75 261.00 1254.61 261.00 1259.49 261.00 C 1259.49 282.00 1259.49 303.00 1259.49 324.00 C 1254.61 324.00 1249.75 324.00 1244.89 324.00 C 1244.89 303.00 1244.89 282.00 1244.89 261.00 Z" />
<path fill="#ffffff" opacity="1.00" d=" M 1420.48 261.00 C 1425.61 261.00 1430.75 261.00 1435.89 261.00 C 1435.88 264.67 1435.88 268.33 1435.89 272.00 C 1430.75 272.00 1425.61 272.00 1420.48 271.99 C 1420.48 268.33 1420.48 264.67 1420.48 261.00 Z" />
<path fill="#ffffff" opacity="1.00" d=" M 586.51 263.72 C 596.25 261.94 606.54 263.49 615.32 268.07 C 615.31 273.17 615.38 278.28 615.28 283.38 C 611.81 282.36 609.49 279.32 606.26 277.81 C 600.62 274.46 593.25 274.02 587.47 277.23 C 582.86 279.84 580.19 284.94 579.61 290.08 C 578.87 296.07 579.51 302.73 583.53 307.52 C 587.95 312.82 595.83 314.03 602.19 312.10 C 607.24 310.86 610.69 306.67 615.27 304.58 C 615.39 309.63 615.30 314.68 615.32 319.73 C 604.22 325.46 590.56 327.07 578.93 321.97 C 570.90 318.51 565.41 310.62 563.92 302.12 C 562.21 292.62 563.26 282.02 569.18 274.09 C 573.26 268.46 579.77 265.02 586.51 263.72 Z" />
<path fill="#ffffff" opacity="1.00" d=" M 1301.70 264.00 C 1311.81 264.07 1321.93 263.86 1332.05 264.12 C 1337.77 264.25 1343.83 265.81 1347.84 270.15 C 1352.27 274.73 1352.34 281.92 1350.44 287.65 C 1348.67 292.65 1344.19 295.93 1339.71 298.37 C 1346.43 306.89 1353.10 315.46 1359.81 324.00 C 1353.47 324.00 1347.14 324.00 1340.81 324.00 C 1335.38 316.68 1329.83 309.44 1324.48 302.07 C 1322.04 301.99 1319.61 301.98 1317.19 301.99 C 1317.19 309.33 1317.18 316.66 1317.19 324.00 C 1312.02 324.00 1306.86 324.00 1301.70 324.00 C 1301.70 304.00 1301.70 284.00 1301.70 264.00 M 1317.19 275.00 C 1317.18 280.33 1317.18 285.67 1317.19 291.00 C 1322.15 290.76 1327.66 291.80 1332.15 289.14 C 1336.94 286.35 1336.84 277.46 1331.13 275.83 C 1326.61 274.52 1321.82 275.16 1317.19 275.00 Z" />
<path fill="#ffffff" opacity="1.00" d=" M 80.62 273.06 C 81.30 273.06 82.64 273.05 83.32 273.05 C 83.09 273.57 82.64 274.60 82.41 275.12 C 86.63 275.58 90.87 275.54 95.10 275.20 C 93.57 275.85 92.04 276.52 90.52 277.20 C 92.03 277.95 93.55 278.70 95.08 279.43 C 90.87 279.83 86.63 279.83 82.41 279.47 C 82.36 283.63 82.53 287.81 82.29 291.97 C 82.07 292.37 81.62 293.15 81.40 293.55 C 80.65 286.74 81.84 279.82 80.62 273.06 Z" />
<path fill="#ffffff" opacity="1.00" d=" M 417.09 272.88 C 417.97 273.01 418.85 273.15 419.74 273.29 C 419.46 273.75 418.90 274.66 418.62 275.12 C 422.90 275.57 427.22 275.56 431.50 275.17 C 429.93 275.80 428.35 276.44 426.79 277.12 C 428.33 277.95 429.90 278.74 431.50 279.45 C 427.22 279.79 422.92 279.86 418.65 279.46 C 418.58 284.14 418.87 288.85 418.34 293.51 C 418.13 293.12 417.73 292.35 417.53 291.96 C 417.13 285.61 417.68 279.22 417.09 272.88 Z" />
<path fill="#ffffff" opacity="1.00" d=" M 771.46 279.18 C 781.86 277.05 792.93 275.71 803.27 278.83 C 808.65 280.35 812.67 285.37 812.82 291.00 C 813.07 301.99 812.85 313.00 812.93 324.00 C 808.10 324.00 803.27 324.00 798.44 324.00 C 798.44 322.40 798.45 320.80 798.47 319.21 C 795.12 321.76 791.49 324.30 787.17 324.70 C 781.24 325.71 774.46 324.45 770.50 319.58 C 767.21 315.73 766.81 310.10 768.33 305.42 C 769.79 301.15 773.81 298.38 777.93 296.97 C 784.62 294.68 791.77 294.66 798.73 293.92 C 798.25 291.81 797.71 289.32 795.42 288.49 C 787.59 285.22 779.15 287.95 771.47 290.22 C 771.43 286.54 771.44 282.86 771.46 279.18 M 785.21 305.20 C 781.58 306.58 781.10 312.67 784.84 314.19 C 789.35 316.02 794.53 314.71 798.46 312.08 C 798.44 309.05 798.45 306.02 798.45 302.99 C 794.03 303.58 789.37 303.43 785.21 305.20 Z" />
<path fill="#ffffff" opacity="1.00" d=" M 884.46 279.18 C 894.86 277.05 905.93 275.71 916.27 278.83 C 921.62 280.34 925.63 285.33 925.81 290.92 C 926.08 301.94 925.84 312.97 925.93 324.00 C 921.09 324.00 916.27 324.00 911.44 324.00 C 911.44 322.40 911.45 320.80 911.47 319.21 C 904.19 325.94 891.23 327.67 883.95 320.10 C 880.29 316.27 879.73 310.35 881.31 305.48 C 882.76 301.17 886.80 298.38 890.94 296.97 C 897.62 294.68 904.78 294.66 911.74 293.92 C 911.25 291.80 910.70 289.29 908.39 288.47 C 900.57 285.23 892.13 287.95 884.47 290.22 C 884.43 286.54 884.44 282.86 884.46 279.18 M 898.20 305.21 C 894.57 306.59 894.10 312.70 897.86 314.20 C 902.37 316.02 907.53 314.70 911.46 312.08 C 911.44 309.05 911.45 306.02 911.45 302.99 C 907.02 303.58 902.36 303.43 898.20 305.21 Z" />
<path fill="#ffffff" opacity="1.00" d=" M 953.47 283.26 C 959.28 278.54 967.01 275.39 974.49 277.76 C 980.66 279.34 984.33 285.59 984.49 291.69 C 984.77 302.45 984.53 313.23 984.61 324.00 C 979.72 324.00 974.83 324.00 969.94 324.00 C 969.86 315.33 970.08 306.65 969.82 297.98 C 969.60 295.06 969.51 291.23 966.45 289.77 C 962.14 287.98 957.38 289.52 953.49 291.62 C 953.48 302.41 953.49 313.21 953.49 324.00 C 948.62 324.00 943.75 324.00 938.89 324.00 C 938.89 308.67 938.89 293.33 938.89 278.00 C 943.75 278.00 948.62 278.00 953.49 278.00 C 953.48 279.75 953.47 281.50 953.47 283.26 Z" />
<path fill="#ffffff" opacity="1.00" d=" M 1012.53 277.66 C 1021.13 276.14 1031.16 276.97 1037.75 283.32 C 1044.49 289.79 1045.56 300.19 1043.44 308.88 C 1041.68 316.03 1035.87 321.90 1028.76 323.78 C 1022.00 325.57 1014.58 325.50 1008.01 323.01 C 1001.26 320.49 996.32 314.15 995.13 307.10 C 993.91 300.17 994.50 292.50 998.53 286.53 C 1001.71 281.79 1006.97 278.72 1012.53 277.66 M 1015.42 287.72 C 1011.15 289.64 1009.92 294.78 1009.74 299.04 C 1009.68 303.53 1009.63 308.67 1012.72 312.28 C 1016.47 316.30 1024.28 315.95 1027.15 311.05 C 1029.20 307.80 1029.33 303.81 1029.28 300.09 C 1029.13 296.51 1028.70 292.61 1026.29 289.78 C 1023.66 286.73 1019.00 286.44 1015.42 287.72 Z" />
<path fill="#ffffff" opacity="1.00" d=" M 1066.84 277.82 C 1075.35 276.08 1084.25 277.21 1092.35 280.19 C 1092.37 284.25 1092.41 288.31 1092.33 292.38 C 1085.32 288.59 1077.00 285.12 1069.04 288.06 C 1066.41 288.62 1066.30 292.57 1068.84 293.36 C 1075.54 295.96 1083.40 295.17 1089.51 299.38 C 1095.34 303.32 1095.97 312.41 1091.51 317.62 C 1087.96 321.84 1082.47 323.86 1077.14 324.58 C 1068.61 325.70 1059.80 324.62 1051.84 321.33 C 1051.85 317.09 1051.80 312.84 1051.88 308.60 C 1059.37 313.17 1068.43 316.76 1077.26 314.18 C 1079.79 313.73 1080.44 309.81 1077.89 308.91 C 1071.17 306.32 1063.29 307.11 1057.24 302.73 C 1051.72 299.00 1050.38 290.59 1054.27 285.24 C 1057.21 281.16 1062.01 278.83 1066.84 277.82 Z" />
<path fill="#ffffff" opacity="1.00" d=" M 1188.92 289.85 C 1192.28 282.51 1200.02 277.98 1207.90 277.27 C 1215.67 276.43 1224.88 277.36 1230.17 283.83 C 1234.84 289.43 1234.86 297.10 1234.73 304.00 C 1223.54 304.04 1212.36 303.92 1201.18 304.06 C 1201.70 307.41 1203.05 310.90 1206.16 312.66 C 1211.06 315.43 1217.09 315.41 1222.47 314.28 C 1226.52 313.47 1229.97 311.07 1233.80 309.65 C 1233.86 313.49 1233.94 317.34 1233.81 321.19 C 1225.46 325.03 1215.83 325.66 1206.80 324.37 C 1199.17 323.27 1191.46 318.96 1188.46 311.55 C 1185.75 304.67 1185.91 296.61 1188.92 289.85 M 1201.11 294.93 C 1207.51 295.07 1213.93 295.00 1220.34 294.97 C 1219.90 292.42 1219.27 289.48 1216.75 288.19 C 1211.01 285.29 1201.64 287.43 1201.11 294.93 Z" />
<path fill="#ffffff" opacity="1.00" d=" M 1369.54 283.52 C 1375.74 277.63 1384.91 276.33 1393.10 277.30 C 1398.72 277.91 1404.41 280.58 1407.42 285.56 C 1410.92 291.02 1410.79 297.75 1410.73 303.99 C 1399.54 304.04 1388.36 303.92 1377.18 304.06 C 1377.70 307.39 1379.03 310.87 1382.12 312.63 C 1387.03 315.44 1393.09 315.42 1398.50 314.28 C 1402.54 313.46 1405.98 311.06 1409.80 309.65 C 1409.90 313.56 1409.85 317.47 1409.85 321.39 C 1400.12 325.19 1389.18 326.16 1379.04 323.53 C 1372.07 321.74 1365.76 316.63 1363.73 309.57 C 1361.22 300.73 1362.53 290.01 1369.54 283.52 M 1377.10 294.92 C 1383.51 295.07 1389.92 295.00 1396.34 294.97 C 1395.90 292.43 1395.28 289.50 1392.77 288.21 C 1387.03 285.28 1377.65 287.41 1377.10 294.92 Z" />
<path fill="#ffffff" opacity="1.00" d=" M 1463.47 283.26 C 1467.95 279.89 1473.13 276.80 1478.94 277.01 C 1484.35 276.82 1490.17 279.34 1492.61 284.40 C 1495.46 290.16 1494.40 296.76 1494.61 302.95 C 1494.61 309.96 1494.60 316.98 1494.61 324.00 C 1489.72 324.00 1484.82 324.00 1479.94 324.00 C 1479.86 315.33 1480.08 306.65 1479.82 297.99 C 1479.60 295.07 1479.51 291.25 1476.46 289.78 C 1472.15 287.98 1467.38 289.51 1463.49 291.62 C 1463.48 302.41 1463.49 313.21 1463.49 324.00 C 1458.61 324.00 1453.75 324.00 1448.89 324.00 C 1448.89 308.67 1448.89 293.33 1448.89 278.00 C 1453.75 278.00 1458.62 278.00 1463.49 278.00 C 1463.47 279.75 1463.46 281.50 1463.47 283.26 Z" />
<path fill="#ffffff" opacity="1.00" d=" M 1522.57 277.66 C 1531.15 276.14 1541.16 276.98 1547.74 283.31 C 1554.31 289.59 1555.47 299.63 1553.62 308.14 C 1552.14 315.09 1546.90 321.09 1540.14 323.33 C 1533.53 325.53 1526.20 325.55 1519.55 323.57 C 1512.46 321.48 1506.87 315.35 1505.35 308.13 C 1503.87 301.12 1504.29 293.30 1508.16 287.10 C 1511.30 282.04 1516.77 278.74 1522.57 277.66 M 1525.44 287.71 C 1521.49 289.44 1520.10 294.05 1519.82 298.02 C 1519.57 302.22 1519.59 306.72 1521.51 310.58 C 1524.43 316.29 1533.94 316.58 1537.17 311.03 C 1539.22 307.76 1539.33 303.75 1539.28 300.01 C 1539.11 296.44 1538.68 292.55 1536.25 289.74 C 1533.62 286.73 1529.00 286.45 1525.44 287.71 Z" />
<path fill="#ffffff" opacity="1.00" d=" M 625.89 278.00 C 630.75 278.00 635.62 278.00 640.49 278.00 C 640.49 293.33 640.49 308.67 640.49 324.00 C 635.62 324.00 630.75 324.00 625.89 324.00 C 625.89 308.67 625.89 293.33 625.89 278.00 Z" />
<path fill="#ffffff" opacity="1.00" d=" M 653.53 278.00 C 658.42 278.00 663.31 278.00 668.20 278.00 C 668.25 286.81 668.10 295.62 668.28 304.42 C 668.44 307.27 668.79 310.90 671.74 312.27 C 676.02 313.98 680.77 312.48 684.64 310.39 C 684.67 299.60 684.65 288.80 684.66 278.00 C 689.51 278.00 694.37 278.00 699.24 278.00 C 699.23 293.33 699.23 308.67 699.24 324.00 C 694.37 324.00 689.51 324.00 684.65 324.00 C 684.65 322.24 684.65 320.49 684.67 318.74 C 680.87 321.41 676.89 324.34 672.12 324.81 C 667.17 325.42 661.59 324.65 657.92 320.97 C 654.55 317.62 653.57 312.66 653.54 308.07 C 653.51 298.05 653.54 288.02 653.53 278.00 Z" />
<path fill="#ffffff" opacity="1.00" d=" M 1420.89 278.00 C 1425.75 278.00 1430.61 278.00 1435.49 278.00 C 1435.48 293.33 1435.48 308.67 1435.49 324.00 C 1430.61 324.00 1425.75 324.00 1420.89 324.00 C 1420.89 308.67 1420.89 293.33 1420.89 278.00 Z" />
</g>
</svg>
