<?xml version="1.0" encoding="UTF-8" ?>
<!DOCTYPE svg PUBLIC "-//W3C//DTD SVG 1.1//EN" "http://www.w3.org/Graphics/SVG/1.1/DTD/svg11.dtd">
<svg width="48pt" height="80pt" viewBox="0 0 48 80" version="1.1" xmlns="http://www.w3.org/2000/svg">
<g id="#ffffffff">
<path fill="#ffffff" opacity="1.00" d=" M 18.07 12.99 C 17.29 8.66 18.39 4.05 21.05 0.54 C 19.49 11.15 26.64 20.00 31.08 28.95 C 34.80 35.75 37.17 44.68 32.74 51.73 C 30.50 55.59 25.76 57.31 21.51 56.07 C 22.85 54.66 24.60 52.79 23.22 50.77 C 19.51 44.48 14.94 38.69 11.67 32.14 C 9.78 28.17 10.26 23.66 11.30 19.54 C 13.01 26.26 16.59 32.32 21.03 37.59 C 18.26 31.90 14.85 26.33 13.93 19.96 C 13.36 15.83 14.05 11.63 15.54 7.76 C 16.26 16.49 19.85 24.76 24.83 31.88 C 22.17 25.75 19.19 19.64 18.07 12.99 Z" />
<path fill="#ffffff" opacity="1.00" d=" M 25.24 11.09 C 24.77 7.49 26.64 4.22 28.63 1.40 C 26.44 10.29 30.65 18.83 34.23 26.71 C 33.90 27.48 33.59 28.26 33.29 29.04 C 30.46 23.15 26.08 17.77 25.24 11.09 Z" />
<path fill="#ffffff" opacity="1.00" d=" M 33.55 29.59 C 33.87 29.49 34.50 29.29 34.82 29.19 C 35.35 31.07 37.46 33.28 35.62 35.05 C 38.96 41.42 40.51 49.76 35.97 55.98 C 30.76 63.27 21.54 65.08 13.85 68.60 C 8.84 70.70 3.75 73.95 2.09 79.45 C 1.14 76.85 0.17 73.98 1.24 71.26 C 2.20 68.36 4.84 66.62 7.09 64.81 C 5.09 65.13 3.19 65.86 1.29 66.52 C 3.03 62.07 7.51 60.08 11.92 59.48 C 10.53 58.96 9.12 58.47 7.69 58.02 C 10.87 55.22 15.32 55.40 19.00 57.02 C 22.86 58.71 27.49 58.21 30.96 55.84 C 33.98 53.55 35.43 49.74 35.92 46.08 C 36.68 41.39 35.04 36.77 35.35 32.06 C 34.90 31.45 34.00 30.21 33.55 29.59 Z" />
<path fill="#ffffff" opacity="1.00" d=" M 37.62 36.24 C 40.30 34.02 43.65 32.98 47.09 33.87 C 44.04 37.18 42.27 41.37 40.10 45.26 C 39.68 42.15 38.82 39.13 37.62 36.24 Z" />
</g>
</svg>
