<?xml version="1.0" encoding="UTF-8" ?>
<!DOCTYPE svg PUBLIC "-//W3C//DTD SVG 1.1//EN" "http://www.w3.org/Graphics/SVG/1.1/DTD/svg11.dtd">
<svg width="655pt" height="653pt" viewBox="0 0 655 653" version="1.1" xmlns="http://www.w3.org/2000/svg">
<g id="#0c4ac2ff">
<path fill="#0c4ac2" opacity="1.00" d=" M 289.88 0.00 L 363.91 0.00 C 418.40 6.32 471.29 26.30 516.04 58.07 C 567.36 94.22 607.82 145.49 631.05 203.80 C 639.34 224.53 645.52 246.10 649.43 268.08 C 652.64 285.38 653.81 302.95 655.00 320.47 L 655.00 329.71 C 653.78 351.23 651.94 372.81 647.28 393.90 C 633.37 459.62 598.58 520.71 549.11 566.16 C 502.19 609.64 442.23 638.77 379.06 648.83 C 364.04 651.29 348.85 652.54 333.65 653.00 L 318.60 653.00 C 277.84 651.73 237.28 643.18 199.71 627.25 C 142.15 603.08 91.86 561.99 56.70 510.41 C 23.20 461.65 3.50 403.65 0.00 344.61 L 0.00 306.41 C 2.37 267.77 11.45 229.53 27.02 194.08 C 51.13 138.86 90.86 90.60 140.43 56.34 C 184.59 25.59 236.47 6.29 289.88 0.00 M 288.37 63.23 C 286.09 72.99 284.32 82.94 284.34 92.99 C 285.20 119.35 292.82 144.93 301.63 169.60 C 311.04 196.73 323.08 222.85 335.47 248.72 C 328.17 240.36 322.48 230.77 316.83 221.26 C 309.11 207.66 301.71 193.85 295.58 179.44 C 284.26 153.17 274.48 125.82 271.21 97.25 C 270.22 90.08 270.76 82.84 270.52 75.63 C 265.71 82.32 262.78 90.12 260.50 97.98 C 255.20 116.74 254.67 136.42 255.40 155.77 C 257.76 182.69 267.92 208.07 278.57 232.63 C 287.85 253.04 298.36 272.86 309.76 292.16 C 303.22 285.01 297.19 277.40 291.47 269.58 C 278.52 252.31 266.70 234.10 257.39 214.60 C 248.64 197.42 242.45 178.97 239.34 159.94 C 233.99 173.66 231.14 188.29 230.26 202.97 C 231.00 215.76 231.78 228.75 235.76 241.03 C 238.73 249.33 242.69 257.24 247.11 264.86 C 260.03 287.34 274.41 308.93 287.96 331.01 C 295.51 343.29 304.01 354.94 312.26 366.75 C 317.06 373.78 322.07 380.81 325.17 388.80 C 327.08 393.59 327.70 399.01 326.45 404.04 C 323.82 411.93 316.83 417.13 310.47 421.94 C 317.26 424.89 324.61 426.49 331.99 426.96 C 348.33 427.88 364.51 421.36 376.80 410.80 C 382.26 405.54 387.77 400.20 391.83 393.74 C 404.22 375.79 409.42 353.74 409.70 332.16 C 410.65 306.26 404.13 280.60 394.03 256.90 C 377.80 218.64 355.18 183.62 336.18 146.76 C 319.49 117.21 308.76 84.22 305.62 50.40 C 304.87 41.06 307.60 31.98 310.12 23.10 C 298.14 33.23 292.25 48.45 288.37 63.23 M 340.78 69.07 C 335.01 88.72 337.66 109.98 345.18 128.79 C 351.45 147.92 360.16 166.20 370.75 183.31 C 385.88 207.68 400.85 232.20 413.96 257.73 C 416.12 261.13 417.08 265.19 419.62 268.36 C 415.05 248.62 408.51 229.35 401.29 210.43 C 389.43 180.70 375.92 151.58 366.14 121.05 C 360.52 103.28 358.14 84.56 358.49 65.96 C 358.25 53.54 360.16 41.00 365.04 29.53 C 353.40 40.04 345.27 54.12 340.78 69.07 M 455.45 263.80 C 445.25 268.47 436.11 275.05 427.04 281.58 C 428.97 285.70 430.99 289.78 432.54 294.06 C 438.90 311.05 443.99 328.82 444.59 347.05 C 456.53 325.51 467.64 303.48 480.39 282.38 C 484.10 276.12 488.74 268.69 496.74 267.94 C 494.58 265.36 492.28 262.56 488.95 261.52 C 484.53 260.46 479.98 261.56 476.10 263.73 C 473.24 262.27 470.28 260.68 466.99 260.71 C 462.96 260.76 459.13 262.29 455.45 263.80 M 407.23 265.15 C 412.51 283.30 415.75 302.05 416.68 320.94 C 417.64 340.72 415.37 360.83 408.66 379.54 C 402.78 396.97 392.55 413.66 377.01 424.02 C 362.57 433.11 345.46 437.32 328.57 438.44 C 316.63 438.82 305.06 435.19 294.10 430.81 C 278.52 424.62 261.63 420.49 244.78 422.37 C 232.20 424.13 219.61 430.17 212.07 440.64 C 222.15 440.37 234.42 441.62 240.40 450.94 C 224.72 451.08 208.81 455.02 195.41 463.28 C 181.68 471.49 171.51 484.99 166.63 500.16 C 177.00 497.81 185.37 490.25 195.88 488.28 C 199.66 487.58 203.54 487.89 207.33 488.44 C 187.89 499.40 169.32 515.62 163.52 538.00 C 158.62 556.54 162.80 576.82 172.80 592.96 C 175.03 581.47 180.32 570.77 187.29 561.43 C 195.89 550.33 206.74 541.11 218.54 533.58 C 237.85 522.02 258.52 512.98 279.23 504.27 C 296.19 497.22 313.60 491.32 330.68 484.60 C 352.14 475.78 373.06 464.95 390.87 449.91 C 403.61 439.57 414.44 426.87 422.49 412.57 C 432.37 395.48 436.41 375.57 436.66 355.98 C 435.76 323.73 425.10 291.92 407.23 265.15 Z" />
</g>
<g id="#ffffffff">
<path fill="#ffffff" opacity="1.00" d=" M 288.37 63.23 C 292.25 48.45 298.14 33.23 310.12 23.10 C 307.60 31.98 304.87 41.06 305.62 50.40 C 308.76 84.22 319.49 117.21 336.18 146.76 C 355.18 183.62 377.80 218.64 394.03 256.90 C 404.13 280.60 410.65 306.26 409.70 332.16 C 409.42 353.74 404.22 375.79 391.83 393.74 C 387.77 400.20 382.26 405.54 376.80 410.80 C 364.51 421.36 348.33 427.88 331.99 426.96 C 324.61 426.49 317.26 424.89 310.47 421.94 C 316.83 417.13 323.82 411.93 326.45 404.04 C 327.70 399.01 327.08 393.59 325.17 388.80 C 322.07 380.81 317.06 373.78 312.26 366.75 C 304.01 354.94 295.51 343.29 287.96 331.01 C 274.41 308.93 260.03 287.34 247.11 264.86 C 242.69 257.24 238.73 249.33 235.76 241.03 C 231.78 228.75 231.00 215.76 230.26 202.97 C 231.14 188.29 233.99 173.66 239.34 159.94 C 242.45 178.97 248.64 197.42 257.39 214.60 C 266.70 234.10 278.52 252.31 291.47 269.58 C 297.19 277.40 303.22 285.01 309.76 292.16 C 298.36 272.86 287.85 253.04 278.57 232.63 C 267.92 208.07 257.76 182.69 255.40 155.77 C 254.67 136.42 255.20 116.74 260.50 97.98 C 262.78 90.12 265.71 82.32 270.52 75.63 C 270.76 82.84 270.22 90.08 271.21 97.25 C 274.48 125.82 284.26 153.17 295.58 179.44 C 301.71 193.85 309.11 207.66 316.83 221.26 C 322.48 230.77 328.17 240.36 335.47 248.72 C 323.08 222.85 311.04 196.73 301.63 169.60 C 292.82 144.93 285.20 119.35 284.34 92.99 C 284.32 82.94 286.09 72.99 288.37 63.23 Z" />
<path fill="#ffffff" opacity="1.00" d=" M 340.78 69.07 C 345.27 54.12 353.40 40.04 365.04 29.53 C 360.16 41.00 358.25 53.54 358.49 65.96 C 358.14 84.56 360.52 103.28 366.14 121.05 C 375.92 151.58 389.43 180.70 401.29 210.43 C 408.51 229.35 415.05 248.62 419.62 268.36 C 417.08 265.19 416.12 261.13 413.96 257.73 C 400.85 232.20 385.88 207.68 370.75 183.31 C 360.16 166.20 351.45 147.92 345.18 128.79 C 337.66 109.98 335.01 88.72 340.78 69.07 Z" />
<path fill="#ffffff" opacity="1.00" d=" M 455.45 263.80 C 459.13 262.29 462.96 260.76 466.99 260.71 C 470.28 260.68 473.24 262.27 476.10 263.73 C 479.98 261.56 484.53 260.46 488.95 261.52 C 492.28 262.56 494.58 265.36 496.74 267.94 C 488.74 268.69 484.10 276.12 480.39 282.38 C 467.64 303.48 456.53 325.51 444.59 347.05 C 443.99 328.82 438.90 311.05 432.54 294.06 C 430.99 289.78 428.97 285.70 427.04 281.58 C 436.11 275.05 445.25 268.47 455.45 263.80 Z" />
<path fill="#ffffff" opacity="1.00" d=" M 407.23 265.15 C 425.10 291.92 435.76 323.73 436.66 355.98 C 436.41 375.57 432.37 395.48 422.49 412.57 C 414.44 426.87 403.61 439.57 390.87 449.91 C 373.06 464.95 352.14 475.78 330.68 484.60 C 313.60 491.32 296.19 497.22 279.23 504.27 C 258.52 512.98 237.85 522.02 218.54 533.58 C 206.74 541.11 195.89 550.33 187.29 561.43 C 180.32 570.77 175.03 581.47 172.80 592.96 C 162.80 576.82 158.62 556.54 163.52 538.00 C 169.32 515.62 187.89 499.40 207.33 488.44 C 203.54 487.89 199.66 487.58 195.88 488.28 C 185.37 490.25 177.00 497.81 166.63 500.16 C 171.51 484.99 181.68 471.49 195.41 463.28 C 208.81 455.02 224.72 451.08 240.40 450.94 C 234.42 441.62 222.15 440.37 212.07 440.64 C 219.61 430.17 232.20 424.13 244.78 422.37 C 261.63 420.49 278.52 424.62 294.10 430.81 C 305.06 435.19 316.63 438.82 328.57 438.44 C 345.46 437.32 362.57 433.11 377.01 424.02 C 392.55 413.66 402.78 396.97 408.66 379.54 C 415.37 360.83 417.64 340.72 416.68 320.94 C 415.75 302.05 412.51 283.30 407.23 265.15 Z" />
</g>
</svg>
