<svg xmlns="http://www.w3.org/2000/svg" xmlns:xlink="http://www.w3.org/1999/xlink" width="1080" zoomAndPan="magnify" viewBox="0 0 810 809.999993" height="1080" preserveAspectRatio="xMidYMid meet" version="1.2"><g id="a68633b537"><path style=" stroke:none;fill-rule:nonzero;fill:#fefefe;fill-opacity:1;" d="M 349.109375 230.851562 L 460.890625 230.851562 L 461.699219 257.578125 C 461.890625 262.375 462.089844 267.167969 462.316406 271.960938 L 462.492188 275.726562 C 462.648438 279.109375 462.804688 282.492188 462.964844 285.871094 C 463.140625 289.585938 463.3125 293.300781 463.484375 297.011719 C 463.835938 304.558594 464.191406 312.101562 464.546875 319.640625 C 464.972656 328.671875 465.394531 337.703125 465.816406 346.734375 C 465.839844 347.269531 465.863281 347.804688 465.890625 348.355469 C 467.277344 377.84375 468.660156 407.320312 470.039062 436.785156 C 470.53125 447.289062 471.023438 457.792969 471.511719 468.296875 C 472.921875 498.46875 474.273438 528.640625 475.628906 558.816406 C 476.882812 586.605469 478.132812 614.390625 479.429688 642.175781 L 479.703125 648.078125 C 480.40625 663.160156 481.117188 678.242188 481.832031 693.328125 C 482.3125 703.441406 482.789062 713.554688 483.265625 723.667969 C 483.570312 730.171875 483.878906 736.675781 484.191406 743.179688 C 484.429688 748.1875 484.667969 753.199219 484.902344 758.207031 C 485 760.273438 485.097656 762.34375 485.199219 764.410156 C 485.335938 767.285156 485.472656 770.160156 485.605469 773.035156 L 485.726562 775.5 C 486.078125 783.238281 486 790.878906 486 798.660156 L 435.78125 798.660156 C 435.207031 772.910156 434.773438 747.167969 434.539062 721.414062 L 434.460938 713.355469 C 434.207031 686.710938 434.03125 660.066406 434.160156 633.421875 L 432.019531 633.425781 C 425.367188 633.441406 418.714844 633.453125 412.066406 633.460938 C 408.644531 633.464844 405.226562 633.472656 401.808594 633.480469 C 398.507812 633.488281 395.210938 633.496094 391.914062 633.496094 C 390.652344 633.5 389.390625 633.5 388.132812 633.503906 C 386.371094 633.511719 384.609375 633.511719 382.847656 633.511719 L 379.808594 633.515625 C 377.460938 633.421875 377.460938 633.421875 375.839844 632.609375 L 375.816406 634.769531 C 375.632812 652.234375 375.441406 669.695312 375.25 687.15625 C 375.152344 695.601562 375.0625 704.046875 374.972656 712.488281 C 374.894531 719.863281 374.816406 727.234375 374.730469 734.605469 C 374.6875 738.5 374.644531 742.390625 374.605469 746.285156 C 374.566406 749.972656 374.527344 753.660156 374.484375 757.34375 C 374.46875 758.675781 374.453125 760.007812 374.441406 761.339844 C 374.320312 773.792969 373.839844 786.207031 373.410156 798.660156 L 323.191406 798.660156 C 323.191406 791.792969 323.222656 785.015625 323.558594 778.171875 L 323.679688 775.605469 C 323.8125 772.804688 323.945312 770.007812 324.082031 767.207031 L 324.371094 761.140625 C 324.574219 756.804688 324.78125 752.464844 324.988281 748.128906 C 325.433594 738.824219 325.878906 729.523438 326.316406 720.222656 L 326.398438 718.421875 L 327.007812 705.644531 C 328.160156 681.324219 329.300781 657 330.425781 632.679688 L 330.890625 622.714844 C 332.957031 578.253906 334.988281 533.789062 336.980469 489.324219 L 338.253906 460.964844 C 339.953125 423.082031 341.726562 385.203125 343.527344 347.324219 C 344.152344 334.164062 344.773438 321.003906 345.390625 307.839844 L 346.214844 290.199219 L 346.3125 288.160156 L 346.480469 284.511719 C 347.316406 266.621094 348.214844 248.738281 349.109375 230.851562 "/><path style=" stroke:none;fill-rule:nonzero;fill:#ffffff;fill-opacity:1;" d="M 503.011719 400.140625 L 615.601562 400.949219 C 614.671875 415.832031 614.671875 415.832031 614.082031 421.050781 L 613.882812 422.902344 C 613.664062 424.902344 613.445312 426.898438 613.222656 428.890625 L 612.75 433.253906 C 612.410156 436.363281 612.070312 439.472656 611.730469 442.582031 C 610.804688 451.054688 609.886719 459.527344 608.972656 468 L 608.683594 470.65625 C 606.6875 489.125 604.78125 507.601562 602.890625 526.082031 C 600.199219 552.402344 597.4375 578.714844 594.589844 605.019531 C 591.523438 633.40625 588.523438 661.796875 585.597656 690.199219 L 583.378906 711.652344 C 581.59375 728.914062 579.78125 746.171875 577.945312 763.429688 C 577.355469 768.984375 576.761719 774.539062 576.164062 780.09375 C 575.917969 782.398438 575.671875 784.703125 575.433594 787.007812 L 575.003906 791.039062 L 574.816406 792.851562 C 574.382812 796.855469 574.382812 796.855469 573.480469 798.660156 L 503.011719 798.660156 Z M 503.011719 400.140625 "/><path style=" stroke:none;fill-rule:nonzero;fill:#fefefe;fill-opacity:1;" d="M 306.179688 400.140625 L 306.179688 798.660156 L 235.710938 798.660156 C 234.238281 786.882812 232.789062 775.121094 231.527344 763.320312 L 231.054688 758.921875 C 230.632812 755.011719 230.210938 751.101562 229.796875 747.191406 L 228.996094 739.738281 C 226.34375 714.964844 223.742188 690.183594 221.195312 665.398438 C 218.546875 639.613281 215.824219 613.835938 213.082031 588.058594 L 212.769531 585.125 L 210.589844 564.664062 L 210.28125 561.757812 C 207.976562 540.09375 205.691406 518.425781 203.421875 496.757812 C 200.878906 472.515625 198.300781 448.28125 195.683594 424.046875 C 195.425781 421.625 195.164062 419.203125 194.90625 416.78125 C 194.785156 415.667969 194.664062 414.554688 194.542969 413.441406 C 194.378906 411.933594 194.21875 410.421875 194.054688 408.914062 L 193.78125 406.367188 C 193.589844 404.191406 193.589844 404.191406 193.589844 400.949219 C 231.089844 399.449219 268.648438 400.140625 306.179688 400.140625 M 93.148438 544.320312 L 193.589844 544.320312 L 193.589844 798.660156 L 143.371094 798.660156 C 142.421875 793.859375 141.472656 789.0625 140.496094 784.117188 C 130.417969 733.144531 120.253906 682.191406 110.058594 631.242188 L 109.5625 628.765625 C 105.828125 610.175781 102.109375 591.585938 98.402344 572.996094 C 97.375 567.851562 96.339844 562.707031 95.292969 557.5625 L 94.820312 555.226562 C 94.546875 553.875 94.269531 552.527344 93.992188 551.175781 C 93.519531 548.84375 93.148438 546.710938 93.148438 544.320312 "/><path style=" stroke:none;fill-rule:nonzero;fill:#ffffff;fill-opacity:1;" d="M 616.410156 544.320312 L 716.039062 544.320312 C 714.179688 558.277344 714.179688 558.277344 713.003906 564 L 712.605469 566.011719 C 712.167969 568.183594 711.730469 570.355469 711.289062 572.527344 L 710.339844 577.253906 C 709.660156 580.625 708.984375 583.996094 708.300781 587.367188 C 707.210938 592.769531 706.125 598.171875 705.039062 603.574219 C 703.90625 609.21875 702.769531 614.867188 701.632812 620.511719 C 698.777344 634.6875 695.9375 648.867188 693.109375 663.046875 L 691.609375 670.554688 C 683.085938 713.269531 674.460938 755.964844 665.820312 798.660156 L 616.410156 798.660156 Z M 422.011719 134.460938 C 429.335938 137.773438 434.9375 142.257812 439.75 148.660156 C 443.710938 154.488281 446.652344 160.226562 447.3125 167.320312 C 447.84375 175.976562 448.011719 184.277344 444.265625 192.253906 L 443.070312 194.398438 L 441.976562 196.394531 C 438 202.898438 432.667969 208.101562 426.210938 212.117188 C 418.832031 216.128906 411.675781 217.460938 403.328125 217.363281 C 395.515625 217.09375 388.796875 215.183594 382.050781 211.242188 C 374.832031 206.390625 369.769531 200.691406 365.792969 193.015625 C 362.484375 185.851562 361.027344 178.46875 361.386719 170.566406 C 362.40625 162.375 365.277344 155.238281 369.917969 148.433594 C 374.609375 142.320312 380.433594 137.730469 387.425781 134.484375 C 399.121094 130.011719 410.320312 130.28125 422.011719 134.460938 M 575.359375 312.304688 C 581.46875 315.589844 586.394531 320 590.488281 325.621094 C 594.753906 333.410156 595.652344 339.953125 595.519531 348.714844 C 595.304688 354.996094 593.5625 359.613281 590.390625 365.007812 C 586.527344 370.738281 581.976562 374.941406 575.859375 378.167969 C 568.550781 381.492188 562.03125 382.046875 554.039062 381.511719 C 547.761719 380.664062 542.683594 378.625 537.46875 375.039062 C 532.199219 370.867188 528.601562 366.125 525.695312 360.089844 C 523.765625 355.191406 522.964844 350.828125 523.007812 345.617188 C 523.011719 345.011719 523.015625 344.40625 523.019531 343.78125 C 523.164062 337.199219 524.667969 332.085938 527.867188 326.328125 C 531.46875 320.664062 536.019531 316.066406 541.832031 312.683594 C 552.507812 307.382812 564.5625 307.277344 575.359375 312.304688 "/><path style=" stroke:none;fill-rule:nonzero;fill:#fefefe;fill-opacity:1;" d="M 264.058594 311.039062 C 266.96875 312.410156 269.554688 314.027344 272.160156 315.898438 L 273.71875 316.980469 C 278.609375 320.734375 281.785156 326 284.367188 331.523438 C 286.792969 338.003906 287.152344 344.882812 286.183594 351.691406 C 284.921875 358.105469 282.519531 363.457031 278.433594 368.570312 C 273.660156 373.972656 269.011719 377.332031 262.273438 379.964844 C 255.464844 382.179688 247.859375 382.261719 240.824219 381.003906 C 234.371094 379.261719 228.96875 375.816406 224.117188 371.285156 C 219.421875 366.328125 216.375 360.574219 214.347656 354.070312 C 213.019531 347.402344 213.292969 340.519531 215.054688 333.972656 C 217.304688 327.453125 221.183594 321.992188 226.191406 317.265625 C 231.707031 312.933594 238.269531 309.875 245.199219 308.808594 C 251.824219 308.097656 257.703125 309 264.058594 311.039062 "/><path style=" stroke:none;fill-rule:nonzero;fill:#ffffff;fill-opacity:1;" d="M 672.300781 464.128906 C 678.308594 465.421875 683.820312 468.25 688.5 472.230469 C 692.964844 476.914062 695.933594 482.15625 697.882812 488.308594 C 698.960938 493.914062 698.777344 500.183594 697.308594 505.695312 C 695.230469 511.617188 691.5 516.796875 686.980469 521.125 C 682.515625 524.5625 677.105469 527.335938 671.488281 528.121094 C 664.953125 528.566406 658.910156 528.371094 652.859375 525.691406 C 647.582031 522.855469 642.796875 519.074219 639.089844 514.351562 C 635.4375 507.816406 633.988281 502.308594 633.972656 494.847656 C 634.089844 488.902344 635.734375 484.296875 638.566406 479.144531 C 641.105469 475.054688 643.949219 471.632812 648 468.988281 C 656.164062 464.765625 663.183594 463.3125 672.300781 464.128906 M 154.660156 465.394531 C 160.722656 467.980469 165.734375 472.128906 169.871094 477.230469 C 172.292969 480.683594 174.0625 484.304688 174.960938 488.429688 C 175.519531 494.875 175.964844 502.246094 173.695312 508.375 C 170.761719 514.285156 166.691406 519.246094 161.285156 523.03125 C 155.613281 526.464844 150.347656 528.234375 143.726562 528.371094 C 137.289062 528.3125 132.4375 526.859375 126.820312 523.8125 C 122.402344 521.082031 118.726562 517.871094 115.828125 513.539062 C 112.632812 507.171875 110.648438 501.152344 110.746094 494.003906 C 111.300781 488.21875 113.015625 482.425781 116.386719 477.648438 C 120.816406 472.382812 125.582031 468.105469 131.996094 465.5 C 139 463.128906 147.617188 463.0625 154.660156 465.394531 M 741.707031 183.109375 C 746.601562 185.015625 750.601562 188.105469 753.96875 192.113281 C 757.113281 196.527344 758.609375 200.507812 759.144531 205.859375 C 759.355469 210.691406 758.449219 215.070312 756.539062 219.511719 C 753.875 224.054688 750.3125 227.816406 746.011719 230.851562 C 741.550781 233.289062 737.273438 234.089844 732.238281 234.089844 C 726.96875 233.578125 722.066406 232.214844 717.660156 229.230469 C 713.378906 225.773438 710.550781 222.253906 708.5 217.144531 C 706.820312 212.097656 706.601562 207.304688 707.476562 202.046875 C 708.636719 197.480469 710.566406 193.992188 713.589844 190.386719 C 717.003906 186.9375 720.738281 184.609375 725.203125 182.757812 C 730.710938 181.824219 736.285156 181.574219 741.707031 183.109375 M 724.140625 194.398438 C 721.371094 196.539062 719.742188 198.816406 718.167969 201.890625 C 717.101562 204.511719 716.628906 206.609375 716.800781 209.4375 C 717.378906 212.75 718.625 215.347656 720.523438 218.109375 C 722.273438 220.171875 724.207031 221.464844 726.570312 222.75 C 730.109375 223.929688 733.402344 223.953125 737.101562 223.558594 C 740.585938 222.464844 742.992188 220.941406 745.503906 218.296875 C 747.1875 215.703125 748.347656 213.875 748.683594 210.757812 C 748.699219 207.152344 748.667969 204.03125 747.578125 200.578125 C 744.90625 196.953125 741.980469 194.328125 737.859375 192.476562 C 732.730469 191.386719 728.769531 192.03125 724.140625 194.398438 "/><path style=" stroke:none;fill-rule:nonzero;fill:#fefefe;fill-opacity:1;" d="M 379.890625 12.960938 C 384.894531 13.996094 388.46875 16.371094 392.34375 19.640625 C 396.089844 23.214844 398.246094 26.492188 399.796875 31.464844 C 400.8125 36.605469 400.730469 42.464844 399.382812 47.539062 C 397.550781 52.222656 394.058594 55.757812 390.421875 59.128906 C 387.382812 61.457031 384.5 63.304688 380.699219 63.988281 C 374.289062 64.449219 368.160156 64.628906 362.238281 61.820312 C 357.601562 59.050781 354.273438 55.945312 351.589844 51.234375 C 348.6875 45.605469 348.6875 40.183594 348.976562 33.984375 C 349.289062 30.3125 350.355469 27.378906 352.351562 24.300781 C 356.28125 19.429688 360.351562 16.15625 366.121094 13.769531 C 370.574219 12.285156 375.25 12.621094 379.890625 12.960938 M 365.308594 25.109375 C 362.832031 27.328125 361.03125 29.804688 359.335938 32.652344 C 358.535156 36.101562 358.484375 39.410156 358.828125 42.929688 C 359.699219 45.695312 360.742188 47.273438 362.777344 49.316406 C 366.121094 52.371094 366.121094 52.371094 370.171875 54.269531 C 373.550781 54.636719 376.824219 54.707031 380.097656 53.714844 C 382.867188 52.449219 385.035156 50.964844 387.078125 48.703125 C 389.40625 45.277344 390.300781 42.632812 390.671875 38.527344 C 390.308594 34.359375 388.816406 31.339844 386.671875 27.792969 C 383.953125 25.144531 381.0625 23.820312 377.460938 22.679688 C 373.035156 22.136719 369.164062 22.882812 365.308594 25.109375 M 235.203125 54.21875 C 240.070312 56.019531 243.640625 59.347656 247.050781 63.179688 C 250.535156 68.09375 251.875 73.363281 252.589844 79.289062 C 252.773438 82.867188 252.523438 85.800781 251.101562 89.101562 C 248.113281 94.238281 243.878906 98.453125 238.785156 101.511719 C 236.902344 102.507812 235 103.46875 233.078125 104.390625 L 231.109375 105.375 C 226.320312 107.730469 226.320312 107.730469 223.558594 107.730469 C 209.851562 80.464844 209.851562 80.464844 205.285156 70.875 L 204.394531 69.019531 C 202.5 65 202.5 65 202.5 63.179688 C 224.738281 51.550781 224.738281 51.550781 235.203125 54.21875 M 215.460938 68.039062 C 219.453125 77.144531 223.511719 86.121094 228.421875 94.769531 C 232.632812 93.183594 236.304688 91.191406 239.761719 88.289062 C 241.675781 85.671875 242.144531 83.046875 242.492188 79.835938 C 242.128906 76.382812 241.382812 73.542969 239.761719 70.46875 C 237.40625 67.679688 235.035156 65.414062 231.660156 63.988281 C 225.332031 62.960938 220.847656 64.832031 215.460938 68.039062 "/><path style=" stroke:none;fill-rule:nonzero;fill:#ffffff;fill-opacity:1;" d="M 157.558594 106.789062 C 162.097656 108.910156 165.433594 112.230469 168.335938 116.261719 C 171.207031 120.871094 173.335938 125.132812 173.644531 130.613281 C 173.507812 135.683594 171.632812 139.917969 169.117188 144.257812 C 165.722656 149.214844 161.039062 152.683594 156.328125 156.328125 L 154.183594 158.214844 L 152.28125 159.570312 L 149.851562 158.761719 C 148.445312 157.117188 147.09375 155.429688 145.800781 153.699219 C 142.785156 149.765625 139.714844 145.914062 136.484375 142.15625 C 130.984375 135.730469 125.734375 129.097656 120.691406 122.308594 C 121.964844 118.921875 124.464844 116.925781 127.171875 114.667969 L 128.589844 113.472656 C 137.351562 106.304688 146.519531 103.105469 157.558594 106.789062 M 136.808594 119.3125 C 135.230469 120.582031 135.230469 120.582031 134.402344 122.175781 L 134.460938 123.929688 C 135.632812 125.605469 136.914062 127.191406 138.308594 128.6875 C 139.128906 129.617188 139.949219 130.546875 140.765625 131.476562 L 142.058594 132.941406 C 144.253906 135.488281 146.320312 138.132812 148.382812 140.789062 L 149.5625 142.300781 C 150.46875 143.464844 151.375 144.632812 152.28125 145.800781 C 155.1875 144.589844 156.851562 142.941406 158.914062 140.585938 L 160.617188 138.664062 C 162.082031 136.78125 162.679688 135.261719 163.058594 132.914062 C 163.234375 129.976562 163.046875 127.75 161.925781 125.003906 C 160.175781 121.863281 158.375 118.996094 155.367188 116.945312 C 152.234375 115.507812 149.105469 115.285156 145.6875 115.40625 C 142.285156 116.027344 139.71875 117.492188 136.808594 119.3125 M 473.039062 18.628906 C 482.496094 19.117188 491.164062 20.484375 499.433594 25.335938 C 502.503906 27.523438 504.511719 29.875 506.25 33.210938 C 507.972656 37.339844 509.125 41.550781 508.90625 46.070312 C 508.105469 52.128906 506.402344 57.398438 502.789062 62.363281 C 500.058594 65.539062 497.15625 67.910156 493.273438 69.535156 C 483.914062 72.171875 473.378906 69.289062 464.128906 67.230469 C 463.320312 64.800781 463.320312 64.800781 463.519531 63.042969 L 463.945312 60.984375 L 464.421875 58.640625 L 464.957031 56.109375 L 465.492188 53.496094 C 466.0625 50.730469 466.640625 47.96875 467.21875 45.207031 L 468.359375 39.667969 C 471.367188 25.113281 471.367188 25.113281 473.039062 18.628906 M 480.328125 29.96875 L 479.984375 31.699219 L 474.660156 58.320312 C 478.390625 59.820312 481.671875 61.015625 485.746094 60.699219 C 488.203125 60.296875 489.648438 59.734375 491.921875 58.574219 C 494.300781 56.527344 495.78125 54.554688 497.339844 51.839844 C 498.59375 48.078125 498.53125 44.429688 498.148438 40.5 C 497.476562 38.1875 496.539062 36.597656 494.910156 34.828125 C 492.886719 33.039062 490.914062 31.832031 488.429688 30.78125 C 486.3125 30.402344 486.3125 30.402344 484.160156 30.265625 L 481.976562 30.085938 Z M 703.078125 134.460938 L 703.890625 134.460938 C 703.910156 139.332031 703.925781 144.203125 703.933594 149.074219 C 703.9375 150.730469 703.945312 152.386719 703.949219 154.042969 C 703.960938 156.425781 703.964844 158.8125 703.96875 161.195312 L 703.980469 163.429688 C 703.980469 167.097656 703.832031 170.539062 703.078125 174.148438 C 707.457031 170.90625 711.4375 167.519531 715.238281 163.621094 C 717.792969 161.050781 720.429688 158.507812 723.328125 156.328125 L 724.949219 156.328125 C 726.347656 157.746094 726.347656 157.746094 727.886719 159.570312 L 729.4375 161.390625 L 730.621094 162.808594 C 727.078125 167.097656 723.304688 170.929688 719.230469 174.707031 L 717.402344 176.414062 C 715.601562 178.089844 713.796875 179.765625 711.988281 181.441406 L 709.007812 184.214844 C 697.53125 194.863281 697.53125 194.863281 694.171875 197.640625 L 693.359375 197.640625 C 693.339844 193.695312 693.324219 189.75 693.316406 185.804688 C 693.3125 184.46875 693.304688 183.132812 693.300781 181.792969 C 693.257812 173.53125 693.425781 165.378906 694.171875 157.140625 C 690.96875 159.886719 687.8125 162.632812 684.855469 165.644531 C 682.828125 167.703125 680.75 169.710938 678.628906 171.667969 L 677.074219 173.109375 L 675.539062 174.148438 L 672.300781 174.148438 C 670.921875 173.085938 670.921875 173.085938 669.667969 171.71875 L 668.390625 170.355469 L 667.441406 169.289062 C 668.789062 165.78125 671.390625 163.511719 674.019531 160.9375 L 675.355469 159.601562 C 678.265625 156.726562 681.285156 154.019531 684.378906 151.339844 C 688.007812 148.140625 691.476562 144.769531 694.976562 141.433594 L 696.738281 139.761719 L 698.3125 138.265625 C 699.824219 136.898438 701.414062 135.632812 703.078125 134.460938 "/><path style=" stroke:none;fill-rule:nonzero;fill:#fefefe;fill-opacity:1;" d="M 333.71875 17.820312 L 335.339844 18.628906 C 336.019531 20.925781 336.585938 23.183594 337.113281 25.515625 L 337.621094 27.726562 C 338.222656 30.363281 338.808594 33 339.390625 35.640625 L 339.75 37.273438 C 340.539062 40.835938 341.320312 44.398438 342.089844 47.964844 C 342.347656 49.160156 342.605469 50.355469 342.867188 51.546875 C 343.238281 53.246094 343.601562 54.945312 343.960938 56.648438 L 344.605469 59.632812 C 345.035156 62.226562 345.148438 64.609375 345.058594 67.230469 C 340.003906 64.496094 335.117188 61.570312 330.277344 58.472656 L 326.25 55.914062 C 325.269531 55.289062 325.269531 55.289062 324.269531 54.65625 C 320.15625 52.054688 316.003906 49.515625 311.851562 46.980469 C 312.222656 52.851562 313.332031 58.324219 314.789062 64.007812 C 315.546875 67.035156 316.089844 69.773438 315.898438 72.898438 C 312.53125 73.957031 309.703125 74.617188 306.179688 74.519531 L 302.1875 56.355469 C 301.382812 52.683594 300.578125 49.015625 299.773438 45.34375 C 299.226562 42.839844 298.671875 40.339844 298.109375 37.839844 L 297.4375 34.8125 L 296.859375 32.238281 C 296.480469 30.078125 296.382812 28.109375 296.460938 25.921875 C 304.238281 29.472656 311.226562 33.921875 318.339844 38.628906 C 320.605469 40.113281 322.878906 41.582031 325.164062 43.03125 L 327.238281 44.355469 C 328.832031 45.378906 328.832031 45.378906 330.480469 46.171875 C 330.332031 45.476562 330.183594 44.78125 330.035156 44.066406 C 329.488281 41.480469 328.945312 38.898438 328.402344 36.3125 C 328.167969 35.195312 327.933594 34.078125 327.695312 32.960938 C 327.355469 31.351562 327.019531 29.742188 326.683594 28.132812 L 326.066406 25.203125 C 325.621094 22.679688 325.621094 22.679688 325.621094 19.441406 C 326.933594 19.148438 328.25 18.859375 329.570312 18.578125 L 331.789062 18.09375 Z M 615.601562 68.851562 C 619.441406 70.195312 622.742188 72.226562 626.179688 74.367188 L 627.917969 75.414062 C 631.207031 77.457031 633.664062 79.34375 635.851562 82.621094 C 637.433594 85.628906 638.210938 88.566406 638.636719 91.933594 C 638.179688 95.566406 637.097656 98.234375 635.039062 101.25 C 633.023438 103.4375 630.824219 104.976562 628.15625 106.3125 C 626.128906 106.921875 626.128906 106.921875 621.269531 107.730469 L 622.078125 130.410156 C 618.507812 128.980469 615.609375 127.550781 612.359375 125.550781 C 611.167969 123.164062 611.355469 120.71875 611.292969 118.101562 L 611.242188 116.367188 C 611.191406 114.53125 611.140625 112.699219 611.09375 110.867188 L 610.988281 107.144531 C 610.902344 104.097656 610.820312 101.054688 610.738281 98.011719 C 608.769531 100.425781 606.917969 102.84375 605.234375 105.46875 L 604.046875 107.308594 C 603.652344 107.933594 603.253906 108.554688 602.84375 109.199219 L 601.597656 111.132812 C 600.59375 112.695312 599.589844 114.261719 598.589844 115.828125 C 595.378906 114.632812 593.101562 113.207031 590.488281 110.96875 C 591.902344 106.890625 594.136719 103.351562 596.363281 99.679688 L 597.640625 97.558594 C 602.300781 89.871094 607.140625 82.296875 612.007812 74.738281 C 613.238281 72.792969 614.425781 70.828125 615.601562 68.851562 M 618.839844 82.621094 C 617.890625 84.050781 616.945312 85.484375 616.003906 86.921875 L 614.410156 89.34375 C 612.96875 91.464844 612.96875 91.464844 613.171875 93.960938 C 616.179688 95.671875 618.835938 97.074219 622.28125 97.605469 C 624.574219 97.339844 624.574219 97.339844 626.433594 95.933594 C 627.945312 93.957031 627.945312 93.957031 628.207031 91.175781 C 627.96875 88.207031 627.96875 88.207031 626.027344 86.011719 C 623.636719 84.191406 621.683594 83.492188 618.839844 82.621094 M 110.160156 130.410156 L 111.78125 130.410156 C 113.183594 131.726562 114.503906 133.070312 115.828125 134.460938 C 116.90625 135.550781 117.984375 136.640625 119.066406 137.726562 L 120.84375 139.511719 L 122.664062 141.34375 L 124.476562 143.175781 C 127.023438 145.738281 129.550781 148.253906 132.347656 150.539062 C 134.773438 152.539062 136.167969 154.402344 137.699219 157.140625 C 139.117188 161.035156 139.675781 164.347656 139.320312 168.480469 C 138.480469 172.707031 136.988281 175.96875 134.257812 179.3125 C 132.179688 181.480469 130.1875 183.351562 127.289062 184.355469 C 122.652344 185.222656 117.886719 185.316406 113.269531 184.292969 C 105.027344 180.84375 97.875 171.640625 91.71875 165.40625 C 89.332031 163.050781 86.824219 160.894531 84.238281 158.761719 C 85.71875 155.582031 87.628906 153.300781 89.910156 150.660156 C 92.539062 151.808594 94.253906 153.203125 96.25 155.25 L 98.011719 157.039062 L 99.832031 158.910156 C 107.777344 167.667969 107.777344 167.667969 117.449219 174.148438 C 120.285156 174.621094 120.285156 174.621094 123.121094 174.148438 C 125.460938 172.738281 125.460938 172.738281 127.171875 170.910156 C 128.339844 168.574219 128.394531 166.550781 128.347656 163.957031 C 128.089844 161.988281 128.089844 161.988281 127.054688 160.421875 C 125.558594 158.683594 123.964844 157.109375 122.308594 155.519531 C 121.535156 154.734375 120.765625 153.945312 119.996094 153.152344 C 115.960938 149.027344 111.878906 145.023438 107.421875 141.34375 C 105.957031 139.988281 104.835938 138.519531 103.679688 136.890625 C 104.722656 135.804688 105.769531 134.726562 106.820312 133.648438 L 108.585938 131.828125 Z M 655.289062 94.769531 C 658.789062 95.933594 661.074219 97.675781 663.847656 100.085938 C 668.664062 104.21875 673.664062 108.027344 678.78125 111.78125 C 677.582031 114.992188 676.160156 117.269531 673.921875 119.878906 C 669.945312 118.617188 667.132812 116.289062 663.949219 113.703125 L 662.363281 112.4375 C 661.082031 111.414062 659.804688 110.382812 658.53125 109.351562 C 656.558594 110.265625 655.347656 110.90625 653.871094 112.539062 L 652.859375 114.210938 L 652.859375 116.640625 C 653.988281 117.804688 653.988281 117.804688 655.519531 118.828125 L 657.179688 120.019531 L 658.933594 121.246094 L 660.691406 122.503906 C 662.125 123.523438 663.566406 124.542969 665.011719 125.550781 C 663.910156 127.796875 662.742188 129.804688 661.265625 131.828125 L 660.167969 133.335938 L 659.339844 134.460938 L 656.503906 132.332031 L 654.722656 131.007812 C 653.492188 130.078125 652.277344 129.132812 651.074219 128.167969 L 649.367188 126.816406 L 647.808594 125.550781 C 647.335938 125.285156 646.863281 125.015625 646.378906 124.738281 C 643.996094 125.328125 643.996094 125.328125 642.828125 126.691406 L 641.773438 128.03125 L 639.898438 130.410156 C 640.691406 132.277344 641.390625 133.53125 642.894531 134.910156 L 644.515625 136.09375 L 646.269531 137.390625 L 648.101562 138.710938 L 649.953125 140.074219 C 651.457031 141.179688 652.964844 142.277344 654.480469 143.371094 C 652.945312 146.527344 651.105469 148.8125 648.808594 151.46875 C 643.933594 149.03125 639.996094 145.710938 635.867188 142.191406 C 633.132812 139.886719 630.320312 137.714844 627.460938 135.574219 C 626.128906 134.460938 626.128906 134.460938 625.320312 132.839844 C 630.5 125.847656 635.742188 118.925781 641.210938 112.15625 C 644.617188 107.933594 647.917969 103.636719 651.191406 99.3125 C 652.488281 97.667969 653.761719 96.195312 655.289062 94.769531 "/><path style=" stroke:none;fill-rule:nonzero;fill:#ffffff;fill-opacity:1;" d="M 523.261719 29.96875 C 529.6875 30.65625 535.886719 32.921875 541.992188 34.929688 L 544.808594 35.847656 C 547.074219 36.582031 549.34375 37.324219 551.609375 38.070312 C 551.359375 39.234375 551.105469 40.398438 550.851562 41.5625 L 550.421875 43.527344 C 549.988281 45.359375 549.988281 45.359375 549.179688 47.789062 C 542.785156 46.316406 536.667969 44.492188 530.550781 42.121094 C 530.160156 43.132812 529.773438 44.144531 529.386719 45.15625 L 528.730469 46.867188 C 528.152344 48.511719 527.703125 50.140625 527.308594 51.839844 L 529.589844 52.042969 C 533.894531 52.664062 537.996094 53.945312 541.890625 55.890625 L 542.699219 58.320312 C 542.246094 60.152344 542.246094 60.152344 541.535156 62.117188 L 540.828125 64.101562 L 540.269531 65.609375 C 534.496094 64.234375 528.863281 62.710938 523.261719 60.75 L 521.640625 70.46875 L 539.460938 76.140625 L 537.03125 85.050781 L 534.601562 85.859375 C 532.546875 85.3125 530.519531 84.691406 528.515625 83.988281 L 526.726562 83.386719 C 524.84375 82.75 522.964844 82.101562 521.082031 81.457031 C 519.808594 81.023438 518.53125 80.589844 517.253906 80.15625 C 514.121094 79.09375 510.996094 78.027344 507.871094 76.949219 C 509.460938 70.929688 511.226562 64.964844 513.167969 59.046875 L 513.96875 56.585938 C 514.519531 54.886719 515.074219 53.191406 515.628906 51.492188 C 516.480469 48.882812 517.332031 46.273438 518.179688 43.660156 L 519.796875 38.695312 L 520.566406 36.324219 L 521.28125 34.152344 L 521.90625 32.230469 C 522.449219 30.78125 522.449219 30.78125 523.261719 29.96875 M 172.53125 80.191406 C 178.765625 83.496094 184.789062 87.050781 190.753906 90.820312 L 193.289062 92.414062 C 195.820312 94.007812 198.351562 95.601562 200.878906 97.199219 L 203.207031 98.667969 C 208.878906 102.25 208.878906 102.25 211.429688 103.867188 C 214.371094 105.730469 217.320312 107.574219 220.320312 109.351562 C 217.867188 111.992188 215.417969 114.132812 212.21875 115.828125 C 210.144531 115.324219 210.144531 115.324219 208.171875 114.210938 C 206.261719 113.136719 206.261719 113.136719 204.121094 112.589844 C 202.273438 113.246094 202.273438 113.246094 200.59375 114.558594 L 198.660156 115.902344 L 196.679688 117.347656 C 195.371094 118.277344 194.058594 119.203125 192.746094 120.128906 L 190.996094 121.390625 L 189.539062 122.308594 L 187.921875 122.308594 L 188.730469 123.929688 C 189.425781 128.097656 189.425781 128.097656 188.730469 130.410156 C 186.523438 132.453125 184.097656 133.878906 181.441406 135.269531 L 179.820312 134.460938 C 179.363281 132.132812 178.984375 129.796875 178.683594 127.445312 L 178.382812 125.261719 C 178.0625 122.914062 177.75 120.5625 177.441406 118.207031 C 177.222656 116.609375 177.007812 115.011719 176.789062 113.414062 C 175.292969 102.351562 173.851562 91.277344 172.53125 80.191406 M 185.488281 99.628906 C 185.300781 104.308594 185.597656 108.144531 187.109375 112.589844 C 190.894531 111.328125 193.660156 109.28125 196.828125 106.921875 C 194.53125 105.035156 192.1875 103.214844 189.792969 101.453125 L 188.367188 100.402344 L 187.109375 99.628906 Z M 70.46875 184.679688 C 70.878906 185.84375 71.285156 187.007812 71.683594 188.171875 L 72.367188 190.136719 C 72.898438 191.96875 72.898438 191.96875 72.898438 194.398438 L 71.242188 195.144531 C 67.953125 196.6875 65.28125 197.957031 62.722656 200.578125 C 60.976562 203.464844 60.585938 205.8125 60.496094 209.132812 C 60.550781 212.855469 60.980469 215.6875 62.859375 218.925781 C 64.957031 221.515625 67.445312 223.039062 70.46875 224.371094 C 73.226562 225.171875 75.164062 225.386719 77.972656 224.792969 C 81.699219 223.675781 84.765625 222.382812 87.480469 219.511719 C 90.011719 214.988281 90.367188 210.882812 90.71875 205.738281 L 100.441406 205.738281 C 100.707031 212 100.777344 216.964844 98.109375 222.6875 C 95.707031 227.140625 92.6875 229.558594 88.472656 232.234375 C 84.113281 234.761719 79.511719 235.625 74.519531 235.710938 C 68.785156 235.332031 64.132812 233.804688 59.3125 230.664062 C 55.632812 227.738281 53.480469 224.207031 51.179688 220.167969 C 49.441406 214.582031 48.878906 208.554688 49.816406 202.753906 C 51.070312 198.261719 53.550781 194.558594 56.699219 191.160156 C 60.417969 188.351562 65.644531 184.679688 70.46875 184.679688 M 263.25 35.640625 C 267.1875 38.945312 270.96875 42.421875 274.589844 46.070312 L 276.007812 47.476562 C 278.410156 49.882812 280.710938 52.332031 282.921875 54.914062 C 287.203125 59.871094 291.96875 64.363281 296.648438 68.933594 L 298.785156 71.046875 L 300.734375 72.953125 L 302.128906 74.519531 L 302.128906 76.140625 C 300.855469 76.730469 299.570312 77.300781 298.28125 77.859375 L 296.117188 78.828125 L 294.03125 79.378906 C 292.082031 78.6875 290.9375 77.882812 289.371094 76.546875 L 288.359375 75.328125 L 288.359375 73.710938 L 268.921875 81 L 268.109375 87.480469 C 266.550781 88.792969 266.550781 88.792969 264.617188 89.453125 L 262.703125 90.160156 C 261.003906 90.664062 259.300781 91.105469 257.578125 91.53125 C 259.121094 72.855469 261.027344 54.246094 263.25 35.640625 M 270.539062 57.511719 L 268.921875 70.46875 C 273.78125 69.820312 273.78125 69.820312 278.183594 68.394531 C 279.136719 68.011719 280.089844 67.625 281.070312 67.230469 C 278.234375 63.847656 275.417969 60.496094 272.160156 57.511719 Z M 270.539062 57.511719 "/><path style=" stroke:none;fill-rule:nonzero;fill:#fefefe;fill-opacity:1;" d="M 430.339844 12.503906 C 433.089844 13.238281 435.167969 14.058594 437.351562 15.917969 C 438.636719 17.328125 439.753906 18.558594 440.640625 20.25 L 439.828125 22.679688 C 438.105469 24.113281 436.261719 25.136719 434.160156 25.921875 C 432.386719 25.414062 432.386719 25.414062 430.921875 24.300781 C 429.460938 23.265625 429.460938 23.265625 427.679688 22.679688 C 423.90625 23.003906 423.90625 23.003906 420.390625 24.300781 C 419.84375 26.148438 419.84375 26.148438 420.390625 28.351562 C 422.34375 30.035156 424.609375 31.175781 426.871094 32.398438 C 432.949219 35.746094 437.371094 38.863281 440.996094 44.855469 C 441.691406 48.113281 441.425781 51.039062 440.640625 54.269531 C 438.777344 57.792969 436.691406 60.195312 433.351562 62.371094 C 428.796875 64.15625 424.40625 64.542969 419.578125 63.988281 C 415.660156 63.101562 412.128906 61.984375 409.027344 59.359375 C 407.777344 57.972656 406.710938 56.714844 405.808594 55.078125 L 405.808594 52.648438 C 407.113281 51.46875 407.113281 51.46875 408.847656 50.371094 L 410.554688 49.242188 L 412.289062 48.601562 C 414.246094 49.296875 415.402344 50.105469 416.949219 51.484375 C 419.105469 52.863281 421.066406 53.230469 423.601562 53.460938 C 426.085938 53.460938 427.910156 52.96875 430.109375 51.839844 L 431.074219 50.371094 L 430.921875 48.601562 C 428.035156 45.328125 424.875 43.105469 421.199219 40.855469 C 412.441406 35.4375 412.441406 35.4375 410.496094 32.570312 C 409.523438 30.101562 409.023438 28.132812 409.152344 25.460938 C 409.664062 22.390625 410.441406 19.875 411.886719 17.109375 C 417.261719 12.542969 423.507812 11.195312 430.339844 12.503906 M 562.140625 42.929688 C 569.226562 45.257812 569.226562 45.257812 571.050781 46.171875 C 569.527344 50.980469 567.75 55.695312 565.726562 60.316406 L 564.917969 62.179688 C 564.078125 64.117188 563.238281 66.054688 562.394531 67.988281 C 561.273438 70.558594 560.15625 73.132812 559.042969 75.707031 L 558.261719 77.492188 C 556.929688 80.355469 556.929688 80.355469 556.46875 83.429688 L 573.480469 90.71875 C 571.050781 98.011719 571.050781 98.011719 569.429688 100.441406 L 567.238281 99.488281 C 564.554688 98.320312 561.867188 97.152344 559.179688 95.984375 L 555.695312 94.46875 C 554.023438 93.742188 552.355469 93.015625 550.683594 92.292969 L 549.109375 91.605469 C 546.988281 90.6875 544.894531 89.832031 542.699219 89.101562 C 543.261719 84.945312 544.984375 81.3125 546.636719 77.496094 L 547.585938 75.285156 C 548.246094 73.742188 548.910156 72.195312 549.578125 70.65625 C 550.585938 68.316406 551.589844 65.976562 552.589844 63.636719 L 554.535156 59.121094 L 555.429688 57.03125 C 557.5 52.242188 559.765625 47.574219 562.140625 42.929688 "/><path style=" stroke:none;fill-rule:nonzero;fill:#ffffff;fill-opacity:1;" d="M 686.070312 119.878906 C 689.246094 121.359375 691.527344 123.269531 694.171875 125.550781 C 692.050781 129.621094 689.015625 132.652344 685.867188 135.929688 C 682.242188 139.722656 678.6875 143.550781 675.25 147.515625 C 672.949219 150.148438 670.566406 152.703125 668.183594 155.265625 C 665.941406 157.691406 663.804688 160.207031 661.769531 162.808594 C 659.167969 161.691406 657.679688 160.441406 655.898438 158.253906 L 654.621094 156.703125 L 653.671875 155.519531 L 654.886719 154.332031 C 658.121094 151.140625 661.203125 147.890625 664.164062 144.449219 C 666.292969 142.023438 668.484375 139.660156 670.679688 137.296875 C 674.257812 133.4375 677.785156 129.542969 681.210938 125.550781 L 682.628906 123.898438 C 683.777344 122.558594 684.925781 121.21875 686.070312 119.878906 "/><path style=" stroke:none;fill-rule:nonzero;fill:#fefefe;fill-opacity:1;" d="M 76.140625 166.859375 C 78.472656 167.9375 80.34375 169.15625 82.308594 170.804688 L 83.984375 172.199219 L 85.757812 173.695312 C 90.132812 177.339844 94.523438 180.9375 99.023438 184.425781 C 104.488281 188.675781 109.769531 193.128906 115.019531 197.640625 C 113.542969 200.816406 111.632812 203.097656 109.351562 205.738281 C 105.886719 203.519531 102.738281 201.101562 99.628906 198.398438 C 95.925781 195.21875 92.144531 192.128906 88.289062 189.136719 C 84.390625 186.089844 80.511719 183.019531 76.699219 179.871094 L 75.328125 178.769531 C 73.609375 177.335938 72.253906 176.097656 71.25 174.082031 L 71.28125 172.53125 C 72.265625 170.972656 72.265625 170.972656 73.660156 169.492188 L 75.046875 167.984375 Z M 76.140625 166.859375 "/></g></svg>