<?xml version="1.0" encoding="UTF-8" ?>
<!DOCTYPE svg PUBLIC "-//W3C//DTD SVG 1.1//EN" "http://www.w3.org/Graphics/SVG/1.1/DTD/svg11.dtd">
<svg width="2160pt" height="695pt" viewBox="0 0 2160 695" version="1.1" xmlns="http://www.w3.org/2000/svg">
<g id="#000000ff">
<path fill="#000000" opacity="1.00" d=" M 322.17 1.17 C 387.61 -3.61 454.33 10.62 512.06 41.82 C 572.51 74.46 622.86 125.48 654.68 186.36 C 688.33 250.55 701.21 325.44 690.57 397.16 C 685.01 434.99 673.34 471.95 655.85 505.96 C 628.75 558.57 587.99 604.06 538.60 636.67 C 509.86 655.82 478.15 670.46 445.00 680.14 C 412.57 689.75 378.75 694.05 344.98 694.49 C 325.89 693.72 306.78 692.45 287.96 689.04 C 252.08 682.81 217.18 670.97 184.98 653.95 C 128.83 624.26 81.11 578.84 48.73 524.18 C 19.57 475.22 3.01 418.92 0.57 362.01 C -1.21 319.83 4.75 277.33 18.12 237.28 C 37.74 177.94 74.09 124.35 121.53 83.72 C 177.27 35.62 248.77 6.37 322.17 1.17 M 253.60 18.45 C 195.37 34.89 141.90 67.42 100.12 111.13 C 64.33 148.49 37.21 194.09 21.52 243.40 C -2.66 319.19 0.59 403.49 30.98 477.05 C 44.40 509.66 62.89 540.17 85.59 567.16 C 85.62 518.82 85.51 470.49 85.67 422.15 C 87.19 421.38 88.70 420.61 90.22 419.85 C 90.36 421.50 90.51 423.17 90.68 424.83 C 92.71 423.16 93.18 420.61 93.44 418.14 C 94.82 417.36 96.22 416.59 97.61 415.83 C 97.67 417.34 97.73 418.86 97.79 420.37 C 98.31 420.06 99.37 419.42 99.90 419.10 C 99.75 415.66 101.88 413.09 104.87 411.70 C 105.08 413.51 105.28 415.32 105.53 417.13 C 107.47 415.39 108.01 412.92 108.24 410.45 C 109.62 409.63 111.00 408.81 112.39 408.00 C 112.70 467.34 112.48 526.68 112.48 586.02 C 112.64 589.98 111.70 594.31 114.00 597.86 C 114.22 594.56 114.22 591.27 114.23 587.97 C 114.58 528.11 113.91 468.25 114.58 408.40 C 116.66 409.18 118.73 409.99 120.80 410.81 C 120.88 412.21 121.01 413.62 121.20 415.03 C 122.10 415.97 123.55 416.20 124.69 416.80 C 124.72 415.29 124.75 413.80 124.79 412.31 C 126.71 412.95 128.76 413.35 130.51 414.43 C 131.42 417.03 132.04 420.00 135.03 420.98 C 135.12 419.33 135.21 417.69 135.29 416.05 C 137.38 416.79 139.47 417.54 141.56 418.29 C 141.71 419.85 141.87 421.42 142.03 423.00 C 143.15 423.42 144.28 423.85 145.41 424.28 C 145.65 422.73 145.90 421.19 146.15 419.65 C 148.49 420.89 152.76 421.44 152.27 424.96 C 152.25 492.64 152.26 560.32 152.25 628.00 C 160.30 633.45 168.54 638.61 176.88 643.60 C 176.89 558.72 176.89 473.83 176.86 388.94 C 176.34 383.22 183.37 382.94 187.29 381.66 C 187.38 383.93 187.47 386.20 187.55 388.48 C 189.47 387.77 191.39 387.05 193.31 386.33 C 193.51 383.98 193.00 381.39 194.17 379.24 C 197.04 377.35 200.46 376.57 203.69 375.49 C 203.84 377.80 203.99 380.11 204.13 382.42 C 206.01 381.74 207.90 381.06 209.79 380.38 C 209.94 378.07 209.77 375.69 210.48 373.46 C 213.28 371.18 216.98 370.58 220.36 369.59 C 220.42 371.86 220.49 374.14 220.55 376.42 C 222.43 375.77 224.30 375.13 226.17 374.49 C 226.33 372.01 226.53 369.55 226.85 367.10 C 230.05 365.57 233.41 364.43 236.85 363.58 C 237.30 465.95 236.73 568.32 237.17 670.69 C 237.81 671.03 239.08 671.72 239.71 672.06 C 240.02 569.03 239.60 466.00 239.96 362.98 C 242.35 364.22 245.22 364.97 246.99 367.13 C 247.53 369.34 247.35 371.65 247.40 373.91 C 248.77 374.65 250.14 375.39 251.52 376.12 C 251.56 373.76 251.60 371.40 251.67 369.05 C 254.16 370.23 256.61 371.53 258.89 373.11 C 258.98 375.41 259.06 377.72 259.13 380.03 C 260.48 380.77 261.83 381.52 263.18 382.27 C 263.26 379.95 263.33 377.64 263.42 375.33 C 265.82 376.52 268.61 377.32 270.42 379.40 C 270.92 381.62 270.79 383.93 270.88 386.20 C 272.23 386.95 273.59 387.69 274.95 388.43 C 274.98 386.12 275.01 383.80 275.06 381.50 C 277.38 382.61 280.17 383.23 281.89 385.28 C 282.96 388.01 282.33 391.10 282.49 393.98 C 282.55 489.63 282.34 585.27 282.60 680.91 C 282.55 682.49 283.43 683.49 285.22 683.89 C 285.41 576.25 285.22 468.61 285.28 360.97 C 285.33 355.05 284.99 349.11 285.77 343.23 C 292.39 343.28 299.04 342.74 305.63 343.43 C 305.91 343.64 306.46 344.08 306.73 344.30 C 307.43 349.71 306.92 355.20 307.06 360.64 C 311.15 360.64 315.24 360.64 319.33 360.64 C 319.47 355.19 318.96 349.71 319.65 344.29 C 319.85 344.11 320.23 343.76 320.42 343.58 C 327.01 342.65 333.76 343.16 340.40 343.41 C 341.68 349.08 340.96 354.89 341.02 360.63 C 345.15 360.65 349.28 360.64 353.41 360.64 C 353.39 354.83 353.06 349.00 353.88 343.23 C 360.45 343.29 367.05 342.75 373.59 343.43 C 373.89 343.65 374.48 344.09 374.78 344.31 C 375.54 349.72 374.97 355.20 375.13 360.64 C 379.22 360.64 383.31 360.64 387.40 360.64 C 387.40 354.98 387.28 349.33 387.67 343.69 C 394.54 342.84 401.58 342.83 408.46 343.56 C 409.70 346.52 409.08 349.84 409.22 352.97 C 409.16 463.19 409.19 573.41 409.19 683.64 C 409.86 683.42 411.19 683.00 411.86 682.78 C 412.22 585.85 411.76 488.92 412.11 391.99 C 412.26 389.56 411.73 386.95 412.53 384.64 C 414.62 383.05 417.08 382.07 419.44 380.97 C 419.47 383.28 419.50 385.60 419.54 387.93 C 420.89 387.20 422.27 386.48 423.63 385.76 C 423.67 383.43 423.72 381.10 423.80 378.78 C 426.11 377.22 428.58 375.90 431.11 374.73 C 431.17 377.07 431.21 379.42 431.26 381.77 C 432.61 381.06 433.96 380.35 435.32 379.65 C 435.40 377.33 435.30 374.97 435.80 372.69 C 437.73 370.74 440.41 369.81 442.81 368.58 C 442.88 370.93 442.95 373.28 443.03 375.63 C 444.38 374.89 445.74 374.15 447.10 373.40 C 447.33 370.98 446.63 368.19 447.99 366.03 C 449.91 364.46 452.27 363.57 454.46 362.46 C 454.99 465.73 454.32 569.01 454.83 672.28 C 458.48 670.98 457.08 666.91 457.35 663.99 C 457.73 563.70 457.19 463.42 457.73 363.13 C 461.09 364.26 465.08 364.62 467.69 367.27 C 468.25 369.41 468.08 371.64 468.16 373.83 C 470.09 374.56 472.03 375.28 473.98 376.00 C 474.03 373.73 474.10 371.46 474.17 369.19 C 477.52 370.12 481.18 370.70 483.98 372.92 C 484.92 375.15 484.65 377.67 484.87 380.04 C 486.73 380.69 488.60 381.33 490.47 381.97 C 490.57 379.68 490.69 377.40 490.82 375.12 C 494.04 376.15 497.47 376.85 500.33 378.76 C 501.57 380.88 501.01 383.52 501.23 385.88 C 503.12 386.59 505.02 387.30 506.92 388.02 C 507.08 385.76 507.24 383.51 507.49 381.27 C 511.02 381.99 514.48 383.15 517.48 385.22 C 517.76 471.36 517.51 557.51 517.60 643.66 C 525.86 638.68 534.17 633.74 541.96 628.04 C 541.94 560.33 541.95 492.61 541.99 424.90 C 541.45 421.16 545.95 420.84 548.45 419.81 C 548.55 421.30 548.66 422.79 548.77 424.28 C 549.85 423.86 550.94 423.45 552.03 423.04 C 552.28 421.52 552.48 420.00 552.89 418.53 C 554.70 417.30 556.86 416.76 558.89 416.01 C 559.05 417.71 559.23 419.41 559.44 421.11 C 562.13 419.81 563.04 417.07 563.57 414.36 C 565.51 413.62 567.47 412.92 569.44 412.24 C 569.49 413.73 569.54 415.23 569.60 416.73 C 570.81 416.22 572.04 415.72 573.27 415.22 C 573.26 413.78 573.26 412.35 573.26 410.92 C 575.44 410.07 577.62 409.25 579.82 408.44 C 580.30 471.61 579.44 534.78 580.25 597.94 C 580.98 596.04 581.81 594.12 581.70 592.04 C 581.77 530.71 581.65 469.38 581.76 408.05 C 583.21 408.87 584.67 409.71 586.11 410.57 C 586.19 413.02 586.75 415.45 588.79 417.04 C 588.99 415.26 589.18 413.48 589.37 411.71 C 592.28 413.14 594.60 415.56 594.33 419.05 C 594.86 419.39 595.93 420.09 596.46 420.43 C 596.49 418.92 596.54 417.42 596.59 415.92 C 598.09 416.68 599.62 417.45 601.14 418.23 C 601.17 419.72 601.22 421.22 601.27 422.73 C 602.13 423.25 603.00 423.78 603.87 424.32 C 603.91 422.80 603.95 421.28 604.00 419.78 C 605.51 420.59 607.02 421.41 608.53 422.24 C 608.74 470.64 608.58 519.04 608.66 567.44 C 633.83 537.49 653.90 503.24 667.56 466.58 C 693.94 396.27 695.96 317.23 673.59 245.58 C 662.96 211.43 646.85 179.00 626.20 149.80 C 588.77 96.71 535.84 54.72 475.60 30.39 C 405.66 1.87 326.20 -2.28 253.60 18.45 M 333.53 442.97 C 333.24 451.41 333.48 459.86 333.52 468.30 C 342.65 468.79 351.81 468.77 360.94 468.31 C 360.98 459.84 361.25 451.37 360.93 442.92 C 360.74 435.81 353.99 429.85 346.97 430.15 C 340.10 430.11 333.72 436.05 333.53 442.97 M 127.58 477.57 C 125.60 482.38 126.50 487.81 126.84 492.87 C 131.07 494.32 135.46 495.22 139.88 495.85 C 139.92 491.04 140.45 486.15 139.45 481.40 C 138.31 476.63 131.06 473.26 127.58 477.57 M 554.94 480.86 C 553.59 485.75 554.40 490.92 554.42 495.93 C 558.86 495.18 563.25 494.15 567.58 492.87 C 567.53 487.95 568.42 482.83 566.99 478.05 C 563.96 473.17 556.55 476.27 554.94 480.86 M 200.10 500.08 C 195.47 506.63 197.83 515.20 197.79 522.65 C 203.57 521.36 209.66 520.97 215.00 518.19 C 215.00 512.01 215.90 505.68 214.41 499.62 C 211.70 493.94 203.15 495.43 200.10 500.08 M 479.09 500.13 C 478.05 506.06 478.74 512.16 478.77 518.15 C 484.20 520.76 490.25 521.29 496.08 522.46 C 496.24 517.63 496.50 512.80 496.31 507.97 C 496.46 503.72 494.33 499.47 490.62 497.32 C 486.92 494.80 480.63 495.40 479.09 500.13 M 333.53 591.95 C 333.20 600.32 333.55 608.70 333.43 617.08 C 342.61 617.91 351.85 617.90 361.02 617.09 C 360.92 608.69 361.27 600.29 360.93 591.91 C 360.77 584.79 354.02 578.83 347.00 579.12 C 340.10 579.05 333.69 585.01 333.53 591.95 Z" />
<path fill="#000000" opacity="1.00" d=" M 326.85 74.17 C 324.09 58.72 326.95 41.27 337.79 29.38 C 336.64 34.48 335.34 39.70 336.06 44.97 C 337.54 57.60 341.08 69.99 346.64 81.43 C 355.15 98.93 365.61 115.40 374.11 132.91 C 380.64 146.01 385.70 160.20 385.95 174.99 C 386.33 188.62 382.68 202.96 373.18 213.12 C 367.48 219.24 359.54 223.71 351.03 223.85 C 346.67 224.03 342.41 222.95 338.24 221.80 C 341.72 218.61 346.59 215.33 346.18 209.98 C 345.62 202.78 340.40 197.26 336.64 191.47 C 326.11 176.10 316.20 160.29 306.81 144.20 C 298.12 129.64 297.98 111.25 303.88 95.65 C 308.33 119.52 321.89 140.48 337.51 158.60 C 326.87 139.30 316.03 119.47 312.28 97.48 C 310.62 83.07 311.71 67.79 318.68 54.80 C 318.80 74.00 325.16 92.49 333.25 109.68 C 338.01 119.53 343.15 129.29 349.92 137.94 C 340.76 117.29 330.88 96.57 326.85 74.17 Z" />
<path fill="#000000" opacity="1.00" d=" M 352.04 70.07 C 349.25 56.61 354.66 42.54 364.01 32.82 C 359.09 49.03 361.18 66.54 366.77 82.30 C 374.76 104.10 385.40 125.01 390.82 147.70 C 384.01 134.58 376.66 121.74 368.83 109.20 C 361.25 97.15 355.13 84.02 352.04 70.07 Z" />
<path fill="#000000" opacity="1.00" d=" M 409.11 145.09 C 412.98 143.68 417.09 145.14 421.07 144.50 C 423.57 143.90 425.77 145.31 427.82 146.52 C 424.82 148.52 421.82 150.75 420.14 154.04 C 414.07 164.23 408.55 174.73 402.94 185.17 C 401.90 174.38 398.91 163.84 394.44 153.98 C 399.20 150.84 403.63 146.97 409.11 145.09 Z" />
<path fill="#000000" opacity="1.00" d=" M 384.97 146.14 C 394.63 161.85 400.92 180.59 398.09 199.18 C 396.40 211.17 390.19 222.22 381.57 230.62 C 372.92 239.15 362.33 245.57 351.12 250.14 C 333.81 257.40 315.80 263.12 299.31 272.22 C 286.46 278.63 275.22 289.62 271.54 303.85 C 266.78 294.43 264.41 282.89 269.07 272.96 C 272.86 264.00 281.16 258.35 288.84 252.98 C 281.53 252.52 275.34 256.75 268.82 259.30 C 271.53 251.64 276.78 244.79 283.94 240.83 C 290.29 237.07 297.71 236.01 304.91 235.08 C 301.05 231.51 295.81 230.38 290.72 230.04 C 296.48 224.24 304.64 220.74 312.88 221.57 C 324.76 221.86 334.99 229.82 346.96 229.44 C 358.86 229.03 371.30 224.34 378.63 214.59 C 384.95 205.66 388.16 194.81 389.07 183.98 C 390.16 171.24 388.13 158.46 384.97 146.14 Z" />
<path fill="#000000" opacity="1.00" d=" M 1253.16 240.29 C 1256.56 240.29 1259.97 240.29 1263.39 240.30 C 1263.38 268.53 1263.38 296.75 1263.38 324.97 C 1259.95 324.97 1256.54 324.98 1253.13 324.98 C 1253.15 322.85 1253.16 320.72 1253.21 318.60 C 1247.17 323.23 1239.86 327.03 1232.03 326.36 C 1226.04 326.15 1220.36 323.08 1216.71 318.38 C 1212.24 313.00 1210.73 305.90 1210.16 299.09 C 1209.43 290.42 1210.99 281.31 1215.86 273.97 C 1219.90 267.83 1226.67 263.48 1234.02 262.70 C 1240.63 261.85 1247.21 263.75 1253.20 266.43 C 1253.15 257.72 1253.15 249.00 1253.16 240.29 M 1232.07 272.05 C 1226.38 274.11 1222.96 279.78 1221.60 285.42 C 1220.10 292.02 1220.34 298.96 1221.65 305.57 C 1222.77 310.74 1225.92 316.16 1231.41 317.49 C 1239.29 319.64 1247.02 315.49 1253.18 310.93 C 1253.15 298.70 1253.09 286.48 1253.26 274.26 C 1246.69 271.37 1239.04 269.38 1232.07 272.05 Z" />
<path fill="#000000" opacity="1.00" d=" M 1389.26 240.29 C 1392.67 240.29 1396.08 240.30 1399.50 240.32 C 1399.47 268.54 1399.47 296.76 1399.50 324.98 C 1396.07 324.97 1392.65 324.98 1389.24 324.97 C 1389.25 322.85 1389.27 320.72 1389.32 318.60 C 1383.25 323.25 1375.90 327.06 1368.03 326.35 C 1362.01 326.11 1356.33 322.97 1352.69 318.22 C 1348.31 312.84 1346.85 305.79 1346.27 299.03 C 1345.52 290.16 1347.19 280.81 1352.36 273.42 C 1356.94 266.72 1364.90 262.48 1373.03 262.51 C 1378.71 262.32 1384.17 264.21 1389.31 266.44 C 1389.26 257.72 1389.26 249.01 1389.26 240.29 M 1368.07 272.10 C 1362.30 274.24 1358.91 280.10 1357.62 285.85 C 1356.22 292.32 1356.48 299.10 1357.76 305.58 C 1358.87 310.71 1361.98 316.09 1367.42 317.45 C 1375.32 319.69 1383.09 315.51 1389.29 310.95 C 1389.33 298.77 1389.09 286.59 1389.45 274.42 C 1382.89 271.30 1375.09 269.36 1368.07 272.10 Z" />
<path fill="#000000" opacity="1.00" d=" M 813.97 244.01 C 826.55 241.43 839.68 244.32 851.03 249.97 C 851.02 254.24 851.01 258.51 851.02 262.78 C 841.31 255.70 829.04 251.06 816.92 253.31 C 807.29 254.77 799.44 262.68 796.94 271.92 C 794.98 279.32 794.55 287.21 796.22 294.71 C 797.86 301.88 801.75 308.96 808.25 312.77 C 815.04 316.85 823.39 317.37 831.05 315.97 C 838.41 314.74 845.01 310.95 851.02 306.67 C 851.01 310.86 851.02 315.05 851.03 319.24 C 837.72 326.03 821.66 328.85 807.30 323.78 C 799.66 321.26 793.27 315.61 789.45 308.59 C 785.21 301.14 784.05 292.41 784.05 283.96 C 784.10 274.76 786.32 265.33 791.69 257.74 C 796.89 250.41 805.19 245.61 813.97 244.01 Z" />
<path fill="#000000" opacity="1.00" d=" M 1477.22 246.24 C 1491.70 240.46 1508.27 243.08 1521.88 250.00 C 1521.86 254.27 1521.84 258.53 1521.86 262.79 C 1512.45 255.91 1500.64 251.34 1488.84 253.15 C 1482.17 253.93 1476.00 257.64 1472.11 263.09 C 1467.39 269.31 1466.15 277.35 1466.03 284.96 C 1465.93 293.94 1468.55 303.44 1475.17 309.82 C 1481.45 315.75 1490.63 317.45 1498.98 316.40 C 1507.41 315.62 1515.10 311.57 1521.85 306.67 C 1521.85 310.90 1521.87 315.12 1521.80 319.35 C 1506.76 326.87 1487.93 329.56 1472.64 321.31 C 1463.51 316.18 1457.69 306.40 1455.91 296.26 C 1453.94 284.78 1454.50 272.40 1459.98 261.92 C 1463.56 254.81 1469.88 249.24 1477.22 246.24 Z" />
<path fill="#000000" opacity="1.00" d=" M 1183.13 244.44 C 1186.95 244.44 1190.78 244.44 1194.61 244.45 C 1194.61 248.15 1194.61 251.85 1194.61 255.55 C 1190.78 255.56 1186.95 255.56 1183.13 255.56 C 1183.12 251.85 1183.12 248.15 1183.13 244.44 Z" />
<path fill="#000000" opacity="1.00" d=" M 1583.13 244.44 C 1586.95 244.44 1590.77 244.44 1594.61 244.45 C 1594.60 248.15 1594.60 251.85 1594.61 255.55 C 1590.77 255.56 1586.95 255.56 1583.13 255.56 C 1583.11 251.85 1583.11 248.15 1583.13 244.44 Z" />
<path fill="#000000" opacity="1.00" d=" M 1716.46 244.45 C 1720.28 244.44 1724.10 244.44 1727.94 244.44 C 1727.94 248.15 1727.94 251.85 1727.94 255.56 C 1724.10 255.56 1720.27 255.56 1716.44 255.55 C 1716.44 251.85 1716.44 248.15 1716.46 244.45 Z" />
<path fill="#000000" opacity="1.00" d=" M 1672.74 245.87 C 1676.14 245.86 1679.56 245.84 1682.98 245.84 C 1682.98 251.86 1682.97 257.87 1682.98 263.89 C 1689.99 263.90 1697.00 263.87 1704.03 263.92 C 1704.01 266.68 1704.01 269.45 1704.03 272.22 C 1697.00 272.23 1689.99 272.22 1682.97 272.23 C 1682.99 283.49 1682.86 294.76 1683.05 306.03 C 1683.12 310.06 1684.05 314.94 1687.99 316.96 C 1693.12 319.11 1698.79 317.59 1704.04 316.69 C 1704.01 319.44 1704.01 322.19 1704.01 324.95 C 1697.71 325.98 1691.15 327.23 1684.87 325.46 C 1681.25 324.45 1677.83 322.33 1675.90 319.05 C 1673.30 314.85 1672.81 309.79 1672.79 304.97 C 1672.70 294.06 1672.77 283.15 1672.76 272.24 C 1670.44 272.22 1668.14 272.20 1665.85 272.19 C 1665.83 269.43 1665.83 266.67 1665.85 263.92 C 1668.13 263.90 1670.44 263.89 1672.76 263.88 C 1672.75 257.87 1672.73 251.87 1672.74 245.87 Z" />
<path fill="#000000" opacity="1.00" d=" M 881.32 263.47 C 890.13 261.32 900.30 262.60 907.28 268.75 C 913.94 274.50 916.86 283.46 917.19 292.04 C 917.63 301.28 915.72 311.28 909.24 318.26 C 901.27 326.99 887.55 328.43 877.03 323.91 C 869.18 320.34 863.84 312.47 862.28 304.12 C 860.65 295.80 860.91 286.94 864.05 278.99 C 866.98 271.53 873.45 265.38 881.32 263.47 M 884.34 271.45 C 876.94 273.18 872.90 280.87 872.20 287.92 C 871.48 295.97 871.51 304.87 876.29 311.78 C 882.06 320.11 896.06 320.16 902.10 312.10 C 906.13 306.67 906.80 299.59 906.70 293.03 C 906.51 286.96 905.51 280.38 901.27 275.73 C 897.11 271.07 890.18 269.93 884.34 271.45 Z" />
<path fill="#000000" opacity="1.00" d=" M 943.82 270.49 C 950.21 265.81 957.76 261.56 965.99 262.60 C 972.12 262.88 977.41 266.79 980.67 271.81 C 986.13 267.69 992.04 263.48 999.04 262.75 C 1004.87 262.02 1011.47 262.78 1015.89 267.02 C 1020.83 271.93 1022.00 279.27 1022.07 285.95 C 1022.12 298.97 1022.09 311.98 1022.10 325.00 C 1018.69 325.00 1015.29 325.00 1011.89 325.00 C 1011.72 310.71 1012.26 296.39 1011.53 282.12 C 1011.50 277.55 1009.32 272.49 1004.49 271.32 C 996.38 269.11 988.79 273.88 982.65 278.62 C 983.31 294.07 982.80 309.54 982.97 325.00 C 979.56 325.00 976.15 325.00 972.75 324.97 C 972.72 311.76 972.87 298.54 972.65 285.32 C 972.40 281.29 972.36 276.70 969.37 273.61 C 966.70 270.90 962.57 270.63 959.01 270.94 C 953.31 271.49 948.64 275.10 943.98 278.07 C 943.75 293.71 943.87 309.34 943.88 324.97 C 940.46 324.97 937.05 324.99 933.65 325.00 C 933.65 304.63 933.65 284.26 933.65 263.89 C 937.06 263.90 940.47 263.91 943.89 263.92 C 943.86 266.11 943.83 268.30 943.82 270.49 Z" />
<path fill="#000000" opacity="1.00" d=" M 1122.97 270.76 C 1128.12 267.13 1133.63 263.47 1140.05 262.75 C 1147.00 261.75 1155.09 263.59 1159.24 269.69 C 1163.84 276.16 1163.52 284.48 1163.50 292.04 C 1163.49 303.02 1163.51 314.00 1163.51 324.98 C 1160.09 324.97 1156.68 324.98 1153.27 324.97 C 1153.21 311.67 1153.49 298.35 1153.12 285.06 C 1153.00 279.99 1151.84 273.52 1146.32 271.70 C 1137.97 268.75 1129.80 273.55 1123.12 278.12 C 1122.94 293.74 1123.03 309.36 1123.04 324.97 C 1119.63 325.00 1116.22 325.00 1112.82 325.00 C 1112.81 304.63 1112.80 284.26 1112.81 263.89 C 1116.22 263.90 1119.64 263.91 1123.07 263.94 C 1123.03 266.21 1122.99 268.48 1122.97 270.76 Z" />
<path fill="#000000" opacity="1.00" d=" M 1284.64 265.08 C 1295.76 262.74 1307.60 260.92 1318.67 264.52 C 1324.05 266.15 1328.21 270.77 1329.80 276.09 C 1330.91 279.62 1330.65 283.35 1330.72 286.99 C 1330.81 299.66 1330.70 312.33 1330.75 325.00 C 1327.36 325.00 1323.98 325.00 1320.60 325.00 C 1320.59 322.79 1320.58 320.57 1320.61 318.37 C 1315.46 322.26 1309.53 325.36 1303.06 326.15 C 1296.46 327.10 1289.22 325.36 1284.45 320.53 C 1278.52 314.34 1277.61 304.19 1281.78 296.81 C 1284.67 291.90 1290.05 289.13 1295.38 287.66 C 1303.70 285.45 1312.37 285.38 1320.89 284.64 C 1320.43 280.30 1319.77 274.85 1315.27 272.81 C 1305.33 268.66 1294.34 271.82 1284.64 275.11 C 1284.63 271.77 1284.63 268.42 1284.64 265.08 M 1300.55 295.36 C 1297.03 296.44 1293.13 297.87 1291.24 301.28 C 1288.18 306.55 1289.73 314.94 1295.97 317.06 C 1304.62 320.13 1313.72 316.03 1320.60 310.82 C 1320.57 304.91 1320.59 299.00 1320.60 293.09 C 1313.91 293.73 1307.07 293.57 1300.55 295.36 Z" />
<path fill="#000000" opacity="1.00" d=" M 1618.64 266.66 C 1629.78 260.08 1643.66 262.24 1655.13 266.83 C 1655.12 270.51 1655.13 274.20 1655.16 277.89 C 1646.50 272.50 1635.40 268.31 1625.45 272.68 C 1620.18 274.60 1619.02 283.02 1623.98 285.93 C 1632.83 290.99 1644.39 288.93 1652.50 295.63 C 1660.66 302.58 1658.32 317.21 1649.04 322.09 C 1637.12 328.98 1622.28 326.75 1610.20 321.46 C 1610.14 317.49 1610.13 313.53 1610.10 309.56 C 1619.00 315.90 1630.63 320.49 1641.49 316.66 C 1647.54 315.08 1649.37 305.33 1643.60 302.30 C 1634.56 297.97 1623.30 299.39 1615.29 292.72 C 1607.37 285.83 1609.59 271.56 1618.64 266.66 Z" />
<path fill="#000000" opacity="1.00" d=" M 1748.52 265.08 C 1759.65 262.75 1771.51 260.92 1782.58 264.52 C 1789.67 266.67 1794.40 273.89 1794.53 281.15 C 1794.79 295.76 1794.56 310.38 1794.64 324.99 C 1791.24 325.00 1787.85 325.00 1784.48 324.99 C 1784.47 322.78 1784.47 320.56 1784.51 318.35 C 1778.54 322.75 1771.59 326.39 1764.00 326.38 C 1755.91 326.89 1747.44 322.23 1744.47 314.54 C 1742.36 308.80 1742.64 302.04 1745.72 296.70 C 1748.16 292.47 1752.67 290.02 1757.12 288.38 C 1766.00 285.22 1775.57 285.62 1784.82 284.65 C 1784.27 280.31 1783.67 274.79 1779.11 272.78 C 1769.17 268.67 1758.21 271.82 1748.53 275.11 C 1748.51 271.76 1748.51 268.42 1748.52 265.08 M 1758.71 297.72 C 1751.51 301.64 1751.93 314.45 1759.99 317.10 C 1768.61 320.10 1777.61 315.99 1784.48 310.85 C 1784.47 304.93 1784.48 299.01 1784.49 293.08 C 1775.84 293.98 1766.53 293.28 1758.71 297.72 Z" />
<path fill="#000000" opacity="1.00" d=" M 1824.36 270.77 C 1829.40 267.20 1834.78 263.61 1841.06 262.80 C 1847.39 261.87 1854.61 263.04 1859.17 267.89 C 1863.67 272.69 1864.80 279.57 1864.86 285.93 C 1864.90 298.95 1864.87 311.96 1864.90 324.98 C 1861.48 324.98 1858.07 324.97 1854.67 324.97 C 1854.62 311.42 1854.87 297.86 1854.49 284.31 C 1854.29 279.43 1852.87 273.30 1847.57 271.64 C 1839.29 268.86 1831.10 273.56 1824.48 278.13 C 1824.35 293.75 1824.41 309.36 1824.43 324.97 C 1821.00 324.97 1817.59 324.98 1814.19 324.97 C 1814.20 304.62 1814.19 284.27 1814.21 263.91 C 1817.61 263.91 1821.02 263.91 1824.44 263.91 C 1824.40 266.20 1824.38 268.48 1824.36 270.77 Z" />
<path fill="#000000" opacity="1.00" d=" M 1886.02 265.08 C 1897.18 262.73 1909.09 260.91 1920.19 264.56 C 1927.16 266.73 1931.87 273.84 1932.00 281.02 C 1932.30 295.67 1932.06 310.34 1932.14 325.00 C 1928.74 325.00 1925.36 325.00 1921.98 325.00 C 1921.97 322.77 1921.96 320.55 1922.00 318.33 C 1915.93 322.88 1908.77 326.51 1901.01 326.39 C 1892.76 326.76 1884.21 321.65 1881.63 313.63 C 1879.15 305.85 1881.06 295.87 1888.44 291.39 C 1898.50 285.00 1910.90 285.80 1922.29 284.66 C 1921.83 280.23 1921.08 274.60 1916.38 272.67 C 1906.47 268.74 1895.65 271.85 1886.02 275.10 C 1886.01 271.76 1886.02 268.42 1886.02 265.08 M 1896.61 297.49 C 1890.36 300.63 1889.34 310.06 1894.01 314.96 C 1896.61 317.53 1900.51 318.07 1904.02 318.11 C 1910.69 318.01 1916.72 314.64 1921.99 310.82 C 1921.97 304.91 1921.98 298.99 1921.99 293.08 C 1913.47 293.95 1904.38 293.32 1896.61 297.49 Z" />
<path fill="#000000" opacity="1.00" d=" M 1041.57 263.89 C 1044.96 263.89 1048.35 263.89 1051.75 263.89 C 1051.86 277.60 1051.53 291.32 1051.96 305.03 C 1052.11 309.97 1054.00 316.04 1059.35 317.48 C 1067.50 319.76 1075.38 315.26 1081.90 310.83 C 1082.14 295.18 1081.97 279.54 1082.03 263.89 C 1085.42 263.89 1088.82 263.89 1092.22 263.89 C 1092.23 284.26 1092.22 304.63 1092.22 325.00 C 1088.82 325.00 1085.42 325.00 1082.03 325.00 C 1082.02 322.68 1082.02 320.37 1082.03 318.07 C 1076.90 321.73 1071.44 325.54 1065.00 326.19 C 1058.25 327.06 1050.52 325.38 1046.23 319.71 C 1042.10 314.43 1041.51 307.43 1041.55 300.97 C 1041.56 288.61 1041.54 276.25 1041.57 263.89 Z" />
<path fill="#000000" opacity="1.00" d=" M 1183.75 263.91 C 1187.15 263.91 1190.56 263.91 1193.98 263.91 C 1193.99 284.27 1193.98 304.62 1193.98 324.98 C 1190.57 324.97 1187.15 324.98 1183.75 324.97 C 1183.75 304.62 1183.75 284.27 1183.75 263.91 Z" />
<path fill="#000000" opacity="1.00" d=" M 1536.43 325.00 C 1536.43 304.63 1536.41 284.27 1536.42 263.91 C 1539.82 263.91 1543.23 263.91 1546.65 263.91 C 1546.63 266.88 1546.62 269.85 1546.62 272.82 C 1550.97 269.62 1555.40 266.24 1560.69 264.77 C 1565.09 263.48 1569.73 263.95 1574.23 264.38 C 1574.23 267.89 1574.23 271.40 1574.26 274.91 C 1569.04 273.88 1563.55 272.85 1558.35 274.49 C 1554.09 275.81 1550.45 278.47 1546.77 280.88 C 1546.51 295.58 1546.67 310.27 1546.65 324.97 C 1543.24 324.97 1539.83 324.99 1536.43 325.00 Z" />
<path fill="#000000" opacity="1.00" d=" M 1583.75 263.91 C 1587.15 263.91 1590.56 263.91 1593.98 263.91 C 1593.99 284.27 1593.98 304.62 1593.99 324.98 C 1590.56 324.97 1587.15 324.97 1583.75 324.97 C 1583.75 304.62 1583.74 284.27 1583.75 263.91 Z" />
<path fill="#000000" opacity="1.00" d=" M 1717.08 263.91 C 1720.48 263.91 1723.89 263.91 1727.31 263.91 C 1727.32 284.27 1727.31 304.62 1727.32 324.97 C 1723.89 324.97 1720.48 324.98 1717.08 324.98 C 1717.08 304.62 1717.08 284.27 1717.08 263.91 Z" />
<path fill="#000000" opacity="1.00" d=" M 235.64 317.30 C 237.84 316.90 240.06 316.96 242.19 317.67 C 241.39 318.91 240.60 320.14 239.81 321.38 C 249.20 322.43 258.73 322.68 268.09 321.21 C 264.58 322.70 261.12 324.31 257.70 325.98 C 260.80 327.72 264.00 329.26 267.23 330.72 C 258.15 331.97 248.96 331.73 239.86 330.91 C 239.80 340.94 240.06 350.99 239.55 361.01 C 237.96 360.48 237.19 359.46 237.22 357.95 C 236.91 346.64 237.18 335.31 237.09 323.99 C 237.11 321.68 236.30 319.48 235.64 317.30 Z" />
<path fill="#000000" opacity="1.00" d=" M 453.40 317.44 C 455.54 316.77 457.79 316.48 459.78 317.80 C 459.04 319.00 458.31 320.20 457.59 321.40 C 466.95 322.42 476.44 322.66 485.78 321.26 C 482.48 322.87 478.81 323.89 475.91 326.20 C 478.85 327.98 482.04 329.30 485.15 330.77 C 476.01 331.93 466.77 331.76 457.62 330.93 C 457.43 341.13 458.17 351.38 457.04 361.55 C 456.23 360.48 454.82 359.57 454.93 358.06 C 454.73 349.69 454.94 341.31 454.86 332.94 C 454.74 327.75 455.56 322.34 453.40 317.44 Z" />
<path fill="#000000" opacity="1.00" d=" M 1188.28 362.51 C 1195.03 362.51 1201.77 362.51 1208.52 362.51 C 1208.53 391.67 1208.52 420.83 1208.53 449.99 C 1201.74 450.00 1194.96 450.03 1188.19 449.90 C 1188.23 447.81 1188.27 445.73 1188.35 443.65 C 1182.01 448.50 1174.22 452.20 1166.05 451.34 C 1159.57 451.07 1153.51 447.63 1149.57 442.56 C 1144.22 435.99 1142.74 427.24 1142.53 419.01 C 1142.32 408.04 1146.41 396.31 1155.65 389.78 C 1165.15 383.04 1178.23 383.60 1188.31 388.81 C 1188.26 380.04 1188.28 371.27 1188.28 362.51 M 1165.76 407.65 C 1163.09 413.01 1163.13 419.28 1163.99 425.08 C 1164.61 429.21 1166.79 433.59 1170.96 435.08 C 1176.72 437.40 1183.01 435.35 1188.27 432.71 C 1188.28 422.30 1188.28 411.88 1188.30 401.47 C 1184.26 400.47 1180.08 399.55 1175.93 400.31 C 1171.60 400.93 1167.67 403.70 1165.76 407.65 Z" />
<path fill="#000000" opacity="1.00" d=" M 1613.28 362.51 C 1620.02 362.51 1626.77 362.51 1633.52 362.51 C 1633.53 391.67 1633.53 420.84 1633.52 450.00 C 1626.75 450.01 1619.98 450.00 1613.21 449.92 C 1613.24 447.83 1613.28 445.73 1613.35 443.65 C 1607.03 448.48 1599.27 452.17 1591.12 451.35 C 1584.62 451.08 1578.52 447.66 1574.57 442.56 C 1569.02 435.72 1567.60 426.56 1567.53 418.01 C 1567.54 407.34 1571.73 396.06 1580.68 389.75 C 1590.22 383.12 1603.25 383.52 1613.31 388.80 C 1613.26 380.03 1613.28 371.27 1613.28 362.51 M 1594.25 403.24 C 1588.87 407.76 1588.09 415.43 1588.60 421.99 C 1588.89 426.84 1590.44 432.55 1595.24 434.77 C 1601.14 437.52 1607.91 435.53 1613.33 432.58 C 1613.24 422.21 1613.30 411.84 1613.30 401.47 C 1607.08 399.75 1599.60 398.87 1594.25 403.24 Z" />
<path fill="#000000" opacity="1.00" d=" M 868.71 362.53 C 875.85 362.49 882.99 362.48 890.14 362.49 C 890.14 367.58 890.14 372.67 890.14 377.76 C 882.99 377.80 875.85 377.77 868.71 377.75 C 868.70 372.68 868.70 367.60 868.71 362.53 Z" />
<path fill="#000000" opacity="1.00" d=" M 1031.37 388.80 C 1031.32 380.04 1031.34 371.27 1031.34 362.51 C 1038.08 362.51 1044.83 362.51 1051.58 362.51 C 1051.59 391.67 1051.57 420.83 1051.59 449.99 C 1044.82 450.01 1038.06 450.00 1031.30 449.95 C 1031.32 447.84 1031.34 445.74 1031.39 443.65 C 1025.07 448.51 1017.28 452.19 1009.11 451.35 C 1002.60 451.07 996.50 447.61 992.56 442.49 C 987.07 435.66 985.65 426.54 985.60 418.02 C 985.60 407.13 989.97 395.57 999.31 389.35 C 1008.80 383.06 1021.50 383.70 1031.37 388.80 M 1012.28 403.27 C 1006.68 408.02 1006.09 416.10 1006.75 422.93 C 1007.12 427.73 1009.07 433.28 1014.00 435.07 C 1019.76 437.41 1026.05 435.35 1031.32 432.71 C 1031.35 422.29 1031.33 411.88 1031.35 401.46 C 1025.13 399.75 1017.63 398.87 1012.28 403.27 Z" />
<path fill="#000000" opacity="1.00" d=" M 1729.02 362.51 C 1735.77 362.51 1742.52 362.51 1749.28 362.51 C 1749.28 391.67 1749.28 420.84 1749.28 450.00 C 1742.52 450.00 1735.76 450.00 1729.02 450.00 C 1729.02 420.84 1729.01 391.67 1729.02 362.51 Z" />
<path fill="#000000" opacity="1.00" d=" M 1972.88 362.53 C 1980.01 362.49 1987.14 362.48 1994.29 362.49 C 1994.29 367.58 1994.29 372.67 1994.30 377.76 C 1987.16 377.80 1980.01 377.77 1972.88 377.75 C 1972.86 372.68 1972.86 367.60 1972.88 362.53 Z" />
<path fill="#000000" opacity="1.00" d=" M 809.41 367.66 C 824.33 363.07 840.81 365.29 854.62 372.28 C 854.60 379.42 854.68 386.56 854.51 393.70 C 849.01 391.40 844.93 386.79 839.44 384.50 C 831.27 380.76 820.91 381.05 813.63 386.63 C 808.22 390.70 805.50 397.43 804.87 404.01 C 803.95 412.53 805.36 422.06 811.64 428.38 C 818.64 435.26 829.88 436.16 838.71 432.64 C 844.62 430.51 848.89 425.62 854.52 422.98 C 854.68 430.06 854.67 437.14 854.54 444.22 C 840.80 450.98 824.59 453.70 809.72 449.25 C 801.97 447.15 794.95 442.47 790.20 435.99 C 784.39 428.29 782.34 418.43 782.17 408.96 C 782.17 398.98 784.42 388.56 790.65 380.54 C 795.32 374.39 801.98 369.79 809.41 367.66 Z" />
<path fill="#000000" opacity="1.00" d=" M 1807.93 366.67 C 1822.29 366.75 1836.65 366.45 1851.01 366.87 C 1859.03 367.15 1867.57 369.73 1872.82 376.15 C 1878.18 382.62 1878.13 391.97 1875.58 399.60 C 1873.13 406.51 1866.84 410.92 1860.77 414.45 C 1870.04 426.29 1879.32 438.12 1888.60 449.97 C 1879.81 450.01 1871.03 450.00 1862.25 450.00 C 1854.56 439.81 1847.01 429.52 1839.26 419.38 C 1835.97 419.39 1832.68 419.43 1829.42 419.48 C 1829.41 429.65 1829.41 439.82 1829.41 450.00 C 1822.24 450.00 1815.08 450.00 1807.92 450.00 C 1807.91 422.22 1807.92 394.44 1807.93 366.67 M 1829.42 381.99 C 1829.41 389.36 1829.40 396.74 1829.42 404.12 C 1836.22 403.94 1843.59 405.14 1849.85 401.79 C 1856.53 398.28 1856.90 386.53 1849.69 383.44 C 1843.18 381.17 1836.16 382.13 1829.42 381.99 Z" />
<path fill="#000000" opacity="1.00" d=" M 579.29 379.10 C 580.47 379.17 581.65 379.25 582.85 379.33 C 582.39 380.27 581.94 381.22 581.50 382.17 C 587.37 382.65 593.27 382.75 599.13 382.16 C 597.00 383.12 594.90 384.14 592.83 385.24 C 595.24 386.28 597.67 387.28 600.15 388.16 C 593.92 388.47 587.68 388.71 581.45 388.18 C 581.39 394.66 581.76 401.17 580.97 407.62 C 580.24 406.14 579.65 404.58 579.72 402.92 C 579.59 394.98 579.96 387.02 579.29 379.10 Z" />
<path fill="#000000" opacity="1.00" d=" M 112.01 379.26 C 112.93 379.26 114.78 379.26 115.70 379.26 C 115.39 379.98 114.78 381.42 114.47 382.15 C 120.31 382.69 126.19 382.67 132.04 382.25 C 129.96 383.16 127.88 384.07 125.80 384.99 C 127.86 386.01 129.93 387.04 131.99 388.09 C 126.15 388.65 120.29 388.60 114.45 388.17 C 114.38 393.46 114.62 398.76 114.35 404.05 C 114.33 405.39 113.63 406.57 113.08 407.75 C 112.03 398.29 113.59 388.70 112.01 379.26 Z" />
<path fill="#000000" opacity="1.00" d=" M 1071.46 387.78 C 1085.95 384.76 1101.31 382.96 1115.73 387.29 C 1123.01 389.35 1128.66 396.32 1128.87 403.94 C 1129.31 419.29 1128.94 434.65 1129.07 450.00 C 1122.35 450.00 1115.64 449.96 1108.94 449.97 C 1108.94 447.80 1108.96 445.63 1109.01 443.47 C 1099.55 451.65 1084.54 454.63 1073.80 447.22 C 1063.14 440.19 1063.22 421.84 1074.44 415.36 C 1084.95 409.10 1097.69 409.52 1109.47 408.26 C 1108.54 405.31 1107.78 401.52 1104.37 400.52 C 1093.61 396.21 1082.05 400.07 1071.47 402.99 C 1071.46 397.92 1071.46 392.85 1071.46 387.78 M 1090.11 424.13 C 1085.56 426.27 1085.05 434.01 1089.78 436.23 C 1096.08 439.08 1103.22 436.92 1108.92 433.67 C 1109.00 429.39 1108.97 425.12 1108.95 420.84 C 1102.64 421.62 1096.00 421.44 1090.11 424.13 Z" />
<path fill="#000000" opacity="1.00" d=" M 1228.39 387.77 C 1242.12 384.92 1256.54 383.16 1270.33 386.63 C 1278.61 388.07 1285.62 395.39 1285.81 403.94 C 1286.26 419.28 1285.88 434.64 1286.01 450.00 C 1279.29 450.01 1272.57 450.00 1265.85 449.95 C 1265.87 447.78 1265.90 445.62 1265.97 443.46 C 1256.49 451.66 1241.50 454.59 1230.73 447.24 C 1222.41 441.60 1220.57 429.14 1225.76 420.81 C 1228.91 415.94 1234.40 413.24 1239.82 411.71 C 1248.48 409.32 1257.52 409.09 1266.41 408.26 C 1265.49 405.36 1264.79 401.61 1261.45 400.58 C 1250.66 396.19 1239.03 400.05 1228.42 403.01 C 1228.40 397.93 1228.39 392.85 1228.39 387.77 M 1247.14 424.10 C 1242.52 426.17 1241.97 433.98 1246.71 436.23 C 1253.03 439.09 1260.21 436.94 1265.90 433.61 C 1265.93 429.36 1265.91 425.10 1265.90 420.84 C 1259.61 421.59 1253.01 421.45 1247.14 424.10 Z" />
<path fill="#000000" opacity="1.00" d=" M 1324.28 393.36 C 1329.39 389.80 1334.74 386.05 1341.05 385.10 C 1348.14 383.98 1356.19 385.19 1361.45 390.46 C 1366.05 395.02 1367.37 401.76 1367.48 408.00 C 1367.54 421.99 1367.49 435.98 1367.53 449.97 C 1360.73 449.97 1353.93 450.00 1347.14 450.00 C 1347.00 437.64 1347.39 425.28 1346.90 412.93 C 1346.62 409.20 1346.21 404.46 1342.43 402.55 C 1336.43 399.86 1329.78 402.22 1324.27 404.98 C 1324.29 419.98 1324.27 434.99 1324.28 450.00 C 1317.52 450.00 1310.77 450.00 1304.02 450.00 C 1304.02 428.70 1304.01 407.41 1304.02 386.11 C 1310.77 386.11 1317.52 386.10 1324.28 386.12 C 1324.27 388.53 1324.25 390.94 1324.28 393.36 Z" />
<path fill="#000000" opacity="1.00" d=" M 1406.47 385.62 C 1417.80 383.64 1430.68 384.60 1439.87 392.21 C 1450.29 400.86 1452.31 416.01 1449.33 428.56 C 1447.05 438.44 1439.14 446.77 1429.37 449.53 C 1419.90 452.20 1409.55 452.11 1400.27 448.74 C 1391.03 445.34 1384.01 436.76 1382.26 427.11 C 1380.49 417.95 1381.07 407.95 1385.76 399.71 C 1390.01 392.14 1398.01 387.13 1406.47 385.62 M 1411.26 399.26 C 1404.80 401.40 1402.63 408.89 1402.48 415.02 C 1402.12 420.70 1402.42 426.71 1405.15 431.83 C 1409.66 439.70 1423.22 439.36 1427.15 431.11 C 1430.58 423.31 1430.25 414.23 1427.69 406.22 C 1425.47 399.74 1417.39 397.13 1411.26 399.26 Z" />
<path fill="#000000" opacity="1.00" d=" M 1465.09 395.07 C 1470.49 388.68 1478.91 385.81 1487.02 385.04 C 1497.22 383.88 1507.51 385.77 1517.15 389.09 C 1517.19 394.71 1517.18 400.33 1517.14 405.95 C 1507.20 400.85 1495.35 395.82 1484.25 400.28 C 1481.04 401.32 1481.23 406.55 1484.50 407.40 C 1494.16 411.26 1505.82 409.83 1514.28 416.67 C 1521.18 422.16 1521.59 432.88 1516.89 439.92 C 1513.55 445.38 1507.26 447.84 1501.42 449.61 C 1488.03 453.34 1473.67 451.18 1460.87 446.29 C 1460.87 440.45 1460.89 434.62 1460.94 428.78 C 1471.48 434.77 1483.98 439.99 1496.21 436.37 C 1499.65 435.81 1500.60 430.14 1497.02 429.07 C 1487.95 425.51 1477.38 426.47 1469.04 420.91 C 1460.46 415.70 1458.56 402.60 1465.09 395.07 Z" />
<path fill="#000000" opacity="1.00" d=" M 1658.84 392.77 C 1667.07 385.77 1678.49 383.99 1688.97 384.98 C 1697.04 385.56 1705.38 389.07 1709.94 396.04 C 1715.13 403.69 1714.97 413.33 1714.92 422.19 C 1699.34 422.27 1683.76 422.16 1668.18 422.29 C 1669.16 426.98 1671.03 432.09 1675.55 434.46 C 1682.35 437.99 1690.47 438.13 1697.83 436.49 C 1703.44 435.31 1708.33 432.14 1713.63 430.08 C 1713.72 435.55 1713.69 441.03 1713.62 446.51 C 1700.74 451.23 1686.55 452.90 1673.08 449.87 C 1665.33 448.33 1658.01 444.12 1653.38 437.64 C 1649.26 432.00 1648.04 424.81 1648.00 417.98 C 1647.97 408.60 1651.45 398.84 1658.84 392.77 M 1671.54 402.46 C 1669.46 404.28 1668.71 407.01 1667.94 409.55 C 1676.95 409.84 1685.98 409.72 1695.01 409.67 C 1694.11 406.42 1693.64 402.43 1690.42 400.60 C 1684.59 397.33 1676.51 397.84 1671.54 402.46 Z" />
<path fill="#000000" opacity="1.00" d=" M 1901.98 393.93 C 1910.13 386.11 1922.12 383.96 1933.04 384.96 C 1941.14 385.46 1949.57 388.86 1954.23 395.81 C 1959.57 403.48 1959.42 413.24 1959.36 422.19 C 1943.79 422.29 1928.21 422.14 1912.64 422.29 C 1913.62 426.60 1915.06 431.35 1919.04 433.84 C 1925.25 437.71 1933.00 438.05 1940.07 436.92 C 1946.55 436.14 1952.08 432.39 1958.08 430.12 C 1958.13 435.61 1958.21 441.12 1957.95 446.62 C 1945.47 451.02 1931.86 452.82 1918.80 450.15 C 1906.07 448.29 1894.29 438.28 1892.99 425.05 C 1891.19 414.10 1893.66 401.75 1901.98 393.93 M 1917.19 401.22 C 1914.33 403.07 1913.60 406.62 1912.51 409.59 C 1921.50 409.80 1930.50 409.75 1939.50 409.66 C 1938.56 406.35 1937.97 402.23 1934.63 400.41 C 1929.22 397.67 1922.32 398.01 1917.19 401.22 Z" />
<path fill="#000000" opacity="1.00" d=" M 2032.61 393.34 C 2038.14 389.48 2044.05 385.45 2050.98 384.88 C 2058.44 384.00 2066.92 386.13 2071.51 392.47 C 2075.60 398.07 2075.89 405.32 2075.87 412.00 C 2075.85 424.66 2075.86 437.32 2075.86 449.98 C 2069.06 449.96 2062.26 450.01 2055.47 449.99 C 2055.34 437.67 2055.71 425.34 2055.24 413.03 C 2054.95 409.24 2054.56 404.34 2050.66 402.49 C 2044.68 399.88 2038.09 402.24 2032.61 404.96 C 2032.63 419.97 2032.60 434.98 2032.62 449.99 C 2025.85 450.00 2019.09 450.01 2012.34 449.97 C 2012.35 428.68 2012.35 407.40 2012.35 386.11 C 2019.09 386.11 2025.85 386.10 2032.61 386.12 C 2032.60 388.52 2032.59 390.93 2032.61 393.34 Z" />
<path fill="#000000" opacity="1.00" d=" M 2117.21 385.23 C 2127.98 383.81 2139.99 385.16 2148.53 392.47 C 2159.13 401.64 2160.81 417.47 2157.18 430.32 C 2154.41 439.52 2146.72 447.05 2137.45 449.59 C 2127.96 452.20 2117.59 452.10 2108.34 448.62 C 2099.11 445.16 2092.25 436.49 2090.51 426.85 C 2088.74 417.17 2089.52 406.47 2095.10 398.09 C 2099.98 390.67 2108.51 386.23 2117.21 385.23 M 2118.46 399.68 C 2112.09 402.80 2110.76 410.67 2110.70 417.06 C 2110.59 422.46 2111.07 428.28 2114.19 432.89 C 2119.11 439.33 2130.73 439.12 2134.95 431.99 C 2137.70 427.51 2137.97 422.06 2137.88 416.94 C 2137.70 411.87 2137.05 406.35 2133.63 402.34 C 2129.87 398.24 2123.41 397.77 2118.46 399.68 Z" />
<path fill="#000000" opacity="1.00" d=" M 869.29 386.11 C 876.04 386.11 882.80 386.10 889.56 386.12 C 889.56 407.41 889.55 428.70 889.56 449.99 C 882.80 450.00 876.04 450.00 869.29 450.00 C 869.29 428.70 869.29 407.41 869.29 386.11 Z" />
<path fill="#000000" opacity="1.00" d=" M 907.68 386.11 C 914.47 386.11 921.26 386.11 928.05 386.11 C 928.15 398.58 927.87 411.05 928.21 423.51 C 928.43 427.33 929.20 432.15 933.22 433.78 C 939.13 436.10 945.52 433.80 950.92 431.18 C 950.89 416.16 950.92 401.13 950.92 386.11 C 957.66 386.11 964.40 386.11 971.15 386.11 C 971.15 407.41 971.15 428.70 971.15 450.00 C 964.40 450.00 957.66 450.00 950.92 450.00 C 950.91 447.57 950.91 445.15 950.91 442.73 C 945.73 446.30 940.39 450.26 933.97 451.07 C 926.85 452.06 918.72 450.95 913.53 445.53 C 909.06 440.91 907.78 434.22 907.71 428.01 C 907.65 414.04 907.69 400.08 907.68 386.11 Z" />
<path fill="#000000" opacity="1.00" d=" M 1973.46 386.12 C 1980.21 386.10 1986.96 386.11 1993.72 386.11 C 1993.72 407.41 1993.72 428.70 1993.72 450.00 C 1986.96 450.00 1980.20 450.01 1973.45 449.97 C 1973.46 428.68 1973.46 407.40 1973.46 386.12 Z" />
</g>
</svg>
