<?xml version="1.0" encoding="UTF-8" ?>
<!DOCTYPE svg PUBLIC "-//W3C//DTD SVG 1.1//EN" "http://www.w3.org/Graphics/SVG/1.1/DTD/svg11.dtd">
<svg width="2160pt" height="695pt" viewBox="0 0 2160 695" version="1.1" xmlns="http://www.w3.org/2000/svg">
<g id="#0f4ac2ff">
<path fill="#0f4ac2" opacity="1.00" d=" M 297.17 4.29 C 300.83 1.86 305.20 2.98 309.05 1.43 C 313.74 2.08 318.37 0.59 323.06 1.22 C 317.42 2.17 311.58 1.59 306.00 2.97 C 303.34 3.87 300.60 4.54 297.79 4.57 C 294.39 6.22 290.58 6.90 286.82 6.71 C 281.03 9.11 274.67 8.92 268.67 10.37 C 266.62 10.60 264.54 10.33 262.49 10.66 L 262.03 10.71 C 264.70 10.10 267.19 8.48 270.00 8.62 C 274.49 8.77 278.59 6.55 283.02 6.21 C 287.76 5.78 292.39 4.15 297.17 4.29 Z" />
<path fill="#0f4ac2" opacity="1.00" d=" M 316.06 6.96 C 380.35 0.57 446.31 13.71 503.65 43.37 C 563.44 74.08 613.72 122.90 646.17 181.77 C 664.80 215.33 677.73 252.06 684.07 289.94 C 692.25 337.70 690.02 387.19 677.78 434.07 C 664.97 482.78 641.27 528.67 608.70 567.10 C 608.61 518.80 608.68 470.50 608.64 422.20 C 607.04 421.33 605.44 420.48 603.85 419.64 C 603.82 421.11 603.80 422.59 603.79 424.08 C 602.96 423.62 602.14 423.16 601.32 422.72 C 601.29 421.18 601.26 419.65 601.24 418.12 C 599.62 417.37 598.01 416.62 596.40 415.88 C 596.40 416.95 596.41 419.08 596.41 420.15 C 594.01 419.52 594.24 417.09 593.67 415.21 C 592.82 413.38 590.80 412.64 589.20 411.65 C 589.09 413.37 588.97 415.08 588.85 416.81 C 586.62 415.49 586.33 412.95 586.25 410.61 C 584.78 409.65 583.24 408.80 581.65 408.07 C 581.74 469.40 581.66 530.73 581.69 592.05 C 581.79 593.85 581.11 595.54 580.47 597.19 C 579.76 581.47 580.05 565.72 579.96 550.00 C 579.97 502.80 580.00 455.61 579.96 408.42 C 577.68 409.13 575.43 409.94 573.22 410.80 C 573.17 412.26 573.13 413.72 573.10 415.19 C 571.95 415.66 570.81 416.14 569.67 416.62 C 569.62 415.13 569.57 413.65 569.52 412.17 C 567.48 412.81 565.45 413.51 563.45 414.27 C 563.08 416.99 562.11 419.65 559.47 420.88 C 559.30 419.21 559.17 417.54 559.04 415.87 C 556.85 416.60 554.69 417.43 552.62 418.44 C 552.43 419.96 552.22 421.47 552.04 422.99 C 550.98 423.35 549.92 423.72 548.87 424.10 C 548.75 422.69 548.65 421.29 548.55 419.89 C 545.86 420.63 541.34 421.15 541.83 424.95 C 541.84 492.59 541.73 560.24 541.87 627.88 C 534.24 633.73 525.87 638.52 517.66 643.49 C 517.57 557.40 517.74 471.31 517.57 385.22 C 514.61 383.00 511.06 381.92 507.48 381.21 C 507.16 383.44 506.99 385.69 506.89 387.95 C 505.03 387.22 503.16 386.51 501.30 385.81 C 501.11 383.44 501.71 380.77 500.38 378.66 C 497.46 376.78 494.03 375.99 490.72 375.11 C 490.60 377.34 490.48 379.58 490.39 381.81 C 488.58 381.21 486.77 380.61 484.98 380.01 C 484.78 377.66 485.00 375.20 484.13 372.97 C 481.34 370.57 477.53 369.97 474.05 369.19 C 474.02 371.43 474.00 373.67 473.98 375.92 C 472.08 375.21 470.18 374.51 468.28 373.80 C 467.95 371.16 469.15 367.21 466.10 365.85 C 463.48 364.45 460.52 363.86 457.68 363.09 C 457.04 464.04 457.67 564.99 457.29 665.95 C 457.27 668.19 457.40 670.64 455.44 672.19 C 454.78 669.86 454.81 667.42 454.85 665.04 C 454.37 564.13 454.91 463.22 454.54 362.31 C 452.28 363.46 449.89 364.40 447.87 365.94 C 446.59 368.13 447.20 370.82 447.09 373.23 C 445.73 374.01 444.37 374.78 443.02 375.57 C 442.98 373.21 442.95 370.85 442.91 368.50 C 440.45 369.78 437.51 370.59 435.68 372.77 C 435.18 374.95 435.41 377.21 435.39 379.42 C 434.03 380.17 432.66 380.92 431.31 381.67 C 431.28 379.33 431.26 376.99 431.23 374.66 C 428.66 375.88 425.79 376.79 423.84 378.96 C 423.56 381.19 423.66 383.44 423.66 385.69 C 422.30 386.38 420.94 387.07 419.59 387.77 C 419.59 385.47 419.59 383.18 419.58 380.89 C 416.90 381.91 414.36 383.24 412.00 384.87 C 412.08 440.27 411.59 495.66 411.89 551.06 C 412.27 594.97 411.74 638.89 411.76 682.80 C 409.89 683.80 408.85 683.30 409.26 681.09 C 409.29 570.06 409.23 459.03 409.30 348.00 C 409.40 346.26 408.99 344.58 408.18 343.06 C 402.08 343.17 395.97 342.89 389.88 343.14 C 388.75 343.09 387.37 343.77 387.50 345.08 C 387.17 350.19 387.43 355.32 387.38 360.45 C 383.34 360.50 379.30 360.49 375.26 360.51 C 374.95 355.10 375.86 349.53 374.72 344.22 C 374.47 343.99 373.98 343.52 373.73 343.29 C 367.13 342.75 360.49 343.19 353.88 343.10 C 352.87 348.85 353.41 354.68 353.38 360.48 C 349.28 360.50 345.18 360.51 341.09 360.44 C 341.06 354.76 341.80 349.02 340.49 343.42 C 335.01 342.85 329.49 343.07 323.98 343.06 C 322.49 343.21 320.42 342.74 319.56 344.35 C 318.94 349.68 319.29 355.05 319.38 360.40 C 315.32 360.53 311.27 360.49 307.22 360.51 C 307.19 355.00 307.30 349.48 306.95 343.98 C 305.71 343.45 304.42 343.00 303.06 343.07 C 297.28 342.99 291.50 343.09 285.73 343.11 C 284.85 348.69 285.18 354.36 285.14 359.99 C 285.11 467.86 285.20 575.73 285.11 683.60 C 283.37 683.42 282.55 682.58 282.65 681.05 C 282.48 583.35 282.66 485.64 282.57 387.94 C 282.95 383.74 277.98 382.81 275.07 381.43 C 274.99 383.69 274.89 385.96 274.78 388.23 C 273.50 387.52 272.21 386.83 270.93 386.13 C 270.88 383.87 271.05 381.56 270.52 379.34 C 268.69 377.23 265.84 376.46 263.42 375.24 C 263.28 377.53 263.14 379.83 263.04 382.13 C 261.77 381.39 260.51 380.66 259.25 379.93 C 259.20 377.64 259.10 375.35 258.97 373.07 C 256.66 371.37 254.12 370.05 251.47 368.97 C 251.46 371.29 251.44 373.61 251.43 375.94 C 250.10 375.23 248.79 374.53 247.49 373.81 C 247.49 371.55 247.68 369.23 247.04 367.03 C 245.20 364.85 242.29 364.08 239.82 362.87 C 239.55 465.95 239.95 569.03 239.60 672.11 C 237.99 671.55 237.21 670.52 237.26 669.02 C 237.24 618.02 236.72 567.02 237.13 516.02 C 237.34 465.19 236.99 414.36 236.92 363.53 C 233.54 364.41 229.97 365.11 227.08 367.18 C 226.02 369.48 226.36 372.15 225.92 374.61 C 224.16 375.13 222.40 375.67 220.64 376.21 C 220.59 373.97 220.54 371.73 220.47 369.49 C 217.04 370.46 213.30 371.07 210.45 373.36 C 209.58 375.59 209.83 378.05 209.66 380.39 C 207.85 380.99 206.05 381.60 204.25 382.21 C 204.06 379.91 203.89 377.62 203.68 375.33 C 200.46 376.51 197.01 377.27 194.10 379.16 C 192.86 381.27 193.53 383.90 193.33 386.23 C 191.44 386.94 189.55 387.65 187.66 388.37 C 187.58 386.16 187.66 383.93 187.16 381.77 C 183.41 382.72 177.13 383.02 176.78 387.99 C 176.73 473.13 176.78 558.28 176.77 643.42 C 168.47 638.44 160.21 633.36 152.25 627.85 C 152.36 569.54 152.27 511.24 152.30 452.93 C 152.20 442.97 152.50 432.99 152.18 423.04 C 150.83 420.99 148.13 420.58 146.06 419.55 C 145.84 421.02 145.64 422.50 145.43 423.99 C 144.31 423.67 143.19 423.34 142.07 423.01 C 141.93 421.42 141.80 419.84 141.66 418.25 C 139.49 417.45 137.31 416.68 135.13 415.92 C 135.10 417.52 135.05 419.12 135.01 420.73 C 132.73 420.11 131.56 418.28 131.27 416.05 C 130.77 413.00 126.97 413.21 124.73 412.30 C 124.70 413.72 124.67 415.14 124.64 416.58 C 123.54 416.19 122.44 415.81 121.33 415.44 C 121.16 413.89 121.02 412.34 120.89 410.80 C 118.76 409.92 116.62 409.06 114.47 408.24 C 114.38 433.49 114.02 458.74 114.13 484.00 C 114.06 516.66 114.56 549.32 114.12 581.98 C 113.80 587.11 114.80 592.40 113.41 597.41 C 112.19 593.71 112.64 589.78 112.59 585.96 C 112.58 526.60 112.69 467.25 112.54 407.89 C 111.10 408.67 109.64 409.41 108.31 410.37 C 107.64 412.65 107.79 415.42 105.41 416.77 C 105.29 415.06 105.19 413.35 105.10 411.64 C 101.95 412.79 99.57 415.45 99.89 418.99 C 99.41 419.28 98.44 419.86 97.96 420.15 C 97.84 418.70 97.73 417.26 97.61 415.83 C 96.15 416.58 94.70 417.33 93.25 418.09 C 92.94 420.29 93.20 423.25 90.63 424.16 C 90.50 422.70 90.38 421.23 90.27 419.77 C 88.75 420.52 87.23 421.27 85.71 422.02 C 85.13 470.31 85.62 518.62 85.44 566.91 C 58.55 534.72 37.48 497.66 23.88 457.97 C -0.67 386.24 -0.56 306.27 24.53 234.69 C 43.29 180.70 75.97 131.67 118.47 93.46 C 172.70 44.31 243.10 13.29 316.06 6.96 M 326.67 53.16 C 323.82 67.86 328.15 82.68 332.69 96.56 C 337.08 110.15 343.37 123.00 348.92 136.12 C 343.23 129.41 339.37 121.41 335.29 113.67 C 326.24 95.28 318.84 75.41 318.80 54.65 C 311.56 67.42 310.63 82.73 312.13 97.03 C 315.68 118.91 326.49 138.58 336.89 157.83 C 324.77 143.37 313.76 127.54 307.65 109.54 C 305.98 105.05 305.17 100.32 303.80 95.74 C 299.58 106.89 298.43 119.29 301.28 130.91 C 303.89 141.34 310.31 150.21 315.76 159.32 C 323.24 171.36 330.73 183.42 338.97 194.97 C 342.19 199.85 346.33 204.89 346.08 211.08 C 345.82 215.95 341.30 218.75 338.13 221.81 C 343.84 223.57 349.96 224.70 355.90 223.40 C 365.93 221.25 374.21 213.91 379.14 205.10 C 385.57 193.99 386.89 180.65 385.56 168.09 C 384.24 155.98 379.87 144.47 374.54 133.60 C 365.44 114.67 353.95 97.00 345.11 77.93 C 340.37 67.18 337.28 55.70 336.06 44.01 C 335.50 39.16 336.78 34.38 337.86 29.69 C 331.18 35.63 328.29 44.63 326.67 53.16 M 351.72 68.87 C 355.04 85.73 363.30 101.07 372.52 115.38 C 378.99 126.04 385.17 136.88 390.81 148.01 C 385.64 124.32 373.96 102.77 366.07 79.98 C 361.04 64.85 359.50 48.27 364.02 32.81 C 354.73 42.11 349.59 55.76 351.72 68.87 M 394.31 153.93 C 398.81 163.77 401.76 174.30 402.87 185.07 C 408.98 174.70 414.22 163.83 420.54 153.58 C 422.17 150.50 425.04 148.46 427.94 146.68 C 424.13 142.73 418.70 145.35 414.01 144.40 C 406.27 144.05 400.45 150.13 394.31 153.93 M 385.07 146.55 C 387.87 158.47 390.06 170.73 389.05 183.02 C 388.27 194.18 385.03 205.38 378.52 214.58 C 371.02 224.55 358.19 229.17 346.03 229.39 C 334.80 229.30 325.12 222.20 313.97 221.57 C 305.45 220.49 296.52 223.72 290.76 230.11 C 295.38 230.65 300.34 231.21 303.97 234.43 C 303.88 234.62 303.69 234.99 303.60 235.18 C 297.26 236.05 290.77 237.02 285.05 240.11 C 277.32 244.03 271.45 251.19 268.77 259.40 C 275.22 257.03 281.22 252.64 288.41 253.12 C 281.07 258.37 273.11 263.75 269.29 272.28 C 264.31 282.35 266.41 294.46 271.68 303.98 C 275.21 289.42 286.93 278.44 299.96 271.97 C 316.28 263.07 334.03 257.39 351.12 250.24 C 363.46 245.21 375.09 237.95 384.14 228.08 C 391.66 219.93 396.83 209.57 398.27 198.53 C 400.73 180.35 394.93 161.74 385.07 146.55 M 235.48 317.49 C 236.08 319.27 236.91 321.02 236.99 322.93 C 237.24 335.19 236.74 347.47 237.24 359.72 C 237.83 360.04 239.01 360.68 239.60 361.00 C 240.25 351.01 239.81 340.99 239.94 330.98 C 249.03 331.79 258.23 332.09 267.28 330.73 C 264.14 329.17 260.96 327.72 257.92 325.98 C 261.24 324.31 264.65 322.83 268.05 321.33 C 258.74 322.34 249.33 322.40 240.02 321.35 C 240.74 320.16 241.47 318.98 242.20 317.79 C 240.09 316.61 237.70 316.56 235.48 317.49 M 453.25 317.52 C 455.51 322.05 454.60 327.16 454.75 332.02 C 454.81 340.68 454.66 349.34 454.80 358.00 C 454.55 359.67 456.06 360.55 457.13 361.47 C 458.19 351.35 457.43 341.14 457.65 330.98 C 466.84 331.83 476.16 332.07 485.32 330.74 C 482.09 329.27 478.87 327.78 475.77 326.06 C 479.12 324.26 482.61 322.73 486.12 321.26 C 476.77 322.39 467.31 322.39 457.96 321.37 C 458.54 320.20 459.14 319.03 459.75 317.87 C 457.87 316.12 455.39 316.72 453.25 317.52 M 111.84 379.04 C 113.44 388.36 112.31 397.83 112.79 407.23 L 114.01 406.54 C 115.13 400.53 114.35 394.34 114.55 388.26 C 120.23 388.63 125.98 388.90 131.64 388.08 C 129.90 386.91 128.02 385.97 126.19 384.97 C 128.15 384.02 130.16 383.21 132.15 382.33 C 126.33 382.37 120.50 382.67 114.71 382.08 C 114.94 381.43 115.42 380.14 115.65 379.49 C 114.45 379.11 113.18 378.96 111.84 379.04 M 579.17 378.96 C 580.30 388.27 578.91 397.73 580.23 406.98 L 581.17 406.85 C 581.91 400.69 581.45 394.46 581.56 388.27 C 587.43 388.57 593.41 389.07 599.22 387.90 C 597.19 386.99 595.14 386.14 593.11 385.28 C 595.05 384.18 597.06 383.22 599.12 382.34 C 593.28 382.36 587.42 382.68 581.60 382.07 C 581.95 381.38 582.64 380.01 582.98 379.32 C 581.70 379.19 580.43 379.07 579.17 378.96 Z" />
<path fill="#0f4ac2" opacity="1.00" d=" M 40.07 185.11 C 41.47 181.15 43.40 177.38 45.91 174.00 C 43.99 177.72 41.86 181.33 40.07 185.11 Z" />
<path fill="#0f4ac2" opacity="1.00" d=" M 333.55 443.93 C 333.38 437.71 338.14 431.96 344.13 430.59 C 351.89 428.57 360.77 434.86 360.71 443.00 C 360.84 451.50 360.75 459.99 360.72 468.49 C 351.68 468.68 342.65 468.82 333.62 468.41 C 333.51 460.24 333.51 452.08 333.55 443.93 Z" />
<path fill="#0f4ac2" opacity="1.00" d=" M 127.68 477.59 C 131.21 473.28 138.09 476.83 139.38 481.39 C 140.06 486.13 139.67 490.94 139.64 495.72 C 135.24 495.00 130.73 494.41 126.70 492.38 C 126.80 487.48 125.59 482.22 127.68 477.59 Z" />
<path fill="#0f4ac2" opacity="1.00" d=" M 554.63 482.13 C 555.42 478.74 558.56 476.09 561.96 475.61 C 564.59 475.27 567.42 477.37 567.45 480.11 C 567.79 484.41 567.58 488.73 567.35 493.03 C 563.07 493.94 558.84 495.11 554.51 495.73 C 554.45 491.20 554.13 486.64 554.63 482.13 Z" />
<path fill="#0f4ac2" opacity="1.00" d=" M 199.02 501.93 C 200.81 498.24 204.81 495.60 209.00 496.26 C 212.03 496.05 214.98 498.83 214.68 501.92 C 214.68 507.59 215.21 513.33 214.29 518.96 C 209.14 520.34 203.91 521.43 198.67 522.42 C 197.03 521.49 197.71 519.49 197.55 517.98 C 197.75 512.64 196.48 506.91 199.02 501.93 Z" />
<path fill="#0f4ac2" opacity="1.00" d=" M 478.64 502.94 C 478.68 499.60 481.23 495.69 485.00 496.22 C 490.74 495.47 495.65 500.83 496.17 506.25 C 496.66 511.62 496.21 517.01 496.15 522.40 C 490.33 521.13 484.25 520.69 478.80 518.08 C 478.58 513.04 478.51 507.99 478.64 502.94 Z" />
<path fill="#0f4ac2" opacity="1.00" d=" M 333.55 592.90 C 333.30 585.70 339.83 579.05 347.06 579.33 C 354.34 578.78 361.30 585.62 360.74 592.93 C 360.81 600.99 360.76 609.05 360.73 617.11 C 351.71 617.79 342.64 617.66 333.61 617.18 C 333.50 609.09 333.51 600.99 333.55 592.90 Z" />
</g>
<g id="#ffffffff">
<path fill="#ffffff" opacity="1.00" d=" M 323.06 1.22 C 386.77 -3.51 451.68 10.21 508.26 39.80 C 573.86 74.15 627.96 130.06 659.94 196.87 C 677.74 233.88 688.85 274.08 692.68 314.97 C 700.01 391.75 680.77 470.88 638.68 535.54 C 605.63 586.73 558.85 628.92 504.56 656.57 C 461.66 678.49 414.12 691.23 366.01 693.67 C 356.02 694.11 346.00 695.06 336.00 694.01 C 292.58 692.53 249.44 682.92 209.54 665.71 C 144.64 637.82 88.85 589.40 51.81 529.29 C 26.05 487.70 9.52 440.54 3.16 392.05 C -5.17 328.66 4.53 263.00 30.81 204.71 C 33.91 198.18 36.56 191.44 40.07 185.11 C 41.86 181.33 43.99 177.72 45.91 174.00 C 48.49 168.67 52.31 164.11 55.42 159.10 C 67.46 141.25 80.60 124.12 95.43 108.50 C 99.18 103.53 103.57 99.14 108.55 95.40 C 148.13 57.81 196.69 29.76 249.10 14.44 C 253.54 13.09 258.03 11.91 262.49 10.66 C 264.54 10.33 266.62 10.60 268.67 10.37 C 274.67 8.92 281.03 9.11 286.82 6.71 C 290.58 6.90 294.39 6.22 297.79 4.57 C 300.60 4.54 303.34 3.87 306.00 2.97 C 311.58 1.59 317.42 2.17 323.06 1.22 M 316.06 6.96 C 243.10 13.29 172.70 44.31 118.47 93.46 C 75.97 131.67 43.29 180.70 24.53 234.69 C -0.56 306.27 -0.67 386.24 23.88 457.97 C 37.48 497.66 58.55 534.72 85.44 566.91 C 85.62 518.62 85.13 470.31 85.71 422.02 C 87.23 421.27 88.75 420.52 90.27 419.77 C 90.38 421.23 90.50 422.70 90.63 424.16 C 93.20 423.25 92.94 420.29 93.25 418.09 C 94.70 417.33 96.15 416.58 97.61 415.83 C 97.73 417.26 97.84 418.70 97.96 420.15 C 98.44 419.86 99.41 419.28 99.89 418.99 C 99.57 415.45 101.95 412.79 105.10 411.64 C 105.19 413.35 105.29 415.06 105.41 416.77 C 107.79 415.42 107.64 412.65 108.31 410.37 C 109.64 409.41 111.10 408.67 112.54 407.89 C 112.69 467.25 112.58 526.60 112.59 585.96 C 112.64 589.78 112.19 593.71 113.41 597.41 C 114.80 592.40 113.80 587.11 114.12 581.98 C 114.56 549.32 114.06 516.66 114.13 484.00 C 114.02 458.74 114.38 433.49 114.47 408.24 C 116.62 409.06 118.76 409.92 120.89 410.80 C 121.02 412.34 121.16 413.89 121.33 415.44 C 122.44 415.81 123.54 416.19 124.64 416.58 C 124.67 415.14 124.70 413.72 124.73 412.30 C 126.97 413.21 130.77 413.00 131.27 416.05 C 131.56 418.28 132.73 420.11 135.01 420.73 C 135.05 419.12 135.10 417.52 135.13 415.92 C 137.31 416.68 139.49 417.45 141.66 418.25 C 141.80 419.84 141.93 421.42 142.07 423.01 C 143.19 423.34 144.31 423.67 145.43 423.99 C 145.64 422.50 145.84 421.02 146.06 419.55 C 148.13 420.58 150.83 420.99 152.18 423.04 C 152.50 432.99 152.20 442.97 152.30 452.93 C 152.27 511.24 152.36 569.54 152.25 627.85 C 160.21 633.36 168.47 638.44 176.77 643.42 C 176.78 558.28 176.73 473.13 176.78 387.99 C 177.13 383.02 183.41 382.72 187.16 381.77 C 187.66 383.93 187.58 386.16 187.66 388.37 C 189.55 387.65 191.44 386.94 193.33 386.23 C 193.53 383.90 192.86 381.27 194.10 379.16 C 197.01 377.27 200.46 376.51 203.68 375.33 C 203.89 377.62 204.06 379.91 204.25 382.21 C 206.05 381.60 207.85 380.99 209.66 380.39 C 209.83 378.05 209.58 375.59 210.45 373.36 C 213.30 371.07 217.04 370.46 220.47 369.49 C 220.54 371.73 220.59 373.97 220.64 376.21 C 222.40 375.67 224.16 375.13 225.92 374.61 C 226.36 372.15 226.02 369.48 227.08 367.18 C 229.97 365.11 233.54 364.41 236.92 363.53 C 236.99 414.36 237.34 465.19 237.13 516.02 C 236.72 567.02 237.24 618.02 237.26 669.02 C 237.21 670.52 237.99 671.55 239.60 672.11 C 239.95 569.03 239.55 465.95 239.82 362.87 C 242.29 364.08 245.20 364.85 247.04 367.03 C 247.68 369.23 247.49 371.55 247.49 373.81 C 248.79 374.53 250.10 375.23 251.43 375.94 C 251.44 373.61 251.46 371.29 251.47 368.97 C 254.12 370.05 256.66 371.37 258.97 373.07 C 259.10 375.35 259.20 377.64 259.25 379.93 C 260.51 380.66 261.77 381.39 263.04 382.13 C 263.14 379.83 263.28 377.53 263.42 375.24 C 265.84 376.46 268.69 377.23 270.52 379.34 C 271.05 381.56 270.88 383.87 270.93 386.13 C 272.21 386.83 273.50 387.52 274.78 388.23 C 274.89 385.96 274.99 383.69 275.07 381.43 C 277.98 382.81 282.95 383.74 282.57 387.94 C 282.66 485.64 282.48 583.35 282.65 681.05 C 282.55 682.58 283.37 683.42 285.11 683.60 C 285.20 575.73 285.11 467.86 285.14 359.99 C 285.18 354.36 284.85 348.69 285.73 343.11 C 291.50 343.09 297.28 342.99 303.06 343.07 C 304.42 343.00 305.71 343.45 306.95 343.98 C 307.30 349.48 307.19 355.00 307.22 360.51 C 311.27 360.49 315.32 360.53 319.38 360.40 C 319.29 355.05 318.94 349.68 319.56 344.35 C 320.42 342.74 322.49 343.21 323.98 343.06 C 329.49 343.07 335.01 342.85 340.49 343.42 C 341.80 349.02 341.06 354.76 341.09 360.44 C 345.18 360.51 349.28 360.50 353.38 360.48 C 353.41 354.68 352.87 348.85 353.88 343.10 C 360.49 343.19 367.13 342.75 373.73 343.29 C 373.98 343.52 374.47 343.99 374.72 344.22 C 375.86 349.53 374.95 355.10 375.26 360.51 C 379.30 360.49 383.34 360.50 387.38 360.45 C 387.43 355.32 387.17 350.19 387.50 345.08 C 387.37 343.77 388.75 343.09 389.88 343.14 C 395.97 342.89 402.08 343.17 408.18 343.06 C 408.99 344.58 409.40 346.26 409.30 348.00 C 409.23 459.03 409.29 570.06 409.26 681.09 C 408.85 683.30 409.89 683.80 411.76 682.80 C 411.74 638.89 412.27 594.97 411.89 551.06 C 411.59 495.66 412.08 440.27 412.00 384.87 C 414.36 383.24 416.90 381.91 419.58 380.89 C 419.59 383.18 419.59 385.47 419.59 387.77 C 420.94 387.07 422.30 386.38 423.66 385.69 C 423.66 383.44 423.56 381.19 423.84 378.96 C 425.79 376.79 428.66 375.88 431.23 374.66 C 431.26 376.99 431.28 379.33 431.31 381.67 C 432.66 380.92 434.03 380.17 435.39 379.42 C 435.41 377.21 435.18 374.95 435.68 372.77 C 437.51 370.59 440.45 369.78 442.91 368.50 C 442.95 370.85 442.98 373.21 443.02 375.57 C 444.37 374.78 445.73 374.01 447.09 373.23 C 447.20 370.82 446.59 368.13 447.87 365.94 C 449.89 364.40 452.28 363.46 454.54 362.31 C 454.91 463.22 454.37 564.13 454.85 665.04 C 454.81 667.42 454.78 669.86 455.44 672.19 C 457.40 670.64 457.27 668.19 457.29 665.95 C 457.67 564.99 457.04 464.04 457.68 363.09 C 460.52 363.86 463.48 364.45 466.10 365.85 C 469.15 367.21 467.95 371.16 468.28 373.80 C 470.18 374.51 472.08 375.21 473.98 375.92 C 474.00 373.67 474.02 371.43 474.05 369.19 C 477.53 369.97 481.34 370.57 484.13 372.97 C 485.00 375.20 484.78 377.66 484.98 380.01 C 486.77 380.61 488.58 381.21 490.39 381.81 C 490.48 379.58 490.60 377.34 490.72 375.11 C 494.03 375.99 497.46 376.78 500.38 378.66 C 501.71 380.77 501.11 383.44 501.30 385.81 C 503.16 386.51 505.03 387.22 506.89 387.95 C 506.99 385.69 507.16 383.44 507.48 381.21 C 511.06 381.92 514.61 383.00 517.57 385.22 C 517.74 471.31 517.57 557.40 517.66 643.49 C 525.87 638.52 534.24 633.73 541.87 627.88 C 541.73 560.24 541.84 492.59 541.83 424.95 C 541.34 421.15 545.86 420.63 548.55 419.89 C 548.65 421.29 548.75 422.69 548.87 424.10 C 549.92 423.72 550.98 423.35 552.04 422.99 C 552.22 421.47 552.43 419.96 552.62 418.44 C 554.69 417.43 556.85 416.60 559.04 415.87 C 559.17 417.54 559.30 419.21 559.47 420.88 C 562.11 419.65 563.08 416.99 563.45 414.27 C 565.45 413.51 567.48 412.81 569.52 412.17 C 569.57 413.65 569.62 415.13 569.67 416.62 C 570.81 416.14 571.95 415.66 573.10 415.19 C 573.13 413.72 573.17 412.26 573.22 410.80 C 575.43 409.94 577.68 409.13 579.96 408.42 C 580.00 455.61 579.97 502.80 579.96 550.00 C 580.05 565.72 579.76 581.47 580.47 597.19 C 581.11 595.54 581.79 593.85 581.69 592.05 C 581.66 530.73 581.74 469.40 581.65 408.07 C 583.24 408.80 584.78 409.65 586.25 410.61 C 586.33 412.95 586.62 415.49 588.85 416.81 C 588.97 415.08 589.09 413.37 589.20 411.65 C 590.80 412.64 592.82 413.38 593.67 415.21 C 594.24 417.09 594.01 419.52 596.41 420.15 C 596.41 419.08 596.40 416.95 596.40 415.88 C 598.01 416.62 599.62 417.37 601.24 418.12 C 601.26 419.65 601.29 421.18 601.32 422.72 C 602.14 423.16 602.96 423.62 603.79 424.08 C 603.80 422.59 603.82 421.11 603.85 419.64 C 605.44 420.48 607.04 421.33 608.64 422.20 C 608.68 470.50 608.61 518.80 608.70 567.10 C 641.27 528.67 664.97 482.78 677.78 434.07 C 690.02 387.19 692.25 337.70 684.07 289.94 C 677.73 252.06 664.80 215.33 646.17 181.77 C 613.72 122.90 563.44 74.08 503.65 43.37 C 446.31 13.71 380.35 0.57 316.06 6.96 M 333.55 443.93 C 333.51 452.08 333.51 460.24 333.62 468.41 C 342.65 468.82 351.68 468.68 360.72 468.49 C 360.75 459.99 360.84 451.50 360.71 443.00 C 360.77 434.86 351.89 428.57 344.13 430.59 C 338.14 431.96 333.38 437.71 333.55 443.93 M 127.68 477.59 C 125.59 482.22 126.80 487.48 126.70 492.38 C 130.73 494.41 135.24 495.00 139.64 495.72 C 139.67 490.94 140.06 486.13 139.38 481.39 C 138.09 476.83 131.21 473.28 127.68 477.59 M 554.63 482.13 C 554.13 486.64 554.45 491.20 554.51 495.73 C 558.84 495.11 563.07 493.94 567.35 493.03 C 567.58 488.73 567.79 484.41 567.45 480.11 C 567.42 477.37 564.59 475.27 561.96 475.61 C 558.56 476.09 555.42 478.74 554.63 482.13 M 199.02 501.93 C 196.48 506.91 197.75 512.64 197.55 517.98 C 197.71 519.49 197.03 521.49 198.67 522.42 C 203.91 521.43 209.14 520.34 214.29 518.96 C 215.21 513.33 214.68 507.59 214.68 501.92 C 214.98 498.83 212.03 496.05 209.00 496.26 C 204.81 495.60 200.81 498.24 199.02 501.93 M 478.64 502.94 C 478.51 507.99 478.58 513.04 478.80 518.08 C 484.25 520.69 490.33 521.13 496.15 522.40 C 496.21 517.01 496.66 511.62 496.17 506.25 C 495.65 500.83 490.74 495.47 485.00 496.22 C 481.23 495.69 478.68 499.60 478.64 502.94 M 333.55 592.90 C 333.51 600.99 333.50 609.09 333.61 617.18 C 342.64 617.66 351.71 617.79 360.73 617.11 C 360.76 609.05 360.81 600.99 360.74 592.93 C 361.30 585.62 354.34 578.78 347.06 579.33 C 339.83 579.05 333.30 585.70 333.55 592.90 Z" />
<path fill="#ffffff" opacity="1.00" d=" M 326.67 53.16 C 328.29 44.63 331.18 35.63 337.86 29.69 C 336.78 34.38 335.50 39.16 336.06 44.01 C 337.28 55.70 340.37 67.18 345.11 77.93 C 353.95 97.00 365.44 114.67 374.54 133.60 C 379.87 144.47 384.24 155.98 385.56 168.09 C 386.89 180.65 385.57 193.99 379.14 205.10 C 374.21 213.91 365.93 221.25 355.90 223.40 C 349.96 224.70 343.84 223.57 338.13 221.81 C 341.30 218.75 345.82 215.95 346.08 211.08 C 346.33 204.89 342.19 199.85 338.97 194.97 C 330.73 183.42 323.24 171.36 315.76 159.32 C 310.31 150.21 303.89 141.34 301.28 130.91 C 298.43 119.29 299.58 106.89 303.80 95.74 C 305.17 100.32 305.98 105.05 307.65 109.54 C 313.76 127.54 324.77 143.37 336.89 157.83 C 326.49 138.58 315.68 118.91 312.13 97.03 C 310.63 82.73 311.56 67.42 318.80 54.65 C 318.84 75.41 326.24 95.28 335.29 113.67 C 339.37 121.41 343.23 129.41 348.92 136.12 C 343.37 123.00 337.08 110.15 332.69 96.56 C 328.15 82.68 323.82 67.86 326.67 53.16 Z" />
<path fill="#ffffff" opacity="1.00" d=" M 351.72 68.87 C 349.59 55.76 354.73 42.11 364.02 32.81 C 359.50 48.27 361.04 64.85 366.07 79.98 C 373.96 102.77 385.64 124.32 390.81 148.01 C 385.17 136.88 378.99 126.04 372.52 115.38 C 363.30 101.07 355.04 85.73 351.72 68.87 Z" />
<path fill="#ffffff" opacity="1.00" d=" M 394.31 153.93 C 400.45 150.13 406.27 144.05 414.01 144.40 C 418.70 145.35 424.13 142.73 427.94 146.68 C 425.04 148.46 422.17 150.50 420.54 153.58 C 414.22 163.83 408.98 174.70 402.87 185.07 C 401.76 174.30 398.81 163.77 394.31 153.93 Z" />
<path fill="#ffffff" opacity="1.00" d=" M 385.07 146.55 C 394.93 161.74 400.73 180.35 398.27 198.53 C 396.83 209.57 391.66 219.93 384.14 228.08 C 375.09 237.95 363.46 245.21 351.12 250.24 C 334.03 257.39 316.28 263.07 299.96 271.97 C 286.93 278.44 275.21 289.42 271.68 303.98 C 266.41 294.46 264.31 282.35 269.29 272.28 C 273.11 263.75 281.07 258.37 288.41 253.12 C 281.22 252.64 275.22 257.03 268.77 259.40 C 271.45 251.19 277.32 244.03 285.05 240.11 C 290.77 237.02 297.26 236.05 303.60 235.18 C 303.69 234.99 303.88 234.62 303.97 234.43 C 300.34 231.21 295.38 230.65 290.76 230.11 C 296.52 223.72 305.45 220.49 313.97 221.57 C 325.12 222.20 334.80 229.30 346.03 229.39 C 358.19 229.17 371.02 224.55 378.52 214.58 C 385.03 205.38 388.27 194.18 389.05 183.02 C 390.06 170.73 387.87 158.47 385.07 146.55 Z" />
<path fill="#ffffff" opacity="1.00" d=" M 235.48 317.49 C 237.70 316.56 240.09 316.61 242.20 317.79 C 241.47 318.98 240.74 320.16 240.02 321.35 C 249.33 322.40 258.74 322.34 268.05 321.33 C 264.65 322.83 261.24 324.31 257.92 325.98 C 260.96 327.72 264.14 329.17 267.28 330.73 C 258.23 332.09 249.03 331.79 239.94 330.98 C 239.81 340.99 240.25 351.01 239.60 361.00 C 239.01 360.68 237.83 360.04 237.24 359.72 C 236.74 347.47 237.24 335.19 236.99 322.93 C 236.91 321.02 236.08 319.27 235.48 317.49 Z" />
<path fill="#ffffff" opacity="1.00" d=" M 453.25 317.52 C 455.39 316.72 457.87 316.12 459.75 317.87 C 459.14 319.03 458.54 320.20 457.96 321.37 C 467.31 322.39 476.77 322.39 486.12 321.26 C 482.61 322.73 479.12 324.26 475.77 326.06 C 478.87 327.78 482.09 329.27 485.32 330.74 C 476.16 332.07 466.84 331.83 457.65 330.98 C 457.43 341.14 458.19 351.35 457.13 361.47 C 456.06 360.55 454.55 359.67 454.80 358.00 C 454.66 349.34 454.81 340.68 454.75 332.02 C 454.60 327.16 455.51 322.05 453.25 317.52 Z" />
<path fill="#ffffff" opacity="1.00" d=" M 111.84 379.04 C 113.18 378.96 114.45 379.11 115.65 379.49 C 115.42 380.14 114.94 381.43 114.71 382.08 C 120.50 382.67 126.33 382.37 132.15 382.33 C 130.16 383.21 128.15 384.02 126.19 384.97 C 128.02 385.97 129.90 386.91 131.64 388.08 C 125.98 388.90 120.23 388.63 114.55 388.26 C 114.35 394.34 115.13 400.53 114.01 406.54 L 112.79 407.23 C 112.31 397.83 113.44 388.36 111.84 379.04 Z" />
<path fill="#ffffff" opacity="1.00" d=" M 579.17 378.96 C 580.43 379.07 581.70 379.19 582.98 379.32 C 582.64 380.01 581.95 381.38 581.60 382.07 C 587.42 382.68 593.28 382.36 599.12 382.34 C 597.06 383.22 595.05 384.18 593.11 385.28 C 595.14 386.14 597.19 386.99 599.22 387.90 C 593.41 389.07 587.43 388.57 581.56 388.27 C 581.45 394.46 581.91 400.69 581.17 406.85 L 580.23 406.98 C 578.91 397.73 580.30 388.27 579.17 378.96 Z" />
</g>
<g id="#000000ff">
<path fill="#000000" opacity="1.00" d=" M 1253.17 240.29 C 1256.60 240.24 1260.03 240.25 1263.47 240.44 C 1263.27 268.62 1263.44 296.80 1263.37 324.98 C 1259.95 324.98 1256.54 324.97 1253.14 324.97 C 1253.14 322.87 1253.15 320.78 1253.17 318.69 C 1246.85 323.41 1239.19 327.34 1231.06 326.27 C 1222.46 325.69 1215.41 318.95 1212.58 311.10 C 1210.16 304.00 1209.47 296.30 1210.41 288.86 C 1211.67 279.14 1216.92 269.33 1226.06 265.01 C 1234.65 260.72 1244.81 262.49 1253.18 266.42 C 1253.18 257.71 1253.12 249.00 1253.17 240.29 M 1232.05 272.06 C 1226.35 274.12 1222.94 279.82 1221.59 285.46 C 1220.11 292.05 1220.34 298.96 1221.65 305.56 C 1222.77 310.74 1225.93 316.18 1231.44 317.49 C 1239.30 319.63 1247.03 315.49 1253.17 310.93 C 1253.09 298.66 1253.24 286.40 1253.14 274.13 C 1246.55 271.42 1238.98 269.36 1232.05 272.06 Z" />
<path fill="#000000" opacity="1.00" d=" M 1389.27 240.30 C 1392.70 240.24 1396.14 240.26 1399.58 240.47 C 1399.35 268.64 1399.54 296.81 1399.49 324.98 C 1396.06 324.98 1392.65 324.98 1389.24 324.95 C 1389.24 322.87 1389.25 320.79 1389.28 318.71 C 1382.92 323.43 1375.22 327.38 1367.06 326.26 C 1358.33 325.62 1351.24 318.66 1348.53 310.64 C 1346.21 303.41 1345.52 295.64 1346.63 288.12 C 1348.05 278.48 1353.50 268.80 1362.73 264.77 C 1371.22 260.74 1381.09 262.60 1389.30 266.42 C 1389.28 257.71 1389.25 249.00 1389.27 240.30 M 1368.05 272.11 C 1362.26 274.26 1358.88 280.16 1357.60 285.92 C 1356.23 292.33 1356.49 299.02 1357.73 305.43 C 1358.83 310.61 1361.93 316.10 1367.44 317.45 C 1375.32 319.69 1383.08 315.51 1389.27 310.98 C 1389.28 298.73 1389.23 286.48 1389.33 274.23 C 1382.71 271.39 1375.04 269.32 1368.05 272.11 Z" />
<path fill="#000000" opacity="1.00" d=" M 812.96 244.22 C 825.82 241.30 839.39 244.14 851.03 249.98 C 851.02 254.23 851.02 258.48 851.00 262.72 C 841.49 255.91 829.67 251.26 817.82 253.16 C 807.80 254.31 799.48 262.39 796.92 271.96 C 794.59 280.96 794.37 290.78 797.69 299.57 C 800.35 306.86 806.19 313.08 813.77 315.24 C 826.68 319.21 840.59 314.66 851.01 306.70 C 851.02 310.85 851.00 315.00 851.07 319.16 C 837.58 326.21 821.10 328.91 806.58 323.51 C 799.02 320.85 792.82 315.05 789.13 308.00 C 785.29 300.99 784.17 292.88 784.05 285.00 C 783.95 275.94 785.89 266.65 790.86 258.97 C 795.79 251.28 804.07 246.05 812.96 244.22 Z" />
<path fill="#000000" opacity="1.00" d=" M 1482.37 244.56 C 1495.64 241.12 1509.83 243.89 1521.88 250.03 C 1521.86 254.29 1521.85 258.56 1521.83 262.82 C 1512.22 255.66 1499.92 251.13 1487.85 253.31 C 1481.30 254.30 1475.39 258.23 1471.68 263.68 C 1467.28 269.82 1466.16 277.60 1466.02 284.98 C 1465.93 294.17 1468.70 303.97 1475.69 310.31 C 1482.50 316.31 1492.23 317.59 1500.93 316.14 C 1508.64 315.05 1515.54 311.12 1521.85 306.75 C 1521.85 310.97 1521.92 315.20 1521.73 319.42 C 1506.49 326.94 1487.35 329.64 1472.01 320.95 C 1463.20 315.70 1457.61 306.10 1455.89 296.14 C 1453.91 284.49 1454.54 271.90 1460.28 261.35 C 1464.74 252.88 1473.12 246.79 1482.37 244.56 Z" />
<path fill="#000000" opacity="1.00" d=" M 1183.18 244.41 C 1186.98 244.45 1190.79 244.45 1194.61 244.44 C 1194.61 248.15 1194.61 251.86 1194.60 255.56 C 1190.78 255.55 1186.97 255.55 1183.17 255.58 C 1183.09 251.86 1183.09 248.13 1183.18 244.41 Z" />
<path fill="#000000" opacity="1.00" d=" M 1583.18 244.41 C 1586.98 244.45 1590.78 244.45 1594.60 244.44 C 1594.61 248.15 1594.61 251.85 1594.60 255.56 C 1590.79 255.54 1587.00 255.55 1583.21 255.61 C 1583.09 251.88 1583.08 248.14 1583.18 244.41 Z" />
<path fill="#000000" opacity="1.00" d=" M 1716.46 244.45 C 1720.26 244.45 1724.06 244.45 1727.88 244.41 C 1727.97 248.14 1727.97 251.87 1727.87 255.60 C 1724.05 255.55 1720.24 255.54 1716.45 255.56 C 1716.44 251.85 1716.44 248.15 1716.46 244.45 Z" />
<path fill="#000000" opacity="1.00" d=" M 1672.75 245.88 C 1676.15 245.85 1679.56 245.84 1682.98 245.85 C 1682.99 251.86 1682.94 257.88 1683.00 263.90 C 1690.00 263.89 1697.01 263.87 1704.02 263.92 C 1704.01 266.68 1704.01 269.45 1704.02 272.22 C 1697.02 272.22 1690.02 272.24 1683.02 272.20 C 1682.93 283.49 1682.89 294.77 1683.05 306.05 C 1683.11 310.09 1684.07 314.98 1688.03 316.98 C 1693.15 319.10 1698.80 317.58 1704.04 316.69 C 1704.02 319.44 1704.01 322.19 1704.00 324.95 C 1696.44 326.22 1688.08 327.75 1681.00 323.88 C 1675.26 320.88 1673.08 314.05 1672.89 307.97 C 1672.59 296.06 1672.83 284.14 1672.75 272.23 C 1670.44 272.22 1668.13 272.20 1665.85 272.19 C 1665.83 269.43 1665.83 266.68 1665.85 263.93 C 1668.14 263.90 1670.45 263.88 1672.77 263.86 C 1672.74 257.86 1672.73 251.87 1672.75 245.88 Z" />
<path fill="#000000" opacity="1.00" d=" M 881.42 263.44 C 890.17 261.34 900.25 262.60 907.20 268.68 C 913.67 274.22 916.66 282.80 917.14 291.11 C 917.75 300.64 915.94 311.03 909.25 318.26 C 901.11 327.15 887.00 328.51 876.39 323.61 C 868.89 319.90 863.80 312.24 862.28 304.12 C 860.53 295.10 860.94 285.37 864.95 276.97 C 868.18 270.41 874.24 265.16 881.42 263.44 M 884.35 271.45 C 876.96 273.17 872.92 280.84 872.20 287.88 C 871.49 295.92 871.50 304.81 876.25 311.73 C 882.01 320.12 896.07 320.18 902.11 312.09 C 906.14 306.64 906.80 299.56 906.70 293.00 C 906.51 286.95 905.51 280.41 901.29 275.76 C 897.14 271.08 890.20 269.93 884.35 271.45 Z" />
<path fill="#000000" opacity="1.00" d=" M 943.86 270.40 C 950.27 265.84 957.73 261.56 965.92 262.59 C 972.07 262.86 977.43 266.75 980.66 271.82 C 986.12 267.68 992.06 263.47 999.09 262.74 C 1004.90 262.03 1011.47 262.79 1015.88 267.01 C 1020.85 271.96 1022.02 279.35 1022.07 286.08 C 1022.11 299.05 1022.09 312.02 1022.09 325.00 C 1018.69 325.00 1015.29 325.00 1011.89 325.00 C 1011.76 311.00 1012.18 296.98 1011.61 282.99 C 1011.53 278.43 1010.00 273.07 1005.15 271.54 C 996.88 268.86 988.78 273.70 982.59 278.77 C 983.38 294.17 982.76 309.59 982.97 325.00 C 979.56 325.00 976.15 325.00 972.75 324.97 C 972.72 311.75 972.87 298.53 972.65 285.32 C 972.40 281.29 972.36 276.70 969.37 273.61 C 966.70 270.89 962.57 270.63 959.00 270.94 C 953.31 271.49 948.63 275.10 943.99 278.08 C 943.76 293.71 943.85 309.33 943.89 324.96 C 940.47 324.98 937.06 324.99 933.66 325.00 C 933.65 304.63 933.64 284.26 933.66 263.89 C 937.06 263.89 940.46 263.91 943.87 263.94 C 943.86 266.09 943.85 268.25 943.86 270.40 Z" />
<path fill="#000000" opacity="1.00" d=" M 1122.99 270.73 C 1128.15 267.13 1133.64 263.46 1140.05 262.75 C 1146.30 261.91 1153.40 263.16 1157.85 267.97 C 1162.32 272.79 1163.42 279.66 1163.48 286.00 C 1163.49 299.00 1163.52 311.99 1163.49 324.99 C 1160.07 324.99 1156.65 324.97 1153.24 324.93 C 1153.25 311.64 1153.47 298.34 1153.12 285.06 C 1153.00 279.98 1151.83 273.48 1146.28 271.68 C 1137.94 268.77 1129.79 273.55 1123.13 278.12 C 1122.93 293.73 1123.04 309.35 1123.04 324.97 C 1119.63 325.00 1116.22 325.00 1112.82 325.00 C 1112.81 304.63 1112.80 284.26 1112.81 263.89 C 1116.22 263.90 1119.64 263.91 1123.06 263.94 C 1123.03 266.20 1123.00 268.46 1122.99 270.73 Z" />
<path fill="#000000" opacity="1.00" d=" M 1284.66 265.06 C 1295.96 262.72 1308.04 260.84 1319.23 264.72 C 1325.99 267.01 1330.44 273.99 1330.63 280.99 C 1330.91 295.64 1330.62 310.29 1330.79 324.94 C 1327.40 325.00 1324.02 325.02 1320.65 325.00 C 1320.59 322.82 1320.54 320.65 1320.50 318.47 C 1315.35 322.32 1309.44 325.39 1302.99 326.16 C 1296.40 327.10 1289.19 325.33 1284.43 320.51 C 1278.51 314.30 1277.61 304.14 1281.81 296.76 C 1284.72 291.86 1290.12 289.10 1295.46 287.64 C 1303.74 285.47 1312.37 285.37 1320.86 284.65 C 1320.49 280.29 1319.74 274.83 1315.25 272.80 C 1305.32 268.67 1294.37 271.81 1284.68 275.09 C 1284.62 271.75 1284.61 268.40 1284.66 265.06 M 1294.79 297.74 C 1287.65 301.66 1288.04 314.38 1296.03 317.07 C 1304.66 320.11 1313.77 316.04 1320.61 310.78 C 1320.57 304.89 1320.57 299.00 1320.62 293.12 C 1311.95 293.93 1302.64 293.31 1294.79 297.74 Z" />
<path fill="#000000" opacity="1.00" d=" M 1618.63 266.67 C 1629.77 260.09 1643.68 262.19 1655.13 266.86 C 1655.12 270.50 1655.14 274.14 1655.15 277.78 C 1646.40 272.57 1635.40 268.27 1625.43 272.68 C 1620.18 274.62 1619.03 283.01 1623.96 285.92 C 1632.63 290.89 1643.82 288.99 1651.97 295.19 C 1658.27 299.96 1658.97 309.53 1655.13 316.07 C 1652.35 321.11 1646.78 323.70 1641.48 325.22 C 1631.02 328.00 1620.04 325.60 1610.27 321.55 C 1610.12 317.57 1610.11 313.60 1610.12 309.62 C 1619.07 315.88 1630.64 320.51 1641.50 316.65 C 1647.52 315.07 1649.35 305.41 1643.67 302.33 C 1634.64 297.98 1623.41 299.39 1615.37 292.78 C 1607.37 285.93 1609.55 271.58 1618.63 266.67 Z" />
<path fill="#000000" opacity="1.00" d=" M 1748.57 265.05 C 1759.71 262.76 1771.56 260.91 1782.63 264.54 C 1789.68 266.70 1794.39 273.89 1794.53 281.12 C 1794.81 295.72 1794.50 310.32 1794.69 324.92 C 1791.26 325.04 1787.83 325.03 1784.43 324.90 C 1784.44 322.73 1784.46 320.56 1784.51 318.40 C 1778.73 322.51 1772.21 326.13 1764.96 326.34 C 1756.86 327.15 1748.18 322.90 1744.80 315.33 C 1742.31 309.45 1742.51 302.34 1745.69 296.76 C 1748.28 292.22 1753.20 289.72 1757.97 288.08 C 1766.64 285.15 1775.92 285.76 1784.88 284.50 C 1784.22 280.20 1783.63 274.72 1779.06 272.76 C 1769.17 268.72 1758.25 271.76 1748.64 275.11 C 1748.50 271.75 1748.45 268.40 1748.57 265.05 M 1758.68 297.74 C 1751.53 301.66 1751.93 314.42 1759.96 317.09 C 1768.55 320.13 1777.48 315.98 1784.40 310.97 C 1784.52 305.00 1784.50 299.03 1784.43 293.06 C 1775.80 294.02 1766.48 293.27 1758.68 297.74 Z" />
<path fill="#000000" opacity="1.00" d=" M 1824.35 270.73 C 1829.41 267.24 1834.75 263.61 1841.01 262.80 C 1847.36 261.87 1854.62 263.03 1859.18 267.91 C 1863.69 272.72 1864.81 279.62 1864.86 285.99 C 1864.90 298.98 1864.87 311.97 1864.91 324.97 C 1861.49 324.98 1858.08 324.98 1854.68 324.98 C 1854.61 311.45 1854.87 297.91 1854.50 284.38 C 1854.31 279.45 1852.87 273.27 1847.52 271.62 C 1839.24 268.91 1830.96 273.52 1824.43 278.26 C 1824.41 293.83 1824.38 309.41 1824.42 324.98 C 1820.99 324.98 1817.58 324.98 1814.18 324.95 C 1814.21 304.62 1814.20 284.29 1814.20 263.96 C 1817.60 263.90 1821.01 263.89 1824.44 263.92 C 1824.40 266.19 1824.37 268.46 1824.35 270.73 Z" />
<path fill="#000000" opacity="1.00" d=" M 1886.03 265.08 C 1897.16 262.74 1909.03 260.92 1920.11 264.54 C 1927.12 266.67 1931.86 273.80 1932.01 281.00 C 1932.29 295.66 1932.06 310.33 1932.14 324.99 C 1928.74 325.00 1925.36 325.00 1921.99 325.00 C 1921.97 322.78 1921.96 320.56 1921.99 318.35 C 1915.91 322.88 1908.75 326.52 1900.99 326.39 C 1892.96 326.74 1884.66 321.92 1881.84 314.24 C 1879.86 308.46 1880.19 301.73 1883.38 296.45 C 1885.78 292.42 1890.11 290.08 1894.37 288.47 C 1903.26 285.25 1912.87 285.56 1922.16 284.70 C 1921.98 280.21 1921.02 274.57 1916.33 272.64 C 1906.42 268.75 1895.64 271.87 1886.02 275.09 C 1886.01 271.75 1886.02 268.41 1886.03 265.08 M 1895.93 297.89 C 1888.90 302.05 1889.60 314.84 1897.81 317.21 C 1906.36 320.00 1915.19 315.92 1921.98 310.83 C 1921.98 304.91 1921.98 298.99 1921.98 293.07 C 1913.23 294.00 1903.79 293.27 1895.93 297.89 Z" />
<path fill="#000000" opacity="1.00" d=" M 1041.58 263.90 C 1044.96 263.87 1048.36 263.88 1051.76 263.94 C 1051.84 277.61 1051.54 291.30 1051.95 304.97 C 1052.10 309.93 1053.98 316.04 1059.36 317.48 C 1067.51 319.76 1075.37 315.27 1081.89 310.84 C 1082.15 295.19 1081.96 279.54 1082.03 263.89 C 1085.42 263.89 1088.81 263.89 1092.22 263.90 C 1092.23 284.26 1092.22 304.63 1092.22 325.00 C 1088.82 325.00 1085.43 325.00 1082.05 325.00 C 1082.02 322.70 1081.99 320.40 1081.97 318.11 C 1076.84 321.76 1071.39 325.57 1064.94 326.20 C 1057.78 327.15 1049.51 325.05 1045.45 318.64 C 1040.85 311.67 1041.61 302.96 1041.56 295.02 C 1041.55 284.64 1041.54 274.27 1041.58 263.90 Z" />
<path fill="#000000" opacity="1.00" d=" M 1183.76 263.91 C 1187.16 263.90 1190.56 263.91 1193.98 263.92 C 1193.99 284.27 1193.98 304.62 1193.99 324.98 C 1190.57 324.98 1187.16 324.98 1183.75 324.97 C 1183.75 304.62 1183.74 284.27 1183.76 263.91 Z" />
<path fill="#000000" opacity="1.00" d=" M 1536.36 264.06 C 1539.79 263.86 1543.23 263.85 1546.68 264.01 C 1546.63 266.93 1546.61 269.84 1546.64 272.76 C 1551.03 269.63 1555.43 266.21 1560.73 264.76 C 1565.11 263.48 1569.74 263.94 1574.23 264.40 C 1574.23 267.89 1574.23 271.38 1574.27 274.87 C 1569.02 273.91 1563.52 272.84 1558.31 274.50 C 1554.06 275.84 1550.42 278.47 1546.77 280.91 C 1546.54 295.57 1546.62 310.24 1546.69 324.91 C 1543.24 325.02 1539.80 325.02 1536.37 324.90 C 1536.47 304.62 1536.45 284.34 1536.36 264.06 Z" />
<path fill="#000000" opacity="1.00" d=" M 1583.75 263.92 C 1587.15 263.90 1590.56 263.90 1593.98 263.92 C 1593.99 284.27 1593.98 304.62 1593.98 324.98 C 1590.56 324.98 1587.15 324.98 1583.76 324.97 C 1583.74 304.62 1583.74 284.27 1583.75 263.92 Z" />
<path fill="#000000" opacity="1.00" d=" M 1717.08 263.92 C 1720.48 263.90 1723.89 263.90 1727.31 263.92 C 1727.32 284.27 1727.32 304.62 1727.31 324.98 C 1723.89 324.98 1720.48 324.98 1717.08 324.98 C 1717.08 304.62 1717.08 284.27 1717.08 263.92 Z" />
<path fill="#000000" opacity="1.00" d=" M 1188.30 362.50 C 1195.04 362.52 1201.78 362.50 1208.52 362.51 C 1208.57 391.63 1208.43 420.76 1208.60 449.88 C 1201.80 450.12 1195.00 449.99 1188.20 449.90 C 1188.22 447.84 1188.26 445.78 1188.31 443.72 C 1181.70 448.70 1173.54 452.47 1165.09 451.24 C 1156.14 450.58 1148.74 443.73 1145.51 435.65 C 1142.80 428.48 1142.02 420.61 1142.88 413.01 C 1143.96 403.02 1149.22 393.02 1158.28 388.14 C 1167.57 383.12 1179.06 384.15 1188.31 388.75 C 1188.27 380.00 1188.26 371.25 1188.30 362.50 M 1169.23 403.26 C 1163.64 408.02 1163.03 416.07 1163.69 422.89 C 1164.05 427.71 1166.01 433.30 1170.97 435.08 C 1176.69 437.41 1182.89 435.32 1188.17 432.83 C 1188.45 422.42 1188.15 412.00 1188.34 401.59 C 1182.16 399.62 1174.58 398.90 1169.23 403.26 Z" />
<path fill="#000000" opacity="1.00" d=" M 1613.30 362.50 C 1620.04 362.52 1626.78 362.50 1633.52 362.51 C 1633.57 391.64 1633.45 420.78 1633.58 449.91 C 1626.80 450.10 1620.01 449.97 1613.23 449.91 C 1613.23 447.86 1613.24 445.81 1613.28 443.76 C 1606.89 448.49 1599.18 452.22 1591.03 451.34 C 1584.32 451.06 1578.10 447.38 1574.16 442.04 C 1568.94 435.25 1567.61 426.36 1567.53 418.02 C 1567.53 407.09 1571.96 395.45 1581.38 389.28 C 1590.87 383.11 1603.46 383.70 1613.31 388.76 C 1613.27 380.00 1613.26 371.25 1613.30 362.50 M 1594.27 403.23 C 1588.89 407.72 1588.10 415.36 1588.60 421.91 C 1588.89 426.55 1590.21 431.91 1594.54 434.40 C 1600.53 437.62 1607.89 435.80 1613.40 432.39 C 1613.18 422.11 1613.30 411.83 1613.33 401.56 C 1607.15 399.66 1599.63 398.90 1594.27 403.23 Z" />
<path fill="#000000" opacity="1.00" d=" M 868.71 362.54 C 875.85 362.49 882.99 362.47 890.14 362.50 C 890.14 367.58 890.14 372.66 890.14 377.75 C 882.99 377.79 875.84 377.81 868.69 377.71 C 868.72 372.65 868.70 367.59 868.71 362.54 Z" />
<path fill="#000000" opacity="1.00" d=" M 1031.37 388.75 C 1031.36 379.98 1031.24 371.22 1031.42 362.46 C 1038.11 362.54 1044.81 362.53 1051.50 362.47 C 1051.73 391.62 1051.45 420.76 1051.64 449.91 C 1044.86 450.08 1038.08 450.00 1031.31 449.92 C 1031.30 447.86 1031.30 445.82 1031.31 443.77 C 1024.92 448.51 1017.18 452.24 1009.02 451.34 C 1002.32 451.05 996.10 447.33 992.17 441.99 C 986.99 435.21 985.66 426.35 985.60 418.04 C 985.58 406.90 990.19 395.02 999.95 388.94 C 1009.40 383.05 1021.67 383.88 1031.37 388.75 M 1012.32 403.23 C 1006.67 407.99 1006.09 416.11 1006.75 422.96 C 1007.13 427.73 1009.07 433.26 1013.97 435.05 C 1019.69 437.43 1025.93 435.33 1031.23 432.82 C 1031.51 422.42 1031.20 412.01 1031.41 401.60 C 1025.25 399.61 1017.68 398.91 1012.32 403.23 Z" />
<path fill="#000000" opacity="1.00" d=" M 1729.01 362.52 C 1735.76 362.50 1742.51 362.50 1749.27 362.52 C 1749.28 391.68 1749.28 420.84 1749.27 450.00 C 1742.51 450.00 1735.76 450.01 1729.01 449.99 C 1729.02 420.83 1729.02 391.68 1729.01 362.52 Z" />
<path fill="#000000" opacity="1.00" d=" M 1972.88 362.55 C 1980.01 362.48 1987.15 362.47 1994.29 362.51 C 1994.29 367.58 1994.29 372.66 1994.31 377.74 C 1987.16 377.81 1980.01 377.79 1972.87 377.72 C 1972.87 372.66 1972.86 367.60 1972.88 362.55 Z" />
<path fill="#000000" opacity="1.00" d=" M 793.87 376.86 C 800.66 369.81 810.37 366.51 819.91 365.55 C 831.83 364.33 843.99 366.89 854.63 372.31 C 854.55 379.42 854.77 386.54 854.44 393.65 C 849.15 391.51 845.27 387.09 840.08 384.80 C 831.79 380.75 821.10 380.90 813.62 386.64 C 807.36 391.36 804.81 399.48 804.65 407.06 C 804.25 415.33 806.53 424.40 813.22 429.81 C 820.95 435.81 832.13 435.98 840.73 431.75 C 845.74 429.49 849.46 425.18 854.54 423.04 C 854.72 430.01 854.54 436.98 854.67 443.95 C 840.84 451.30 824.05 453.69 808.96 449.03 C 801.26 446.80 794.37 441.94 789.76 435.38 C 784.47 428.07 782.51 418.89 782.19 410.01 C 781.90 398.09 785.12 385.40 793.87 376.86 Z" />
<path fill="#000000" opacity="1.00" d=" M 1807.94 366.67 C 1822.28 366.74 1836.64 366.45 1850.99 366.87 C 1859.01 367.15 1867.54 369.72 1872.80 376.12 C 1878.03 382.38 1878.09 391.39 1875.83 398.87 C 1873.58 406.09 1867.15 410.83 1860.83 414.36 C 1869.89 426.35 1879.40 438.02 1888.54 449.96 C 1879.74 450.00 1870.96 450.04 1862.17 449.96 C 1854.62 439.75 1846.97 429.62 1839.38 419.45 C 1836.05 419.38 1832.73 419.41 1829.43 419.47 C 1829.39 429.65 1829.43 439.82 1829.41 450.00 C 1822.24 450.00 1815.08 450.00 1807.92 450.00 C 1807.91 422.22 1807.92 394.45 1807.94 366.67 M 1829.35 382.11 C 1829.47 389.41 1829.42 396.70 1829.38 404.00 C 1836.17 404.07 1843.51 405.09 1849.78 401.83 C 1856.53 398.37 1856.92 386.54 1849.69 383.43 C 1843.15 381.22 1836.11 382.01 1829.35 382.11 Z" />
<path fill="#000000" opacity="1.00" d=" M 1071.54 387.73 C 1086.02 384.79 1101.35 382.94 1115.75 387.30 C 1123.04 389.37 1128.69 396.36 1128.87 403.98 C 1129.30 419.32 1128.94 434.66 1129.06 450.00 C 1122.35 450.01 1115.65 449.96 1108.94 449.97 C 1108.95 447.81 1108.96 445.65 1109.00 443.50 C 1099.52 451.63 1084.55 454.63 1073.81 447.23 C 1065.61 441.78 1063.78 429.77 1068.41 421.43 C 1071.15 416.75 1076.11 413.90 1081.14 412.24 C 1089.80 409.48 1098.96 409.20 1107.95 408.40 C 1109.95 408.39 1108.84 405.94 1108.45 404.87 C 1107.31 400.72 1102.68 399.72 1099.03 399.03 C 1089.64 397.40 1080.42 400.64 1071.44 402.95 C 1071.50 397.87 1071.39 392.80 1071.54 387.73 M 1090.13 424.12 C 1085.58 426.24 1085.05 433.95 1089.74 436.21 C 1096.01 439.10 1103.09 436.91 1108.82 433.79 C 1109.07 429.47 1108.96 425.15 1108.95 420.84 C 1102.65 421.63 1096.01 421.44 1090.13 424.12 Z" />
<path fill="#000000" opacity="1.00" d=" M 1228.47 387.72 C 1242.15 384.97 1256.48 383.15 1270.20 386.60 C 1278.52 388.00 1285.61 395.33 1285.81 403.91 C 1286.26 419.27 1285.89 434.63 1286.01 450.00 C 1279.29 450.01 1272.57 450.00 1265.86 449.95 C 1265.87 447.79 1265.90 445.63 1265.95 443.48 C 1256.65 451.47 1242.17 454.48 1231.39 447.69 C 1222.32 442.15 1220.28 428.66 1226.22 420.14 C 1229.26 415.91 1234.11 413.44 1238.99 411.96 C 1247.86 409.29 1257.20 409.20 1266.35 408.20 C 1265.52 405.28 1264.74 401.56 1261.41 400.56 C 1250.62 396.18 1239.02 400.10 1228.40 402.98 C 1228.43 397.89 1228.32 392.80 1228.47 387.72 M 1247.10 424.11 C 1242.53 426.21 1241.98 433.97 1246.70 436.22 C 1252.98 439.10 1260.09 436.92 1265.81 433.73 C 1265.98 429.44 1265.92 425.14 1265.89 420.85 C 1259.59 421.59 1252.98 421.45 1247.10 424.11 Z" />
<path fill="#000000" opacity="1.00" d=" M 1324.25 393.19 C 1329.76 389.74 1335.28 385.63 1341.98 384.98 C 1349.73 383.88 1358.70 385.98 1363.36 392.74 C 1367.69 398.90 1367.58 406.79 1367.51 414.00 C 1367.53 425.96 1367.45 437.93 1367.58 449.89 C 1360.76 450.04 1353.94 449.98 1347.13 449.98 C 1347.01 437.63 1347.38 425.28 1346.90 412.94 C 1346.62 409.22 1346.22 404.51 1342.49 402.58 C 1336.47 399.87 1329.72 402.15 1324.24 405.06 C 1324.32 420.04 1324.26 435.02 1324.27 450.00 C 1317.51 450.00 1310.76 450.00 1304.01 450.00 C 1304.02 428.70 1304.00 407.40 1304.02 386.11 C 1310.79 386.15 1317.56 386.02 1324.33 386.19 C 1324.29 388.53 1324.24 390.85 1324.25 393.19 Z" />
<path fill="#000000" opacity="1.00" d=" M 1406.43 385.63 C 1417.77 383.65 1430.64 384.59 1439.85 392.19 C 1450.29 400.84 1452.31 416.01 1449.33 428.58 C 1447.04 438.42 1439.17 446.74 1429.44 449.50 C 1420.21 452.14 1410.15 452.11 1401.04 449.01 C 1391.44 445.80 1384.07 437.05 1382.27 427.14 C 1380.48 417.97 1381.07 407.95 1385.77 399.70 C 1390.02 392.15 1398.00 387.14 1406.43 385.63 M 1411.18 399.28 C 1404.77 401.47 1402.63 408.94 1402.48 415.05 C 1402.12 420.76 1402.43 426.80 1405.21 431.93 C 1409.67 439.46 1422.44 439.37 1426.80 431.78 C 1430.66 423.90 1430.28 414.48 1427.71 406.26 C 1425.50 399.73 1417.35 397.10 1411.18 399.28 Z" />
<path fill="#000000" opacity="1.00" d=" M 1464.65 395.62 C 1469.74 389.16 1477.94 386.08 1485.91 385.17 C 1496.45 383.77 1507.16 385.63 1517.14 389.09 C 1517.21 394.66 1517.15 400.23 1517.18 405.80 C 1507.30 401.13 1496.01 395.98 1485.00 399.97 C 1481.59 400.48 1480.74 405.75 1483.94 407.14 C 1490.88 410.16 1498.67 410.10 1505.84 412.34 C 1510.64 413.80 1515.41 416.49 1517.93 421.00 C 1521.78 427.90 1520.09 437.07 1514.72 442.69 C 1510.37 447.00 1504.27 448.92 1498.47 450.34 C 1486.00 452.81 1472.62 451.17 1461.04 446.08 C 1460.61 440.33 1461.00 434.56 1460.97 428.81 C 1471.48 434.75 1483.90 439.96 1496.11 436.41 C 1499.62 435.93 1500.65 430.15 1497.02 429.06 C 1487.94 425.51 1477.37 426.47 1469.04 420.90 C 1460.68 415.83 1458.64 403.23 1464.65 395.62 Z" />
<path fill="#000000" opacity="1.00" d=" M 1658.24 393.28 C 1666.25 386.09 1677.59 384.07 1688.03 384.90 C 1696.18 385.33 1704.71 388.58 1709.54 395.46 C 1715.10 403.17 1714.99 413.10 1714.91 422.18 C 1699.33 422.37 1683.73 421.98 1668.15 422.42 C 1669.20 426.85 1670.86 431.67 1675.01 434.15 C 1681.91 438.02 1690.34 438.17 1697.92 436.47 C 1703.51 435.31 1708.33 432.08 1713.63 430.10 C 1713.72 435.57 1713.70 441.04 1713.61 446.51 C 1701.01 451.13 1687.16 452.83 1673.95 450.06 C 1666.10 448.64 1658.59 444.61 1653.77 438.17 C 1649.55 432.75 1648.19 425.72 1648.00 419.00 C 1647.76 409.56 1650.97 399.62 1658.24 393.28 M 1668.01 409.57 C 1676.99 409.83 1685.98 409.71 1694.97 409.69 C 1694.21 406.82 1693.85 403.55 1691.57 401.44 C 1683.80 395.36 1669.31 398.86 1668.01 409.57 Z" />
<path fill="#000000" opacity="1.00" d=" M 1901.92 393.99 C 1910.06 386.13 1922.06 383.96 1932.99 384.95 C 1941.12 385.45 1949.58 388.86 1954.24 395.83 C 1959.57 403.50 1959.43 413.25 1959.35 422.19 C 1943.85 422.25 1928.36 422.22 1912.86 422.23 C 1913.38 426.90 1915.41 431.86 1919.70 434.25 C 1926.18 437.91 1934.02 438.04 1941.18 436.73 C 1947.24 435.79 1952.36 432.16 1958.08 430.19 C 1958.12 435.67 1958.24 441.16 1957.92 446.64 C 1945.18 451.11 1931.26 452.89 1917.97 449.97 C 1905.95 447.94 1894.85 438.59 1893.17 426.14 C 1891.05 414.92 1893.37 402.08 1901.92 393.99 M 1917.21 401.22 C 1914.38 403.01 1913.65 406.50 1912.52 409.40 C 1921.50 409.93 1930.54 409.87 1939.54 409.47 C 1938.50 406.23 1937.91 402.17 1934.60 400.40 C 1929.19 397.68 1922.32 398.01 1917.21 401.22 Z" />
<path fill="#000000" opacity="1.00" d=" M 2032.68 393.24 C 2037.97 389.68 2043.45 385.80 2049.97 385.01 C 2057.49 383.88 2066.16 385.70 2071.09 391.92 C 2075.12 396.99 2075.83 403.73 2075.85 409.99 C 2075.88 423.32 2075.83 436.64 2075.87 449.96 C 2069.05 449.94 2062.23 450.09 2055.42 449.92 C 2055.41 437.63 2055.67 425.34 2055.24 413.06 C 2054.96 409.24 2054.56 404.26 2050.58 402.45 C 2044.61 399.92 2038.05 402.23 2032.62 404.98 C 2032.66 419.96 2032.54 434.94 2032.67 449.92 C 2025.87 450.06 2019.09 450.03 2012.31 449.92 C 2012.38 428.66 2012.35 407.40 2012.33 386.14 C 2019.09 386.10 2025.85 386.06 2032.62 386.16 C 2032.60 388.52 2032.61 390.88 2032.68 393.24 Z" />
<path fill="#000000" opacity="1.00" d=" M 2117.14 385.24 C 2127.72 383.84 2139.47 385.08 2148.02 392.04 C 2159.21 401.25 2160.96 417.76 2156.98 430.94 C 2154.06 439.88 2146.48 447.14 2137.40 449.61 C 2127.93 452.20 2117.59 452.10 2108.36 448.63 C 2099.13 445.18 2092.26 436.52 2090.52 426.89 C 2088.78 417.41 2089.46 406.99 2094.72 398.68 C 2099.51 390.95 2108.23 386.27 2117.14 385.24 M 2118.44 399.68 C 2114.18 401.74 2111.88 406.42 2111.25 410.92 C 2110.33 417.59 2110.20 424.74 2113.05 431.00 C 2116.77 439.02 2129.66 439.80 2134.57 432.56 C 2137.65 428.05 2137.98 422.34 2137.88 417.05 C 2137.71 411.95 2137.07 406.39 2133.65 402.36 C 2129.89 398.23 2123.40 397.77 2118.44 399.68 Z" />
<path fill="#000000" opacity="1.00" d=" M 869.28 386.13 C 876.04 386.11 882.82 386.06 889.59 386.16 C 889.54 407.42 889.52 428.67 889.60 449.93 C 882.82 450.05 876.03 450.03 869.25 449.94 C 869.34 428.67 869.28 407.40 869.28 386.13 Z" />
<path fill="#000000" opacity="1.00" d=" M 907.70 386.10 C 914.47 386.11 921.25 386.11 928.04 386.11 C 928.17 398.57 927.86 411.03 928.21 423.48 C 928.42 427.32 929.20 432.18 933.26 433.80 C 939.17 436.07 945.59 433.84 950.94 431.12 C 950.86 416.11 950.92 401.11 950.93 386.11 C 957.66 386.11 964.40 386.11 971.14 386.11 C 971.16 407.41 971.15 428.70 971.15 449.99 C 964.40 450.00 957.66 450.00 950.92 450.00 C 950.91 447.58 950.91 445.17 950.92 442.77 C 945.73 446.25 940.47 450.24 934.09 451.05 C 927.12 452.04 919.23 451.05 913.98 445.98 C 909.15 441.36 907.76 434.38 907.71 427.96 C 907.66 414.01 907.66 400.06 907.70 386.10 Z" />
<path fill="#000000" opacity="1.00" d=" M 1973.43 386.15 C 1980.19 386.07 1986.96 386.10 1993.74 386.13 C 1993.72 407.41 1993.69 428.68 1993.75 449.95 C 1986.97 450.01 1980.18 450.08 1973.40 449.89 C 1973.51 428.64 1973.46 407.40 1973.43 386.15 Z" />
</g>
</svg>
