<?xml version="1.0" encoding="UTF-8" ?>
<!DOCTYPE svg PUBLIC "-//W3C//DTD SVG 1.1//EN" "http://www.w3.org/Graphics/SVG/1.1/DTD/svg11.dtd">
<svg width="1555pt" height="500pt" viewBox="0 0 1555 500" version="1.1" xmlns="http://www.w3.org/2000/svg">
<g id="#ffffffff">
<path fill="#ffffff" opacity="1.00" d=" M 229.06 1.07 C 270.51 -2.44 312.80 4.64 350.86 21.40 C 407.24 46.09 453.67 92.49 478.43 148.84 C 496.45 189.47 503.38 234.98 498.12 279.13 C 493.64 316.71 480.78 353.34 460.16 385.11 C 441.15 414.67 415.84 440.15 386.38 459.33 C 350.07 483.20 307.32 496.98 263.96 499.41 C 213.75 502.30 162.74 489.53 119.85 463.26 C 92.54 446.53 68.42 424.58 49.36 398.84 C 28.01 370.19 12.98 336.88 5.67 301.91 C -3.60 258.97 -1.02 213.64 12.68 171.93 C 28.11 124.52 58.36 82.12 97.93 51.82 C 135.55 22.72 181.69 5.03 229.06 1.07 M 178.03 14.62 C 133.37 28.19 92.88 54.93 62.65 90.47 C 31.32 127.10 11.06 173.14 5.66 221.07 C 2.13 250.75 4.10 281.05 11.30 310.05 C 20.30 346.09 37.73 379.95 61.63 408.37 C 61.67 373.57 61.55 338.76 61.68 303.95 C 62.78 303.39 63.89 302.83 65.00 302.27 C 65.03 303.10 65.11 304.76 65.15 305.59 C 67.22 304.96 66.98 302.80 67.17 301.09 C 68.20 300.52 69.25 299.95 70.29 299.40 C 70.32 300.21 70.36 301.84 70.39 302.65 C 70.83 302.41 71.71 301.94 72.15 301.70 C 71.71 299.03 73.19 297.36 75.62 296.59 C 75.67 297.45 75.75 299.16 75.79 300.02 C 77.79 299.31 77.76 297.42 77.73 295.65 C 78.79 295.00 79.85 294.37 80.92 293.75 C 81.17 337.16 80.97 380.58 80.99 423.99 C 81.19 426.08 80.33 428.64 82.20 430.22 C 82.57 384.84 81.98 339.44 82.49 294.06 C 84.02 294.61 85.55 295.20 87.06 295.81 C 87.09 296.62 87.14 298.23 87.16 299.04 C 88.04 299.36 88.92 299.69 89.80 300.02 C 89.81 299.23 89.83 297.65 89.83 296.86 C 91.41 297.66 94.63 297.48 94.58 299.87 C 94.58 301.54 95.48 302.54 97.29 302.86 C 97.31 302.03 97.36 300.38 97.39 299.56 C 98.90 300.08 100.42 300.61 101.92 301.17 C 102.05 302.30 102.16 303.43 102.26 304.56 C 103.07 304.87 103.89 305.17 104.70 305.49 C 104.86 304.37 105.03 303.27 105.21 302.17 C 106.90 303.09 110.20 303.37 109.63 306.09 C 109.64 354.78 109.62 403.47 109.62 452.17 C 115.42 456.10 121.34 459.82 127.36 463.40 C 127.35 402.26 127.37 341.12 127.35 279.98 C 126.79 275.86 132.09 275.84 134.85 274.77 C 134.92 276.41 134.98 278.06 135.04 279.71 C 136.43 279.19 137.82 278.67 139.22 278.16 C 139.37 276.44 138.88 274.52 139.81 272.98 C 141.94 271.75 144.32 271.08 146.66 270.38 C 146.80 272.04 146.88 273.69 146.96 275.36 C 148.33 274.84 149.72 274.34 151.10 273.83 C 151.29 272.16 150.83 270.27 151.64 268.75 C 153.71 267.29 156.25 266.73 158.67 266.14 C 158.73 267.76 158.77 269.38 158.79 271.01 C 160.15 270.54 161.52 270.09 162.89 269.64 C 163.07 267.90 162.72 266.01 163.51 264.39 C 165.60 262.97 168.12 262.43 170.54 261.82 C 170.86 335.51 170.44 409.21 170.76 482.89 L 172.60 483.89 C 172.82 409.72 172.51 335.54 172.76 261.36 C 174.44 262.21 176.36 262.76 177.74 264.10 C 178.40 265.71 178.00 267.51 178.10 269.22 C 179.09 269.74 180.09 270.27 181.10 270.81 C 181.11 269.13 181.14 267.45 181.18 265.77 C 182.95 266.64 185.00 267.25 186.32 268.80 C 186.65 270.38 186.49 272.00 186.54 273.61 C 187.52 274.15 188.51 274.69 189.50 275.24 C 189.53 273.58 189.58 271.92 189.65 270.27 C 191.37 271.04 193.23 271.67 194.64 272.98 C 195.17 274.61 194.92 276.37 194.99 278.06 C 195.98 278.59 196.97 279.13 197.97 279.67 C 197.98 278.00 198.00 276.34 198.03 274.68 C 199.93 275.73 203.50 276.15 203.38 278.98 C 203.47 349.84 203.26 420.71 203.46 491.56 C 203.95 491.73 204.91 492.07 205.40 492.24 C 205.46 412.83 205.36 333.41 205.40 254.00 C 205.40 251.70 205.29 249.37 205.85 247.12 C 210.57 247.10 215.29 246.92 220.01 247.16 C 220.24 247.36 220.71 247.78 220.94 247.98 C 221.25 251.87 221.01 255.77 221.09 259.67 C 224.03 259.66 226.97 259.66 229.91 259.67 C 229.99 255.76 229.75 251.84 230.07 247.94 C 230.30 247.75 230.78 247.35 231.01 247.16 C 235.65 247.04 240.32 246.87 244.95 247.27 C 246.35 251.12 245.23 255.57 245.59 259.66 C 248.54 259.67 251.48 259.67 254.43 259.66 C 254.60 255.49 254.00 251.24 254.87 247.12 C 259.56 247.11 264.26 246.92 268.95 247.16 C 269.21 247.39 269.71 247.85 269.97 248.08 C 270.26 251.93 270.02 255.81 270.10 259.67 C 273.04 259.66 275.98 259.66 278.92 259.67 C 279.01 255.77 278.76 251.86 279.09 247.97 C 279.31 247.77 279.75 247.36 279.98 247.16 C 284.31 246.98 288.67 247.01 293.01 247.14 C 294.57 246.90 294.64 248.92 294.63 249.96 C 294.63 330.72 294.58 411.48 294.62 492.23 C 295.11 492.07 296.07 491.75 296.55 491.58 C 296.82 420.09 296.42 348.57 296.75 277.07 C 298.40 275.96 300.16 275.06 302.01 274.33 C 302.03 275.99 302.05 277.65 302.06 279.31 C 303.05 278.79 304.05 278.27 305.04 277.75 C 305.06 276.11 304.94 274.45 305.23 272.83 C 306.63 271.36 308.63 270.71 310.42 269.85 C 310.45 271.53 310.48 273.20 310.50 274.88 C 311.24 274.49 312.72 273.72 313.47 273.33 C 313.51 271.61 313.38 269.87 313.79 268.19 C 315.28 266.96 317.09 266.22 318.84 265.41 C 318.89 267.09 318.93 268.77 318.97 270.45 C 319.95 269.92 320.94 269.39 321.94 268.86 C 322.08 267.09 321.55 265.08 322.52 263.49 C 323.96 262.44 325.62 261.77 327.22 260.99 C 327.57 335.29 327.17 409.59 327.42 483.88 L 329.26 482.90 C 329.63 409.09 329.14 335.26 329.56 261.45 C 331.92 262.25 334.70 262.53 336.63 264.25 C 337.36 265.76 336.90 267.54 337.06 269.17 C 338.46 269.69 339.86 270.20 341.27 270.72 C 341.29 269.10 341.33 267.48 341.39 265.87 C 343.84 266.36 346.34 266.99 348.44 268.41 C 349.25 270.00 348.89 271.90 349.08 273.63 C 350.43 274.09 351.79 274.55 353.15 275.02 C 353.20 273.38 353.28 271.75 353.39 270.12 C 355.75 270.78 358.19 271.39 360.30 272.70 C 361.19 274.24 360.70 276.14 360.86 277.84 C 362.25 278.35 363.63 278.86 365.03 279.38 C 365.22 277.80 364.85 276.06 365.58 274.59 C 367.98 275.12 370.65 275.73 372.50 277.42 C 372.82 279.92 372.62 282.46 372.67 284.98 C 372.66 344.47 372.65 403.95 372.67 463.44 C 378.61 459.84 384.62 456.31 390.21 452.18 C 390.20 403.43 390.19 354.68 390.23 305.93 C 389.72 303.16 393.11 303.05 394.90 302.29 C 394.95 303.09 395.05 304.68 395.10 305.48 C 395.71 305.25 396.94 304.80 397.56 304.58 C 397.63 303.45 397.79 302.34 398.05 301.25 C 399.42 300.45 400.98 300.06 402.48 299.56 C 402.51 300.39 402.58 302.04 402.61 302.86 C 405.02 302.50 405.34 300.56 405.58 298.55 C 406.93 297.69 408.50 297.33 410.01 296.85 C 410.03 297.65 410.08 299.25 410.10 300.05 C 410.97 299.69 411.85 299.33 412.73 298.97 C 412.74 298.18 412.78 296.60 412.80 295.82 C 414.34 295.19 415.90 294.61 417.48 294.11 C 417.75 339.56 417.33 385.02 417.67 430.47 C 417.96 429.85 418.53 428.62 418.81 428.00 C 418.90 383.27 418.78 338.54 418.86 293.81 C 419.96 294.40 421.08 295.03 422.17 295.68 C 422.09 297.46 422.08 299.32 424.09 300.00 C 424.13 299.15 424.20 297.45 424.24 296.60 C 426.57 297.42 428.28 298.93 427.69 301.66 C 428.28 302.00 428.87 302.34 429.47 302.68 C 429.48 301.87 429.52 300.25 429.53 299.45 C 430.62 299.99 431.72 300.55 432.82 301.12 C 432.84 301.93 432.89 303.56 432.91 304.37 C 433.54 304.75 434.17 305.13 434.80 305.51 C 434.82 304.69 434.85 303.05 434.87 302.23 C 435.96 302.81 437.05 303.40 438.14 304.00 C 438.32 338.85 438.17 373.71 438.23 408.57 C 458.14 384.91 473.59 357.50 483.41 328.17 C 497.18 287.10 499.80 242.35 490.94 199.95 C 480.14 147.00 451.10 98.04 409.96 63.01 C 381.26 38.35 346.77 20.48 310.05 11.32 C 266.83 0.43 220.66 1.59 178.03 14.62 M 240.12 318.89 C 239.97 324.98 240.08 331.08 240.13 337.17 C 246.70 337.55 253.31 337.54 259.88 337.18 C 259.94 331.08 260.05 324.98 259.90 318.89 C 259.70 313.84 255.05 309.63 250.04 309.71 C 245.00 309.56 240.33 313.84 240.12 318.89 M 91.52 344.40 C 90.74 347.76 90.90 351.39 91.37 354.80 C 94.33 356.06 97.56 356.52 100.72 357.00 C 100.71 353.49 101.15 349.90 100.39 346.46 C 99.34 342.92 93.61 340.51 91.52 344.40 M 399.28 347.08 C 398.79 350.37 399.12 353.73 399.18 357.05 C 402.39 356.55 405.56 355.83 408.66 354.85 C 408.64 351.38 409.15 347.82 408.39 344.42 C 406.04 340.25 400.04 343.20 399.28 347.08 M 144.94 359.12 C 140.43 363.25 142.72 369.93 142.13 375.27 C 142.32 375.53 142.72 376.06 142.91 376.33 C 146.78 375.05 151.41 375.30 154.78 372.98 C 154.89 368.69 155.29 364.29 154.54 360.05 C 153.04 356.09 147.50 356.39 144.94 359.12 M 344.63 362.03 C 344.57 365.67 344.49 369.33 344.75 372.97 C 348.39 375.14 353.06 375.18 357.17 376.21 C 357.32 372.15 357.55 368.06 357.23 364.01 C 356.71 359.79 352.29 356.07 347.99 357.22 C 345.91 357.76 344.51 359.91 344.63 362.03 M 240.14 425.86 C 239.91 432.00 240.16 438.15 240.07 444.29 C 246.64 444.91 253.37 444.91 259.94 444.29 C 259.86 438.14 260.11 431.98 259.87 425.83 C 259.52 420.90 254.93 416.88 250.03 416.97 C 245.09 416.82 240.49 420.93 240.14 425.86 Z" />
<path fill="#ffffff" opacity="1.00" d=" M 234.56 44.03 C 235.16 35.85 237.32 27.19 243.26 21.19 C 242.38 24.72 241.45 28.36 241.93 32.04 C 242.96 41.23 245.52 50.26 249.56 58.59 C 256.88 73.70 266.30 87.74 272.79 103.26 C 277.63 114.81 279.66 127.97 276.13 140.17 C 273.60 148.71 267.70 156.80 259.11 159.95 C 254.10 161.90 248.52 161.35 243.54 159.63 C 245.88 157.53 249.01 155.51 249.25 152.05 C 249.46 147.67 246.58 144.04 244.29 140.58 C 237.23 130.75 230.97 120.39 224.58 110.13 C 222.09 105.97 219.51 101.81 217.84 97.23 C 214.78 88.03 215.37 77.86 218.84 68.86 C 221.92 86.14 231.89 101.28 243.15 114.38 C 235.32 100.40 227.51 85.91 224.77 69.94 C 223.77 59.67 224.34 48.66 229.52 39.47 C 229.43 53.63 234.39 67.21 240.35 79.86 C 243.71 86.63 247.24 93.40 251.97 99.33 C 247.97 90.25 243.66 81.29 240.42 71.90 C 237.29 62.93 234.48 53.61 234.56 44.03 Z" />
<path fill="#ffffff" opacity="1.00" d=" M 253.54 50.91 C 251.39 41.05 255.17 30.66 262.18 23.62 C 257.87 36.94 260.69 51.50 265.93 64.14 C 271.37 78.12 277.96 91.80 281.41 106.43 C 276.54 96.92 271.19 87.66 265.54 78.60 C 260.13 70.07 255.87 60.75 253.54 50.91 Z" />
<path fill="#ffffff" opacity="1.00" d=" M 283.97 110.86 C 288.99 107.68 294.55 102.10 300.95 104.51 C 303.41 103.45 306.10 103.69 307.97 105.74 C 306.01 106.77 304.14 108.08 303.04 110.05 C 298.40 117.64 294.32 125.54 290.09 133.36 C 289.42 125.56 287.24 117.95 283.97 110.86 Z" />
<path fill="#ffffff" opacity="1.00" d=" M 277.12 105.17 C 285.13 117.96 289.88 134.01 285.39 148.89 C 281.31 162.50 269.57 172.16 257.21 178.17 C 243.82 184.30 229.50 188.35 216.54 195.48 C 206.92 200.11 198.12 208.02 195.63 218.78 C 192.03 212.16 190.43 203.92 193.61 196.83 C 196.30 190.31 202.16 185.99 207.92 182.34 C 202.65 181.52 198.33 185.02 193.62 186.65 C 195.55 180.83 199.72 175.78 205.19 172.99 C 209.55 170.61 214.53 169.83 219.41 169.35 C 216.83 166.51 213.00 165.88 209.35 165.74 C 213.51 161.19 219.77 158.81 225.91 159.61 C 233.98 159.93 240.92 165.17 249.01 165.22 C 258.76 165.10 269.15 160.99 274.15 152.17 C 282.47 138.00 281.30 120.49 277.12 105.17 Z" />
<path fill="#ffffff" opacity="1.00" d=" M 169.59 228.77 C 171.15 227.83 172.77 227.93 174.28 228.92 C 173.74 229.74 173.20 230.56 172.65 231.38 C 179.42 232.15 186.29 232.39 193.04 231.24 C 190.51 232.32 188.03 233.49 185.56 234.68 C 187.74 236.02 190.05 237.11 192.44 238.05 C 185.90 239.11 179.26 238.83 172.70 238.24 C 172.67 245.41 172.80 252.57 172.54 259.74 C 172.11 259.56 171.25 259.21 170.81 259.04 C 170.58 250.33 170.76 241.60 170.70 232.89 C 170.84 231.41 170.16 230.08 169.59 228.77 Z" />
<path fill="#ffffff" opacity="1.00" d=" M 326.37 228.81 C 327.74 228.08 329.99 227.27 330.84 229.22 C 330.38 229.95 329.91 230.67 329.44 231.39 C 336.20 232.14 343.07 232.39 349.81 231.26 C 347.29 232.36 344.81 233.52 342.34 234.72 C 344.57 236.02 346.93 237.08 349.31 238.11 C 342.74 239.05 336.08 238.87 329.49 238.25 C 329.37 245.48 329.82 252.75 329.17 259.97 C 326.71 259.39 327.74 256.66 327.50 254.93 C 327.53 247.62 327.48 240.31 327.50 233.00 C 327.67 231.49 326.98 230.13 326.37 228.81 Z" />
<path fill="#ffffff" opacity="1.00" d=" M 80.58 273.08 C 81.26 273.08 82.64 273.07 83.32 273.06 C 83.10 273.58 82.64 274.60 82.41 275.11 C 86.63 275.58 90.88 275.55 95.11 275.19 C 93.58 275.85 92.05 276.52 90.54 277.20 C 92.05 277.95 93.57 278.69 95.09 279.41 C 90.88 279.84 86.63 279.83 82.41 279.46 C 82.31 283.80 82.62 288.18 82.21 292.50 C 81.98 292.71 81.52 293.12 81.29 293.32 C 80.73 286.59 81.85 279.74 80.58 273.08 Z" />
<path fill="#ffffff" opacity="1.00" d=" M 417.06 272.95 C 417.71 273.00 419.02 273.09 419.67 273.13 C 419.42 273.63 418.92 274.63 418.67 275.13 C 422.92 275.56 427.21 275.57 431.47 275.16 C 429.90 275.79 428.31 276.42 426.93 277.41 C 428.45 278.09 430.01 278.77 431.57 279.38 C 427.27 279.84 422.95 279.85 418.65 279.46 C 418.62 284.08 418.77 288.71 418.45 293.32 C 416.99 292.37 417.53 290.50 417.40 289.05 C 417.28 283.69 417.62 278.30 417.06 272.95 Z" />
</g>
<g id="#000000ff">
<path fill="#000000" opacity="1.00" d=" M 902.27 173.01 C 904.72 173.00 907.17 173.00 909.64 173.01 C 909.62 193.34 909.62 213.66 909.63 233.99 C 907.17 233.99 904.71 234.00 902.26 233.99 C 902.26 232.43 902.28 230.87 902.30 229.32 C 897.73 233.04 891.94 235.79 885.91 234.85 C 879.09 234.22 874.00 228.31 872.41 221.96 C 870.48 214.27 870.60 205.62 874.60 198.59 C 877.00 194.26 881.13 190.87 885.97 189.62 C 891.46 188.16 897.28 189.44 902.30 191.89 C 902.25 185.59 902.29 179.30 902.27 173.01 M 883.81 197.82 C 878.68 202.70 878.42 210.48 879.09 217.08 C 879.58 221.63 881.40 227.08 886.29 228.49 C 892.07 230.28 897.79 227.24 902.28 223.84 C 902.31 215.08 902.19 206.32 902.35 197.55 C 896.71 194.76 889.00 193.41 883.81 197.82 Z" />
<path fill="#000000" opacity="1.00" d=" M 1000.27 173.01 C 1002.72 173.00 1005.17 173.00 1007.64 173.02 C 1007.61 193.34 1007.62 213.67 1007.64 233.99 C 1005.17 233.99 1002.71 234.00 1000.26 233.99 C 1000.26 232.43 1000.28 230.87 1000.30 229.32 C 995.72 233.05 989.89 235.81 983.84 234.84 C 977.07 234.18 972.01 228.31 970.43 222.00 C 968.36 213.86 968.61 204.56 973.36 197.36 C 976.69 192.13 982.81 188.81 989.04 189.02 C 992.98 188.94 996.75 190.26 1000.30 191.89 C 1000.25 185.59 1000.29 179.30 1000.27 173.01 M 981.80 197.83 C 976.67 202.74 976.41 210.53 977.10 217.13 C 977.59 221.69 979.43 227.13 984.34 228.50 C 990.11 230.27 995.78 227.23 1000.28 223.86 C 1000.35 215.12 1000.12 206.37 1000.40 197.64 C 994.78 194.71 986.99 193.42 981.80 197.83 Z" />
<path fill="#000000" opacity="1.00" d=" M 584.99 175.92 C 594.36 173.68 604.27 175.71 612.74 180.01 C 612.74 183.09 612.73 186.17 612.73 189.25 C 605.66 183.98 596.70 180.69 587.84 182.45 C 580.77 183.65 575.26 189.61 573.61 196.44 C 571.63 204.76 572.07 214.45 577.57 221.40 C 581.92 226.91 589.46 228.70 596.17 227.79 C 602.30 227.29 607.88 224.38 612.73 220.76 C 612.73 223.78 612.74 226.80 612.74 229.82 C 602.48 235.17 589.77 237.05 578.96 232.20 C 571.42 228.81 566.59 221.14 565.23 213.16 C 563.75 204.39 564.33 194.78 569.06 187.02 C 572.51 181.29 578.49 177.32 584.99 175.92 Z" />
<path fill="#000000" opacity="1.00" d=" M 1067.99 175.92 C 1077.36 173.68 1087.28 175.70 1095.75 180.03 C 1095.73 183.10 1095.73 186.17 1095.73 189.25 C 1088.33 183.70 1078.73 180.38 1069.52 182.76 C 1062.81 184.44 1057.91 190.44 1056.45 197.05 C 1054.68 205.23 1055.18 214.68 1060.61 221.45 C 1064.72 226.61 1071.70 228.53 1078.07 227.90 C 1084.59 227.59 1090.60 224.63 1095.73 220.76 C 1095.73 223.78 1095.73 226.80 1095.74 229.83 C 1085.46 235.17 1072.74 237.06 1061.93 232.18 C 1054.38 228.78 1049.56 221.09 1048.22 213.11 C 1046.75 204.35 1047.34 194.76 1052.06 187.02 C 1055.51 181.29 1061.49 177.32 1067.99 175.92 Z" />
<path fill="#000000" opacity="1.00" d=" M 851.85 176.00 C 854.60 176.00 857.36 176.00 860.12 176.00 C 860.12 178.67 860.12 181.33 860.12 184.00 C 857.36 184.00 854.60 184.00 851.85 184.00 C 851.84 181.33 851.84 178.67 851.85 176.00 Z" />
<path fill="#000000" opacity="1.00" d=" M 1139.85 176.00 C 1142.59 176.00 1145.35 176.00 1148.12 176.00 C 1148.12 178.67 1148.12 181.33 1148.12 184.00 C 1145.35 184.00 1142.60 184.00 1139.85 184.00 C 1139.83 181.33 1139.83 178.67 1139.85 176.00 Z" />
<path fill="#000000" opacity="1.00" d=" M 1235.85 176.00 C 1238.60 176.00 1241.35 176.00 1244.12 176.00 C 1244.12 178.67 1244.12 181.33 1244.12 184.00 C 1241.35 184.00 1238.59 184.00 1235.84 184.00 C 1235.83 181.33 1235.83 178.67 1235.85 176.00 Z" />
<path fill="#000000" opacity="1.00" d=" M 1204.37 177.02 C 1206.82 177.01 1209.28 177.00 1211.75 177.01 C 1211.73 181.34 1211.73 185.67 1211.74 190.00 C 1216.79 190.00 1221.84 189.99 1226.90 190.01 C 1226.88 192.00 1226.88 194.00 1226.90 196.00 C 1221.84 196.00 1216.79 195.99 1211.74 196.00 C 1211.76 204.00 1211.67 212.00 1211.78 220.00 C 1211.79 223.09 1212.47 226.93 1215.62 228.36 C 1219.27 229.67 1223.23 228.69 1226.91 228.00 C 1226.88 229.98 1226.88 231.96 1226.89 233.94 C 1221.34 234.93 1215.11 236.03 1209.99 233.01 C 1205.82 230.62 1204.54 225.51 1204.43 221.03 C 1204.31 212.69 1204.43 204.35 1204.39 196.01 C 1202.70 196.00 1201.06 195.99 1199.41 195.98 C 1199.40 193.99 1199.40 192.00 1199.41 190.02 C 1201.06 190.01 1202.71 190.00 1204.39 189.99 C 1204.38 185.67 1204.39 181.34 1204.37 177.02 Z" />
<path fill="#000000" opacity="1.00" d=" M 634.42 189.73 C 641.06 188.07 648.84 189.12 653.87 194.08 C 658.70 198.65 660.46 205.54 660.41 212.01 C 660.46 218.44 658.74 225.29 653.96 229.86 C 648.58 235.17 640.06 236.13 633.09 233.86 C 626.65 231.76 622.17 225.68 620.87 219.18 C 619.68 213.17 619.83 206.73 622.07 200.98 C 624.16 195.60 628.76 191.15 634.42 189.73 M 636.34 195.55 C 630.53 197.17 628.02 203.56 627.83 209.08 C 627.54 214.43 627.82 220.32 631.14 224.79 C 635.45 230.54 645.40 230.42 649.61 224.59 C 652.45 220.68 652.90 215.63 652.83 210.95 C 652.68 206.51 651.94 201.64 648.71 198.31 C 645.60 195.01 640.54 194.35 636.34 195.55 Z" />
<path fill="#000000" opacity="1.00" d=" M 679.55 194.80 C 684.01 191.46 689.27 188.44 695.07 189.06 C 699.63 189.16 703.77 191.84 706.01 195.77 C 709.84 192.84 713.98 189.88 718.90 189.23 C 723.26 188.62 728.30 189.12 731.58 192.38 C 735.02 195.94 735.86 201.13 735.90 205.90 C 735.94 215.26 735.89 224.63 735.91 234.00 C 733.46 234.00 731.01 234.00 728.56 234.00 C 728.53 225.33 728.61 216.65 728.53 207.98 C 728.43 205.08 728.48 202.10 727.59 199.31 C 726.64 196.64 723.85 195.02 721.09 195.04 C 715.90 194.51 711.44 197.68 707.51 200.61 C 708.00 211.73 707.61 222.87 707.74 234.00 C 705.28 234.00 702.83 233.99 700.38 233.99 C 700.36 224.66 700.45 215.34 700.34 206.02 C 700.12 202.95 700.27 199.40 697.97 197.03 C 696.18 195.12 693.37 194.91 690.94 195.04 C 686.64 195.25 683.15 198.01 679.67 200.21 C 679.47 211.46 679.62 222.72 679.59 233.98 C 677.13 233.99 674.68 234.00 672.23 234.00 C 672.23 219.33 672.23 204.67 672.23 190.00 C 674.68 190.00 677.14 190.00 679.60 190.02 C 679.58 191.61 679.56 193.20 679.55 194.80 Z" />
<path fill="#000000" opacity="1.00" d=" M 808.54 194.98 C 812.23 192.28 816.27 189.68 820.93 189.17 C 825.49 188.58 830.72 189.53 833.86 193.17 C 836.94 196.66 837.69 201.50 837.71 206.00 C 837.75 215.33 837.69 224.66 837.73 233.99 C 835.27 234.00 832.81 233.99 830.36 233.98 C 830.35 225.00 830.42 216.02 830.34 207.03 C 830.11 203.88 830.25 200.35 828.26 197.70 C 826.31 195.20 822.84 194.79 819.90 195.08 C 815.68 195.50 812.13 198.04 808.65 200.24 C 808.49 211.49 808.61 222.74 808.59 233.99 C 806.13 233.99 803.67 234.00 801.23 234.00 C 801.23 219.33 801.24 204.67 801.22 190.00 C 803.68 190.00 806.14 190.01 808.61 190.03 C 808.58 191.68 808.56 193.33 808.54 194.98 Z" />
<path fill="#000000" opacity="1.00" d=" M 924.94 190.86 C 933.00 189.15 941.65 187.84 949.64 190.52 C 954.91 192.23 958.19 197.64 958.08 203.06 C 958.23 213.37 958.09 223.69 958.14 234.00 C 955.70 234.00 953.26 234.00 950.84 234.00 C 950.81 232.38 950.81 230.77 950.82 229.16 C 944.47 234.42 934.78 237.30 927.30 232.75 C 920.92 229.02 919.40 220.05 922.79 213.82 C 925.32 209.50 930.31 207.49 935.01 206.55 C 940.27 205.55 945.63 205.38 950.96 204.95 C 950.84 201.67 950.14 197.70 946.73 196.28 C 939.62 193.53 931.83 195.70 924.94 198.10 C 924.93 195.68 924.93 193.27 924.94 190.86 M 932.40 214.28 C 927.03 217.07 927.34 226.68 933.43 228.39 C 939.65 230.40 945.95 227.51 950.82 223.75 C 950.82 219.50 950.83 215.25 950.83 211.00 C 944.67 211.70 937.98 211.16 932.40 214.28 Z" />
<path fill="#000000" opacity="1.00" d=" M 1165.06 192.22 C 1173.05 187.19 1183.38 188.74 1191.69 192.15 C 1191.68 194.81 1191.68 197.47 1191.71 200.13 C 1185.54 196.17 1177.46 193.17 1170.34 196.32 C 1166.54 197.73 1165.73 203.62 1169.16 205.84 C 1175.63 209.57 1184.21 207.96 1190.05 213.06 C 1195.52 218.09 1194.00 228.01 1187.67 231.68 C 1179.10 236.92 1168.09 235.37 1159.33 231.40 C 1159.29 228.55 1159.28 225.69 1159.28 222.84 C 1165.67 227.51 1174.14 230.80 1181.97 227.95 C 1186.27 226.75 1187.49 219.88 1183.47 217.67 C 1176.99 214.57 1168.94 215.56 1163.14 210.89 C 1157.42 206.03 1158.75 195.99 1165.06 192.22 Z" />
<path fill="#000000" opacity="1.00" d=" M 1258.94 190.86 C 1267.01 189.15 1275.66 187.84 1283.67 190.52 C 1288.89 192.24 1292.16 197.59 1292.08 202.98 C 1292.24 213.31 1292.09 223.66 1292.14 234.00 C 1289.69 234.00 1287.26 234.00 1284.83 234.00 C 1284.81 232.38 1284.81 230.77 1284.83 229.16 C 1280.58 232.45 1275.53 235.01 1270.04 234.97 C 1263.73 235.44 1257.14 231.36 1255.56 225.08 C 1254.24 219.88 1255.38 213.53 1259.99 210.26 C 1267.22 205.16 1276.56 205.83 1284.96 204.96 C 1284.84 201.67 1284.14 197.68 1280.71 196.27 C 1273.60 193.53 1265.82 195.71 1258.94 198.09 C 1258.93 195.68 1258.93 193.27 1258.94 190.86 M 1266.33 214.32 C 1261.04 217.15 1261.37 226.66 1267.40 228.38 C 1273.63 230.41 1279.94 227.52 1284.82 223.75 C 1284.82 219.50 1284.83 215.25 1284.83 211.00 C 1278.64 211.70 1271.91 211.15 1266.33 214.32 Z" />
<path fill="#000000" opacity="1.00" d=" M 1313.55 194.98 C 1317.22 192.28 1321.25 189.69 1325.89 189.17 C 1330.46 188.58 1335.70 189.51 1338.85 193.16 C 1341.93 196.64 1342.68 201.48 1342.71 205.98 C 1342.75 215.32 1342.69 224.66 1342.73 233.99 C 1340.26 234.00 1337.81 233.99 1335.36 233.99 C 1335.33 224.69 1335.47 215.38 1335.30 206.08 C 1335.18 202.27 1334.71 197.29 1330.58 195.70 C 1324.50 193.43 1318.50 196.90 1313.64 200.25 C 1313.50 211.50 1313.60 222.74 1313.59 233.99 C 1311.12 233.99 1308.67 233.99 1306.22 233.99 C 1306.23 219.33 1306.23 204.67 1306.23 190.01 C 1308.67 190.00 1311.13 190.00 1313.60 190.01 C 1313.57 191.67 1313.55 193.32 1313.55 194.98 Z" />
<path fill="#000000" opacity="1.00" d=" M 1357.94 190.86 C 1365.99 189.15 1374.62 187.85 1382.62 190.51 C 1387.89 192.21 1391.18 197.61 1391.08 203.04 C 1391.23 213.36 1391.09 223.68 1391.14 234.00 C 1388.69 234.00 1386.26 234.00 1383.83 234.00 C 1383.81 232.38 1383.81 230.77 1383.83 229.16 C 1379.57 232.46 1374.50 235.02 1368.99 234.97 C 1362.70 235.42 1356.14 231.35 1354.56 225.10 C 1353.23 219.87 1354.39 213.48 1359.04 210.22 C 1366.27 205.16 1375.58 205.83 1383.97 204.95 C 1383.83 201.65 1383.13 197.67 1379.69 196.26 C 1372.59 193.54 1364.82 195.71 1357.94 198.09 C 1357.93 195.68 1357.93 193.27 1357.94 190.86 M 1365.34 214.31 C 1360.03 217.14 1360.37 226.69 1366.43 228.39 C 1372.65 230.40 1378.95 227.51 1383.83 223.74 C 1383.82 219.49 1383.83 215.24 1383.83 211.00 C 1377.65 211.70 1370.93 211.15 1365.34 214.31 Z" />
<path fill="#000000" opacity="1.00" d=" M 749.93 190.00 C 752.37 190.00 754.81 190.00 757.26 190.00 C 757.32 199.58 757.15 209.17 757.35 218.75 C 757.45 222.44 758.38 227.08 762.34 228.47 C 768.34 230.39 774.17 227.09 778.96 223.78 C 779.18 212.52 779.00 201.26 779.06 190.00 C 781.50 190.00 783.95 190.00 786.40 190.00 C 786.41 204.67 786.41 219.33 786.40 234.00 C 783.95 234.00 781.50 234.00 779.06 234.00 C 779.05 232.32 779.05 230.65 779.06 228.99 C 775.63 231.48 772.00 234.03 767.72 234.73 C 762.94 235.51 757.44 234.73 754.00 231.04 C 750.73 227.54 749.93 222.55 749.93 217.94 C 749.90 208.62 749.93 199.31 749.93 190.00 Z" />
<path fill="#000000" opacity="1.00" d=" M 852.30 190.01 C 854.75 190.00 857.21 190.00 859.67 190.01 C 859.65 204.67 859.65 219.33 859.67 233.99 C 857.20 233.99 854.75 233.99 852.30 233.99 C 852.32 219.33 852.31 204.67 852.30 190.01 Z" />
<path fill="#000000" opacity="1.00" d=" M 1106.22 190.01 C 1108.67 190.00 1111.12 190.00 1113.59 190.01 C 1113.58 192.16 1113.57 194.30 1113.57 196.44 C 1116.49 194.29 1119.43 192.00 1122.93 190.87 C 1126.30 189.65 1129.95 189.98 1133.45 190.38 C 1133.44 192.91 1133.44 195.45 1133.46 197.98 C 1130.05 197.20 1126.49 196.59 1123.03 197.36 C 1119.53 198.12 1116.62 200.33 1113.68 202.23 C 1113.46 212.81 1113.63 223.40 1113.59 233.98 C 1111.13 233.99 1108.67 234.00 1106.23 234.00 C 1106.23 219.33 1106.24 204.67 1106.22 190.01 Z" />
<path fill="#000000" opacity="1.00" d=" M 1140.30 190.01 C 1142.75 190.00 1145.20 190.00 1147.67 190.01 C 1147.65 204.67 1147.65 219.33 1147.67 233.99 C 1145.20 233.99 1142.75 233.99 1140.30 233.99 C 1140.31 219.33 1140.31 204.67 1140.30 190.01 Z" />
<path fill="#000000" opacity="1.00" d=" M 1236.30 190.01 C 1238.75 190.00 1241.20 190.00 1243.67 190.02 C 1243.65 204.67 1243.66 219.33 1243.67 233.99 C 1241.20 233.99 1238.75 234.00 1236.30 233.99 C 1236.31 219.33 1236.31 204.67 1236.30 190.01 Z" />
<path fill="#000000" opacity="1.00" d=" M 625.47 261.02 C 630.61 260.98 635.75 261.00 640.90 261.00 C 640.89 264.67 640.89 268.33 640.90 271.99 C 635.75 272.00 630.61 272.02 625.47 271.98 C 625.48 268.32 625.48 264.67 625.47 261.02 Z" />
<path fill="#000000" opacity="1.00" d=" M 742.56 261.00 C 747.42 261.00 752.28 261.00 757.14 261.00 C 757.14 282.00 757.14 303.00 757.14 324.00 C 752.27 324.00 747.40 324.02 742.54 323.97 C 742.54 322.43 742.56 320.89 742.59 319.35 C 737.93 323.14 732.02 325.74 725.90 324.89 C 718.38 324.39 712.64 317.96 710.86 310.97 C 708.44 301.63 709.25 290.49 716.16 283.17 C 722.83 275.93 734.25 275.41 742.57 280.02 C 742.55 273.68 742.56 267.34 742.56 261.00 M 728.56 290.58 C 724.91 293.93 724.45 299.32 724.81 303.97 C 725.04 307.51 726.23 311.70 729.85 313.15 C 734.06 314.95 738.76 313.60 742.56 311.45 C 742.56 304.00 742.55 296.56 742.57 289.11 C 738.01 287.70 732.39 287.20 728.56 290.58 Z" />
<path fill="#000000" opacity="1.00" d=" M 855.56 261.00 C 860.42 261.00 865.28 261.00 870.14 261.00 C 870.14 282.00 870.14 303.00 870.14 324.00 C 865.25 323.98 860.37 324.05 855.50 323.93 C 855.52 322.40 855.56 320.87 855.60 319.35 C 850.93 323.13 845.02 325.75 838.89 324.88 C 831.41 324.39 825.68 318.00 823.89 311.06 C 821.36 301.49 822.28 289.97 829.64 282.69 C 836.39 275.87 847.44 275.55 855.57 280.02 C 855.55 273.68 855.56 267.34 855.56 261.00 M 842.11 290.12 C 837.99 293.35 837.41 299.11 837.81 303.97 C 838.03 307.50 839.23 311.69 842.84 313.15 C 847.05 314.95 851.75 313.60 855.56 311.46 C 855.56 304.01 855.55 296.56 855.57 289.11 C 851.20 287.77 845.98 287.24 842.11 290.12 Z" />
<path fill="#000000" opacity="1.00" d=" M 1161.56 261.00 C 1166.42 261.00 1171.27 261.00 1176.14 261.00 C 1176.14 282.00 1176.14 303.00 1176.14 324.00 C 1171.26 323.99 1166.39 324.03 1161.52 323.95 C 1161.53 322.41 1161.56 320.88 1161.60 319.35 C 1156.91 323.15 1150.99 325.75 1144.85 324.88 C 1137.38 324.36 1131.67 317.98 1129.88 311.04 C 1127.56 302.10 1128.13 291.60 1134.24 284.22 C 1140.68 276.10 1152.87 275.13 1161.57 280.03 C 1161.55 273.68 1161.56 267.34 1161.56 261.00 M 1148.10 290.13 C 1143.98 293.36 1143.41 299.12 1143.81 303.97 C 1144.03 307.53 1145.25 311.74 1148.90 313.18 C 1153.11 314.93 1157.77 313.59 1161.57 311.45 C 1161.56 304.01 1161.55 296.56 1161.57 289.11 C 1157.20 287.77 1151.97 287.24 1148.10 290.13 Z" />
<path fill="#000000" opacity="1.00" d=" M 1244.89 261.00 C 1249.75 261.00 1254.61 261.00 1259.48 261.00 C 1259.49 282.00 1259.49 303.00 1259.48 324.00 C 1254.61 324.00 1249.75 324.00 1244.89 324.00 C 1244.89 303.00 1244.89 282.00 1244.89 261.00 Z" />
<path fill="#000000" opacity="1.00" d=" M 1420.47 261.02 C 1425.60 260.98 1430.75 261.00 1435.89 261.00 C 1435.89 264.67 1435.89 268.33 1435.90 271.99 C 1430.75 272.00 1425.61 272.02 1420.47 271.98 C 1420.48 268.32 1420.48 264.67 1420.47 261.02 Z" />
<path fill="#000000" opacity="1.00" d=" M 581.22 265.22 C 592.31 261.28 604.95 262.71 615.33 268.08 C 615.31 273.15 615.36 278.22 615.29 283.30 C 611.77 282.40 609.47 279.31 606.25 277.80 C 599.80 273.96 590.78 273.92 585.00 279.03 C 580.03 283.46 578.90 290.62 579.47 296.95 C 579.85 302.37 582.47 307.94 587.33 310.71 C 593.37 314.05 601.11 313.55 606.95 309.98 C 609.90 308.47 612.05 305.66 615.29 304.68 C 615.37 309.70 615.32 314.72 615.32 319.73 C 604.66 325.23 591.74 326.91 580.38 322.59 C 573.02 319.86 567.25 313.55 564.95 306.08 C 562.55 298.32 562.54 289.76 565.04 282.02 C 567.52 274.34 573.56 267.89 581.22 265.22 Z" />
<path fill="#000000" opacity="1.00" d=" M 1301.71 264.00 C 1311.82 264.07 1321.94 263.85 1332.05 264.12 C 1337.97 264.24 1344.29 265.94 1348.26 270.62 C 1352.26 275.16 1352.24 281.93 1350.53 287.43 C 1348.80 292.54 1344.26 295.89 1339.72 298.36 C 1346.41 306.91 1353.11 315.44 1359.80 323.99 C 1353.47 324.01 1347.14 323.99 1340.82 324.00 C 1335.26 316.67 1329.86 309.22 1324.24 301.94 C 1321.87 301.99 1319.52 302.01 1317.18 302.02 C 1317.19 309.34 1317.19 316.67 1317.18 324.00 C 1312.02 324.00 1306.86 324.00 1301.70 324.00 C 1301.70 304.00 1301.70 284.00 1301.71 264.00 M 1317.18 275.01 C 1317.19 280.34 1317.18 285.66 1317.18 290.99 C 1322.17 290.79 1327.66 291.78 1332.18 289.13 C 1337.00 286.29 1336.80 277.25 1330.94 275.78 C 1326.47 274.53 1321.75 275.15 1317.18 275.01 Z" />
<path fill="#000000" opacity="1.00" d=" M 771.45 279.20 C 781.82 277.04 792.87 275.73 803.20 278.81 C 808.59 280.31 812.65 285.32 812.81 290.94 C 813.09 301.96 812.84 312.98 812.93 324.00 C 808.09 324.00 803.26 324.01 798.44 323.98 C 798.43 322.39 798.44 320.81 798.46 319.22 C 791.72 325.34 780.61 327.34 772.93 321.86 C 767.32 317.99 766.10 309.91 768.94 303.99 C 770.99 300.01 775.18 297.73 779.33 296.52 C 785.63 294.72 792.23 294.56 798.72 293.96 C 798.26 291.83 797.71 289.30 795.39 288.48 C 787.56 285.18 779.16 288.04 771.46 290.16 C 771.44 286.51 771.45 282.85 771.45 279.20 M 785.24 305.19 C 781.59 306.56 781.09 312.66 784.84 314.19 C 789.37 316.03 794.53 314.69 798.47 312.07 C 798.44 309.04 798.44 306.02 798.45 302.99 C 794.04 303.57 789.39 303.44 785.24 305.19 Z" />
<path fill="#000000" opacity="1.00" d=" M 884.44 279.20 C 894.82 277.03 905.87 275.73 916.20 278.81 C 921.60 280.30 925.65 285.33 925.81 290.96 C 926.09 301.97 925.84 312.99 925.93 324.00 C 921.09 324.00 916.25 324.03 911.42 323.96 C 911.43 322.38 911.44 320.80 911.47 319.22 C 904.88 325.17 894.28 327.21 886.57 322.31 C 880.32 318.50 878.82 309.59 882.27 303.42 C 884.72 299.27 889.41 297.19 893.91 296.09 C 899.74 294.72 905.76 294.48 911.71 293.96 C 911.26 291.85 910.73 289.33 908.44 288.50 C 900.60 285.18 892.17 288.03 884.46 290.17 C 884.44 286.51 884.45 282.86 884.44 279.20 M 898.18 305.22 C 894.58 306.62 894.11 312.71 897.87 314.20 C 902.39 316.03 907.53 314.68 911.47 312.07 C 911.44 309.04 911.44 306.02 911.45 302.99 C 907.02 303.57 902.34 303.44 898.18 305.22 Z" />
<path fill="#000000" opacity="1.00" d=" M 953.48 283.24 C 957.02 280.73 960.71 278.15 965.07 277.36 C 970.23 276.44 976.16 277.17 980.08 280.97 C 983.58 284.30 984.55 289.35 984.60 294.00 C 984.64 303.99 984.58 313.99 984.62 323.98 C 979.72 324.01 974.83 324.00 969.94 324.00 C 969.86 315.35 970.07 306.70 969.83 298.05 C 969.59 295.06 969.51 291.12 966.32 289.72 C 962.03 288.01 957.34 289.55 953.48 291.63 C 953.49 302.42 953.49 313.21 953.48 324.00 C 948.61 324.00 943.75 324.00 938.89 324.00 C 938.89 308.66 938.89 293.33 938.89 278.00 C 943.75 277.99 948.61 278.00 953.48 278.00 C 953.47 279.74 953.47 281.49 953.48 283.24 Z" />
<path fill="#000000" opacity="1.00" d=" M 1012.46 277.68 C 1021.08 276.14 1031.12 276.95 1037.73 283.30 C 1044.43 289.71 1045.53 299.99 1043.51 308.63 C 1041.82 315.82 1036.06 321.79 1028.94 323.72 C 1022.36 325.55 1015.16 325.49 1008.69 323.28 C 1001.92 320.98 996.74 314.92 995.31 307.95 C 993.89 301.00 994.33 293.28 998.14 287.13 C 1001.26 282.08 1006.69 278.78 1012.46 277.68 M 1017.21 287.21 C 1012.96 287.80 1010.61 292.08 1010.08 295.96 C 1009.45 300.83 1009.36 306.10 1011.53 310.62 C 1014.72 316.77 1025.31 316.42 1027.82 309.82 C 1029.93 304.53 1029.70 298.39 1028.13 292.99 C 1026.83 288.37 1021.65 286.16 1017.21 287.21 Z" />
<path fill="#000000" opacity="1.00" d=" M 1055.11 284.17 C 1059.54 279.14 1066.47 277.34 1072.94 277.06 C 1079.55 276.66 1086.14 277.98 1092.35 280.17 C 1092.38 284.21 1092.40 288.25 1092.34 292.30 C 1085.26 288.67 1076.98 285.06 1069.00 288.07 C 1066.46 288.67 1066.29 292.42 1068.72 293.30 C 1076.02 296.25 1085.17 294.95 1091.18 300.81 C 1097.01 306.79 1094.54 317.59 1087.25 321.23 C 1076.40 327.00 1062.95 325.68 1051.83 321.31 C 1051.86 317.10 1051.81 312.90 1051.88 308.69 C 1059.43 313.04 1068.31 316.77 1077.14 314.23 C 1079.67 313.84 1080.52 309.95 1077.97 308.95 C 1071.23 306.30 1063.29 307.13 1057.22 302.71 C 1051.30 298.72 1050.28 289.39 1055.11 284.17 Z" />
<path fill="#000000" opacity="1.00" d=" M 1193.49 283.57 C 1199.69 277.64 1208.89 276.32 1217.12 277.30 C 1222.74 277.91 1228.43 280.60 1231.43 285.58 C 1234.93 291.04 1234.78 297.76 1234.73 303.99 C 1223.56 304.02 1212.38 303.97 1201.21 304.02 C 1201.66 307.72 1203.42 311.49 1206.98 313.13 C 1212.29 315.56 1218.54 315.45 1224.09 313.84 C 1227.52 312.93 1230.44 310.76 1233.83 309.72 C 1233.88 313.63 1233.88 317.54 1233.81 321.45 C 1223.88 325.21 1212.74 326.23 1202.46 323.37 C 1195.63 321.46 1189.56 316.29 1187.65 309.32 C 1185.26 300.56 1186.58 290.00 1193.49 283.57 M 1201.08 294.91 C 1207.50 295.08 1213.92 294.98 1220.35 294.98 C 1219.86 292.68 1219.48 290.02 1217.37 288.59 C 1211.65 285.02 1201.77 287.23 1201.08 294.91 Z" />
<path fill="#000000" opacity="1.00" d=" M 1369.57 283.49 C 1375.78 277.62 1384.94 276.32 1393.13 277.31 C 1398.75 277.91 1404.42 280.60 1407.42 285.56 C 1410.93 291.02 1410.78 297.75 1410.73 303.99 C 1399.55 304.03 1388.37 303.96 1377.19 304.03 C 1377.70 307.44 1379.09 310.99 1382.29 312.73 C 1387.16 315.42 1393.12 315.40 1398.46 314.29 C 1402.53 313.51 1405.93 310.99 1409.83 309.73 C 1409.88 313.63 1409.88 317.55 1409.80 321.46 C 1399.86 325.20 1388.71 326.24 1378.43 323.36 C 1371.59 321.44 1365.51 316.24 1363.63 309.24 C 1361.26 300.47 1362.62 289.89 1369.57 283.49 M 1380.71 288.67 C 1378.40 289.94 1377.76 292.59 1377.09 294.92 C 1383.50 295.07 1389.92 294.99 1396.34 294.98 C 1395.88 292.43 1395.27 289.45 1392.72 288.17 C 1388.98 286.41 1384.28 286.61 1380.71 288.67 Z" />
<path fill="#000000" opacity="1.00" d=" M 1463.48 283.23 C 1467.48 280.37 1471.81 277.46 1476.87 277.11 C 1482.38 276.48 1488.67 278.18 1491.83 283.07 C 1494.94 287.77 1494.62 293.68 1494.62 299.07 C 1494.60 307.38 1494.60 315.68 1494.62 323.98 C 1489.72 324.01 1484.83 324.00 1479.94 324.00 C 1479.85 315.17 1480.10 306.35 1479.80 297.53 C 1479.56 294.66 1479.33 290.94 1476.25 289.68 C 1471.96 288.02 1467.33 289.57 1463.49 291.62 C 1463.48 302.41 1463.49 313.20 1463.48 324.00 C 1458.61 324.00 1453.75 324.00 1448.89 323.99 C 1448.89 308.66 1448.89 293.33 1448.89 278.00 C 1453.75 278.00 1458.61 278.00 1463.48 278.00 C 1463.47 279.74 1463.46 281.48 1463.48 283.23 Z" />
<path fill="#000000" opacity="1.00" d=" M 1522.48 277.67 C 1531.09 276.14 1541.12 276.95 1547.73 283.29 C 1554.44 289.71 1555.54 300.03 1553.49 308.69 C 1551.79 315.86 1546.02 321.80 1538.91 323.73 C 1532.10 325.59 1524.62 325.51 1517.98 323.01 C 1511.24 320.47 1506.30 314.12 1505.12 307.06 C 1503.87 299.93 1504.55 291.97 1508.93 285.97 C 1512.12 281.54 1517.17 278.70 1522.48 277.67 M 1527.14 287.22 C 1522.94 287.84 1520.62 292.08 1520.08 295.92 C 1519.44 300.80 1519.35 306.08 1521.53 310.62 C 1524.03 315.42 1531.04 316.28 1535.22 313.26 C 1538.51 310.54 1539.25 305.99 1539.29 301.96 C 1539.28 297.99 1539.09 293.70 1536.74 290.34 C 1534.63 287.30 1530.54 286.58 1527.14 287.22 Z" />
<path fill="#000000" opacity="1.00" d=" M 625.89 278.00 C 630.75 278.00 635.62 278.00 640.48 278.00 C 640.49 293.33 640.49 308.66 640.48 324.00 C 635.62 324.00 630.75 324.00 625.89 324.00 C 625.89 308.66 625.89 293.33 625.89 278.00 Z" />
<path fill="#000000" opacity="1.00" d=" M 653.53 278.00 C 658.42 278.00 663.31 278.00 668.20 278.00 C 668.26 286.69 668.10 295.37 668.27 304.05 C 668.40 307.02 668.69 310.85 671.77 312.28 C 676.06 313.99 680.76 312.44 684.65 310.41 C 684.66 299.61 684.65 288.81 684.66 278.00 C 689.51 278.00 694.37 278.00 699.23 278.00 C 699.24 293.33 699.24 308.66 699.23 324.00 C 694.37 324.00 689.51 324.00 684.66 324.00 C 684.65 322.24 684.65 320.49 684.66 318.75 C 680.87 321.40 676.92 324.32 672.17 324.81 C 667.22 325.43 661.62 324.67 657.94 320.99 C 654.52 317.62 653.57 312.60 653.54 307.98 C 653.51 297.98 653.54 287.99 653.53 278.00 Z" />
<path fill="#000000" opacity="1.00" d=" M 1420.89 278.00 C 1425.75 277.99 1430.61 278.00 1435.48 278.00 C 1435.49 293.33 1435.49 308.67 1435.48 324.00 C 1430.61 324.00 1425.75 324.00 1420.89 323.99 C 1420.89 308.66 1420.89 293.33 1420.89 278.00 Z" />
</g>
</svg>
